<?xml version="1.0" encoding="UTF-8" standalone="no"?><!DOCTYPE svg PUBLIC "-//W3C//DTD SVG 1.1//EN" "http://www.w3.org/Graphics/SVG/1.1/DTD/svg11.dtd"><svg width="100%" height="100%" viewBox="0 0 2197 1938" version="1.1" xmlns="http://www.w3.org/2000/svg" xmlns:xlink="http://www.w3.org/1999/xlink" xml:space="preserve" xmlns:serif="http://www.serif.com/" style="fill-rule:evenodd;clip-rule:evenodd;stroke-linejoin:round;stroke-miterlimit:1.41421;"><g><path d="M741.693,1906.18c96.287,-77.646 227.395,-196.715 238.428,-319.915c10.542,-117.706 -68.884,-224.32 -143.067,-316.314l-41.371,33.361c65.537,81.271 78.89,182.553 69.577,286.541c-9.747,108.841 -106.709,278.579 -191.774,347.174l68.207,-30.847Z" style="fill:#00b1e5;"/><path d="M916.831,61.503c80.959,93.518 186.1,221.737 175.067,344.937c-10.542,117.707 -52.364,270.692 -141.713,348.04l-87.343,-90.109c78.934,-68.334 107.322,-167.16 116.635,-271.148c9.747,-108.84 -52.764,-291.578 -124.286,-374.196l61.64,42.476Z" style="fill:#00b1e5;"/><path d="M864.381,662.139c-96.287,77.645 -303.108,235.677 -314.141,358.878c-10.541,117.706 171.238,190.308 245.421,282.301l41.37,-33.361c-65.537,-81.271 -149.977,-129.13 -140.664,-233.118c9.747,-108.841 171.581,-215.356 256.645,-283.952l-88.631,-90.748Z" style="fill:#00b1e5;"/></g><g transform="matrix(0.547024,0,0,1,-5627.33,0)"><text x="11065.6px" y="363.867px" style="font-family:'GloriaHallelujah', 'Gloria Hallelujah';font-size:450px;">The</text></g><path d="M5,773.515c-0,-20.215 2.55,-38.965 7.65,-56.25c5.1,-17.285 11.77,-32.227 20.009,-44.824c8.238,-12.598 17.536,-22.486 27.894,-29.663c10.357,-7.178 20.871,-10.767 31.542,-10.767c5.963,-0 11.26,3.589 15.889,10.767c4.63,7.177 8.514,15.893 11.652,26.147c3.139,10.254 5.532,21.094 7.18,32.52c1.647,11.425 2.471,21.386 2.471,29.882c0,18.164 -2.354,35.816 -7.062,52.954c-4.707,17.139 -10.828,32.3 -18.36,45.484c-7.533,13.183 -16.007,23.804 -25.423,31.86c-9.415,8.057 -18.831,12.085 -28.247,12.085c-8.317,0 -15.339,-2.637 -21.067,-7.91c-5.728,-5.273 -10.358,-12.451 -13.888,-21.533c-3.531,-9.082 -6.121,-19.702 -7.768,-31.861c-1.648,-12.158 -2.472,-25.122 -2.472,-38.891Zm22.362,5.273c0,8.203 0.393,15.528 1.177,21.973c0.785,6.445 2.158,11.938 4.12,16.479c1.961,4.541 4.59,7.984 7.885,10.328c3.296,2.343 7.454,3.515 12.476,3.515c6.434,0 12.868,-3.296 19.302,-9.887c6.434,-6.592 12.201,-15.015 17.302,-25.269c5.1,-10.254 9.258,-21.533 12.475,-33.838c3.217,-12.305 4.826,-24.316 4.826,-36.035c-0,-5.273 -0.275,-10.986 -0.824,-17.139c-0.549,-6.152 -1.452,-11.865 -2.707,-17.138c-1.255,-5.274 -3.021,-9.742 -5.296,-13.404c-2.276,-3.662 -5.14,-5.493 -8.592,-5.493c-3.139,0 -6.827,1.978 -11.064,5.933c-4.237,3.955 -8.67,9.009 -13.299,15.161c-4.63,6.152 -9.181,13.183 -13.653,21.094c-4.472,7.91 -8.513,15.747 -12.123,23.51c-3.609,7.764 -6.512,15.235 -8.709,22.412c-2.197,7.178 -3.296,13.111 -3.296,17.798Z" style="fill:#fff;fill-rule:nonzero;stroke:#000;stroke-width:10px;"/><path d="M245.806,918.095c-3.609,-12.598 -7.611,-28.418 -12.005,-47.461c-4.394,-19.043 -8.984,-38.892 -13.77,-59.546c-4.786,-20.654 -9.73,-40.942 -14.83,-60.864c-5.1,-19.922 -10.239,-37.207 -15.418,-51.856c-2.197,-2.929 -5.1,-4.687 -8.71,-5.273c-3.609,-0.586 -7.414,-0.806 -11.416,-0.659c-4.002,0.146 -7.964,-0 -11.887,-0.44c-3.924,-0.439 -7.337,-2.124 -10.24,-5.053c-2.903,-2.93 -5.061,-7.544 -6.473,-13.843c-1.413,-6.299 -1.648,-15.308 -0.706,-27.027l43.783,0c0.941,-18.164 2.471,-36.181 4.59,-54.052c2.118,-17.871 4.943,-34.937 8.474,-51.197c3.531,-16.259 7.846,-31.42 12.946,-45.483c5.101,-14.062 11.221,-26.147 18.361,-36.255c7.14,-10.107 15.34,-18.091 24.599,-23.95c9.258,-5.859 19.851,-8.789 31.777,-8.789c4.238,-0 8.435,1.904 12.594,5.713c4.159,3.808 7.886,8.789 11.181,14.941c3.296,6.153 5.963,13.111 8.003,20.874c2.041,7.764 3.061,15.601 3.061,23.511c-3.296,-0 -6.278,-1.245 -8.945,-3.735c-2.668,-2.491 -5.218,-5.274 -7.651,-8.35c-2.432,-3.076 -5.021,-5.933 -7.768,-8.569c-2.746,-2.637 -5.845,-3.955 -9.298,-3.955c-10.514,-0 -20.283,3.881 -29.306,11.645c-9.023,7.764 -16.87,18.164 -23.539,31.201c-6.67,13.037 -11.927,28.199 -15.771,45.484c-3.845,17.285 -5.768,35.449 -5.768,54.492c0,1.172 0.04,3.515 0.118,7.031l0.236,22.412c0.078,3.516 0.117,5.86 0.117,7.031c6.434,4.102 13.653,7.105 21.656,9.009c8.004,1.905 16.085,3.076 24.246,3.516c8.16,0.439 16.046,0.366 23.657,-0.22c7.611,-0.586 14.319,-1.318 20.126,-2.197c0.627,0.879 1.608,2.637 2.942,5.273c1.334,2.637 2.158,4.541 2.472,5.713c-0,0.879 0.078,1.612 0.235,2.197c0.314,1.758 0.471,2.637 0.471,2.637c-0,7.031 -1.922,12.451 -5.767,16.26c-3.845,3.809 -8.749,6.665 -14.712,8.569c-5.963,1.905 -12.554,3.15 -19.773,3.736c-7.219,0.586 -14.163,1.098 -20.832,1.538c-6.67,0.439 -12.672,1.098 -18.008,1.977c-5.335,0.879 -9.102,2.491 -11.299,4.834c2.354,19.336 6.434,38.159 12.241,56.47c5.806,18.311 11.769,36.548 17.889,54.712c6.121,18.164 11.535,36.548 16.243,55.151c4.707,18.604 7.061,37.72 7.061,57.349c-0.627,-0 -2.197,0.073 -4.708,0.22c-2.51,0.146 -5.178,-0.147 -8.003,-0.879c-2.825,-0.733 -5.492,-2.124 -8.003,-4.175c-2.511,-2.051 -4.002,-5.274 -4.473,-9.668Z" style="fill:#fff;fill-rule:nonzero;stroke:#000;stroke-width:10px;"/><path d="M898.708,547.626c0,-3.515 0.236,-7.983 0.707,-13.403c0.47,-5.42 1.255,-10.547 2.353,-15.381c1.099,-4.834 2.551,-9.009 4.355,-12.524c1.805,-3.516 4.041,-5.274 6.709,-5.274c0.314,0 0.785,0.147 1.412,0.44c0.628,0.293 1.099,0.439 1.413,0.439c2.981,20.215 4.707,40.283 5.178,60.205c0.471,19.922 0.275,39.258 -0.588,58.008c-0.863,18.75 -2.158,36.767 -3.884,54.053c-1.726,17.285 -3.178,33.252 -4.355,47.9c-1.177,14.648 -1.883,27.905 -2.119,39.771c-0.235,11.865 0.667,21.752 2.708,29.663c-0.314,-4.981 -0.511,-11.133 -0.589,-18.457c-0.078,-7.325 0.275,-14.942 1.059,-22.852c0.785,-7.91 2.08,-15.747 3.884,-23.511c1.805,-7.763 4.473,-14.721 8.004,-20.874c3.53,-6.152 8.042,-11.059 13.535,-14.721c5.492,-3.663 12.319,-5.494 20.479,-5.494c8.474,0 15.81,2.784 22.009,8.35c6.199,5.566 11.338,13.11 15.418,22.632c4.08,9.521 7.101,20.727 9.063,33.618c1.961,12.891 2.942,26.66 2.942,41.309c0,7.031 -0.039,14.868 -0.118,23.51c-0.078,8.643 -0.706,16.626 -1.883,23.951c-1.177,7.324 -3.177,13.476 -6.002,18.457c-2.825,4.98 -7.062,7.47 -12.711,7.47c-0,-5.273 0.196,-12.378 0.588,-21.313c0.392,-8.936 0.628,-18.457 0.706,-28.565c0.079,-10.107 -0.117,-20.361 -0.588,-30.761c-0.471,-10.401 -1.648,-19.776 -3.531,-28.125c-1.883,-8.35 -4.551,-15.161 -8.003,-20.435c-3.453,-5.273 -8.082,-7.91 -13.889,-7.91c-2.197,-0 -4.825,0.22 -7.885,0.659c-3.06,0.44 -6.16,1.978 -9.298,4.614c-3.139,2.637 -6.16,6.592 -9.063,11.866c-2.903,5.273 -5.257,12.597 -7.062,21.972c-1.804,9.375 -2.824,21.167 -3.06,35.376c-0.235,14.209 0.667,31.568 2.707,52.075c-1.098,5.86 -2.589,9.229 -4.472,10.108c-1.883,0.879 -4.159,1.318 -6.826,1.318c-5.65,0 -10.24,-3.662 -13.771,-10.986c-3.531,-7.324 -6.277,-17.139 -8.239,-29.443c-1.961,-12.305 -3.256,-26.587 -3.884,-42.847c-0.627,-16.26 -0.863,-33.325 -0.706,-51.196c0.157,-17.872 0.628,-35.962 1.413,-54.273c0.784,-18.31 1.608,-35.669 2.471,-52.075c0.863,-16.406 1.648,-31.348 2.354,-44.824c0.706,-13.477 1.059,-24.317 1.059,-32.52Z" style="fill:#fff;fill-rule:nonzero;stroke:#000;stroke-width:10px;"/><path d="M1029.82,681.659c-0,-1.757 0.039,-4.834 0.118,-9.228l0.47,-28.345c0.079,-4.541 0.118,-7.69 0.118,-9.448c1.883,-5.274 4.355,-9.522 7.415,-12.744c3.06,-3.223 6.159,-5.86 9.298,-7.91c0.628,17.578 2.158,36.254 4.59,56.03c2.432,19.775 5.022,39.697 7.768,59.765c2.746,20.069 5.218,39.844 7.415,59.327c2.197,19.482 3.295,37.719 3.295,54.712c0,14.648 -4.001,21.972 -12.005,21.972c-4.864,0 -8.945,-3.735 -12.24,-11.206c-3.296,-7.471 -5.963,-16.992 -8.003,-28.564c-2.04,-11.573 -3.649,-24.463 -4.826,-38.672c-1.177,-14.209 -2.001,-28.125 -2.472,-41.748c-0.47,-13.623 -0.745,-26.148 -0.823,-37.573c-0.079,-11.426 -0.118,-20.215 -0.118,-26.368Zm3.766,-182.812c3.296,2.637 6.081,6.885 8.357,12.744c2.275,5.859 3.256,11.133 2.942,15.82c-0.314,4.688 -2.275,7.91 -5.885,9.668c-3.609,1.758 -9.729,-0.146 -18.36,-5.713c-0,-8.789 0.902,-16.406 2.707,-22.851c1.804,-6.446 5.217,-9.668 10.239,-9.668Z" style="fill:#fff;fill-rule:nonzero;stroke:#000;stroke-width:10px;"/><path d="M1074.78,618.818c-0,-0.879 0.078,-1.758 0.235,-2.637c0,-0.586 0.079,-1.319 0.236,-2.197c0.627,-1.758 1.647,-3.956 3.06,-6.592c1.412,-2.637 2.275,-3.955 2.589,-3.955l52.728,-0c-0,-3.516 -0.275,-9.156 -0.824,-16.919c-0.549,-7.764 -1.02,-16.407 -1.412,-25.928c-0.393,-9.521 -0.51,-19.336 -0.353,-29.443c0.157,-10.108 0.902,-19.336 2.236,-27.686c1.334,-8.35 3.413,-15.234 6.238,-20.654c2.824,-5.42 6.826,-8.13 12.005,-8.13c-0,32.812 1.255,59.18 3.766,79.101c2.511,19.922 5.806,35.23 9.886,45.923c4.081,10.694 8.749,17.725 14.006,21.094c5.257,3.369 10.593,4.761 16.007,4.175c5.414,-0.586 10.75,-2.197 16.007,-4.834c5.257,-2.637 9.925,-4.395 14.006,-5.274c4.08,-0.878 7.375,-0.146 9.886,2.198c2.511,2.343 3.766,8.203 3.766,17.578c0,6.738 -0.863,11.572 -2.589,14.502c-1.726,2.929 -4.943,5.127 -9.651,6.592c-1.412,0.586 -3.727,1.245 -6.944,1.977c-3.217,0.733 -6.827,1.465 -10.828,2.197c-4.002,0.733 -8.239,1.465 -12.711,2.198c-4.473,0.732 -8.749,1.391 -12.829,1.977c-4.08,0.586 -7.768,1.026 -11.064,1.319c-3.295,0.293 -5.728,0.439 -7.297,0.439l-0.471,15.82c0,14.356 1.216,28.272 3.649,41.748c2.432,13.477 5.1,26.88 8.003,40.21c2.903,13.33 5.571,26.734 8.004,40.21c2.432,13.477 3.648,27.246 3.648,41.309c0,2.637 -0.118,5.347 -0.353,8.13c-0.235,2.783 -0.745,5.273 -1.53,7.47c-0.785,2.198 -1.922,3.809 -3.413,4.834c-1.491,1.026 -3.57,0.806 -6.238,-0.659c-6.591,-3.222 -11.495,-10.254 -14.712,-21.093c-3.217,-10.84 -5.61,-23.658 -7.18,-38.453c-1.569,-14.795 -2.628,-30.468 -3.177,-47.021c-0.55,-16.553 -1.373,-32.08 -2.472,-46.582c-1.098,-14.502 -2.903,-26.88 -5.414,-37.134c-2.511,-10.254 -6.434,-16.553 -11.77,-18.896l-50.609,-21.094c-0.628,-0 -1.648,-1.392 -3.06,-4.175c-1.412,-2.783 -2.276,-4.907 -2.589,-6.372c-0.157,-0.586 -0.236,-1.318 -0.236,-2.197c-0.157,-0.879 -0.235,-1.905 -0.235,-3.076Z" style="fill:#fff;fill-rule:nonzero;stroke:#000;stroke-width:10px;"/><path d="M1248.74,729.12c-0,-17.578 1.137,-35.156 3.413,-52.734c2.275,-17.578 5.924,-33.399 10.946,-47.461c5.021,-14.063 11.495,-25.488 19.42,-34.277c7.924,-8.789 17.536,-13.184 28.835,-13.184c6.434,0 12.084,2.197 16.948,6.592c4.865,4.394 8.945,10.18 12.241,17.358c3.295,7.178 5.806,15.601 7.532,25.269c1.727,9.668 2.59,19.775 2.59,30.322c-0,16.406 -2.08,32.446 -6.238,48.12c-4.159,15.674 -9.691,29.444 -16.595,41.309c-6.905,11.865 -14.791,20.801 -23.657,26.806c-8.867,6.006 -17.929,7.398 -27.188,4.175c0.157,9.375 1.844,16.919 5.061,22.632c3.217,5.713 7.101,10.034 11.652,12.964c4.551,2.93 9.298,4.834 14.241,5.713c4.943,0.879 9.298,1.318 13.064,1.318c3.923,0 7.65,-0.659 11.181,-1.977c3.531,-1.319 7.023,-2.784 10.475,-4.395c3.453,-1.611 6.984,-3.076 10.593,-4.394c3.609,-1.319 7.376,-1.978 11.299,-1.978c1.569,0 3.178,0.146 4.825,0.439c1.648,0.293 3.139,1.026 4.473,2.198c1.334,1.172 2.432,2.929 3.295,5.273c0.863,2.344 1.295,5.42 1.295,9.229c-0,6.152 -1.216,11.279 -3.649,15.381c-2.432,4.101 -5.492,7.543 -9.18,10.327c-3.688,2.783 -7.807,4.98 -12.358,6.591c-4.551,1.612 -8.984,2.784 -13.3,3.516c-4.315,0.733 -8.238,1.172 -11.769,1.318c-3.531,0.147 -6.16,0.22 -7.886,0.22c-11.299,0 -21.381,-3.296 -30.248,-9.888c-8.866,-6.591 -16.36,-15.82 -22.48,-27.685c-6.12,-11.865 -10.789,-26.221 -14.006,-43.066c-3.217,-16.846 -4.825,-35.523 -4.825,-56.031Zm27.776,-31.64c0,11.425 0.824,19.702 2.472,24.829c1.647,5.127 5.688,7.69 12.122,7.69c4.551,0 9.024,-1.538 13.418,-4.614c4.394,-3.076 8.356,-7.398 11.887,-12.964c3.531,-5.566 6.356,-12.085 8.474,-19.556c2.119,-7.47 3.178,-15.6 3.178,-24.389c-0,-4.688 -0.235,-9.668 -0.706,-14.942c-0.471,-5.273 -1.373,-10.107 -2.707,-14.502c-1.334,-4.394 -3.1,-7.983 -5.297,-10.766c-2.197,-2.783 -5.021,-4.175 -8.474,-4.175c-5.335,-0 -10.122,2.197 -14.359,6.592c-4.237,4.394 -7.846,10.107 -10.828,17.138c-2.981,7.032 -5.257,14.869 -6.826,23.511c-1.569,8.643 -2.354,17.359 -2.354,26.148Z" style="fill:#fff;fill-rule:nonzero;stroke:#000;stroke-width:10px;"/><path d="M1389.03,655.732c-0,-5.274 0.627,-10.254 1.883,-14.942c1.255,-4.687 3.609,-7.031 7.062,-7.031c0.156,-0 0.392,0.073 0.706,0.22c0.314,0.146 0.627,0.219 0.941,0.219c0.471,0.293 0.863,0.44 1.177,0.44c0.471,0.586 1.452,2.197 2.943,4.834c1.49,2.637 2.393,4.541 2.707,5.713c0.627,2.051 1.765,6.299 3.413,12.744c1.648,6.445 3.648,13.989 6.002,22.632c2.354,8.642 4.787,17.798 7.297,27.466c2.511,9.667 4.944,18.823 7.298,27.465c2.354,8.643 4.354,16.187 6.002,22.632c1.648,6.445 2.786,10.694 3.413,12.744c0.314,0.879 1.177,2.71 2.59,5.493c1.412,2.784 2.511,4.468 3.295,5.054c1.413,-4.687 2.825,-11.572 4.237,-20.654c1.413,-9.082 2.825,-19.043 4.237,-29.883c1.413,-10.84 2.943,-22.046 4.59,-33.618c1.648,-11.572 3.453,-22.046 5.414,-31.421c1.962,-9.375 4.159,-17.065 6.591,-23.071c2.433,-6.006 5.218,-9.009 8.357,-9.009c4.551,-0 8.866,3.296 12.946,9.888c4.081,6.591 8.004,15.088 11.77,25.488c3.766,10.4 7.336,22.046 10.71,34.936c3.374,12.891 6.591,25.562 9.651,38.013c3.061,12.451 5.964,24.024 8.71,34.717c2.746,10.693 5.375,19.116 7.886,25.268c2.197,-1.464 4.001,-4.76 5.414,-9.887c1.412,-5.127 2.511,-10.547 3.295,-16.26c0.785,-5.713 1.334,-11.133 1.648,-16.26c0.314,-5.127 0.549,-8.423 0.706,-9.887c0.157,-3.516 0.432,-9.156 0.824,-16.919c0.392,-7.764 0.785,-16.48 1.177,-26.148l2.354,-60.644c0.392,-9.668 0.706,-18.311 0.941,-25.928c0.236,-7.617 0.432,-13.184 0.589,-16.699c0.314,-0 1.138,-0.22 2.472,-0.66c1.333,-0.439 2.314,-0.659 2.942,-0.659c2.354,0 4.512,0.513 6.473,1.538c1.962,1.026 3.492,4.468 4.59,10.328c0,2.343 0.04,6.445 0.118,12.304l0.471,37.573c0.078,6.006 0.118,10.181 0.118,12.525c-0,5.273 0.039,13.33 0.117,24.17c0.079,10.84 0,22.925 -0.235,36.255c-0.236,13.33 -0.785,26.953 -1.648,40.869c-0.863,13.916 -2.236,26.66 -4.119,38.232c-1.883,11.573 -4.394,21.021 -7.533,28.345c-3.138,7.324 -7.062,10.986 -11.769,10.986c-5.336,0 -10.358,-2.49 -15.066,-7.47c-4.707,-4.981 -9.141,-11.499 -13.299,-19.556c-4.159,-8.057 -8.043,-17.065 -11.652,-27.026c-3.609,-9.961 -6.944,-20.069 -10.004,-30.323c-3.06,-10.254 -5.846,-19.995 -8.357,-29.223c-2.511,-9.229 -4.786,-17.066 -6.826,-23.511c-1.256,5.566 -2.472,12.817 -3.649,21.753c-1.177,8.935 -2.471,18.457 -3.884,28.564c-1.412,10.108 -2.981,20.288 -4.708,30.542c-1.726,10.254 -3.687,19.556 -5.884,27.906c-2.197,8.349 -4.708,15.161 -7.533,20.434c-2.825,5.274 -6.12,7.91 -9.886,7.91c-1.727,0 -3.296,0.074 -4.708,0.22c-1.413,0.147 -2.707,-0.073 -3.884,-0.659c-1.177,-0.586 -2.276,-1.685 -3.296,-3.296c-1.02,-1.611 -2.001,-4.175 -2.942,-7.69l-44.725,-177.979c0,-0.586 -0.078,-2.051 -0.235,-4.395c-0.157,-2.343 -0.235,-4.248 -0.235,-5.712Z" style="fill:#fff;fill-rule:nonzero;stroke:#000;stroke-width:10px;"/><path d="M1703.52,802.069c-6.591,8.497 -12.28,16.041 -17.066,22.632c-4.786,6.592 -9.455,12.159 -14.006,16.7c-4.551,4.541 -9.416,7.983 -14.594,10.327c-5.179,2.343 -11.456,3.515 -18.832,3.515c-16.32,0 -28.404,-8.056 -36.25,-24.17c-7.847,-16.113 -11.77,-40.136 -11.77,-72.07c0,-12.305 0.903,-25.195 2.707,-38.672c1.805,-13.476 4.394,-26.806 7.768,-39.99c3.374,-13.184 7.415,-25.708 12.123,-37.573c4.708,-11.866 10.004,-22.339 15.889,-31.421c5.885,-9.082 12.201,-16.333 18.949,-21.753c6.748,-5.42 13.888,-8.13 21.421,-8.13c12.554,2.344 22.401,8.203 29.541,17.578c7.141,9.375 12.555,21.24 16.242,35.596c3.688,14.355 6.199,30.469 7.533,48.34c1.334,17.871 2.393,36.255 3.178,55.151c0.784,18.897 1.804,37.72 3.06,56.47c1.255,18.75 3.766,36.181 7.532,52.295c-2.197,10.84 -4.315,18.457 -6.355,22.851c-2.04,4.395 -4.276,5.054 -6.709,1.978c-2.432,-3.076 -5.257,-10.254 -8.474,-21.533c-3.217,-11.28 -7.179,-27.32 -11.887,-48.121Zm-90.156,-42.187c0,18.457 1.884,32.007 5.65,40.649c3.766,8.643 10.436,12.964 20.008,12.964c7.062,0 13.849,-2.343 20.362,-7.031c6.512,-4.687 12.24,-11.206 17.183,-19.556c4.944,-8.349 8.906,-18.383 11.888,-30.102c2.981,-11.719 4.472,-24.61 4.472,-38.672c0,-5.859 0.079,-14.136 0.235,-24.829c0.157,-10.694 -0.196,-21.24 -1.059,-31.641c-0.863,-10.4 -2.511,-19.409 -4.943,-27.026c-2.432,-7.617 -6.159,-11.426 -11.181,-11.426c-8.945,0 -17.262,4.321 -24.952,12.964c-7.689,8.643 -14.319,19.629 -19.89,32.959c-5.571,13.33 -9.926,28.052 -13.065,44.165c-3.138,16.113 -4.708,31.641 -4.708,46.582Z" style="fill:#fff;fill-rule:nonzero;stroke:#000;stroke-width:10px;"/><path d="M1747.77,618.818c-0,-0.879 0.078,-1.758 0.235,-2.637c-0,-0.586 0.078,-1.319 0.235,-2.197c0.628,-1.758 1.648,-3.956 3.06,-6.592c1.413,-2.637 2.276,-3.955 2.59,-3.955l52.728,-0c-0,-3.516 -0.275,-9.156 -0.824,-16.919c-0.55,-7.764 -1.02,-16.407 -1.413,-25.928c-0.392,-9.521 -0.51,-19.336 -0.353,-29.443c0.157,-10.108 0.903,-19.336 2.237,-27.686c1.333,-8.35 3.413,-15.234 6.237,-20.654c2.825,-5.42 6.827,-8.13 12.005,-8.13c0,32.812 1.256,59.18 3.767,79.101c2.511,19.922 5.806,35.23 9.886,45.923c4.08,10.694 8.749,17.725 14.006,21.094c5.257,3.369 10.593,4.761 16.007,4.175c5.414,-0.586 10.749,-2.197 16.006,-4.834c5.257,-2.637 9.926,-4.395 14.006,-5.274c4.08,-0.878 7.376,-0.146 9.887,2.198c2.511,2.343 3.766,8.203 3.766,17.578c-0,6.738 -0.863,11.572 -2.589,14.502c-1.727,2.929 -4.944,5.127 -9.651,6.592c-1.413,0.586 -3.727,1.245 -6.945,1.977c-3.217,0.733 -6.826,1.465 -10.828,2.197c-4.001,0.733 -8.238,1.465 -12.711,2.198c-4.472,0.732 -8.748,1.391 -12.829,1.977c-4.08,0.586 -7.768,1.026 -11.063,1.319c-3.296,0.293 -5.728,0.439 -7.297,0.439l-0.471,15.82c-0,14.356 1.216,28.272 3.649,41.748c2.432,13.477 5.1,26.88 8.003,40.21c2.903,13.33 5.571,26.734 8.003,40.21c2.433,13.477 3.649,27.246 3.649,41.309c-0,2.637 -0.118,5.347 -0.353,8.13c-0.236,2.783 -0.746,5.273 -1.53,7.47c-0.785,2.198 -1.923,3.809 -3.413,4.834c-1.491,1.026 -3.571,0.806 -6.238,-0.659c-6.591,-3.222 -11.495,-10.254 -14.712,-21.093c-3.217,-10.84 -5.611,-23.658 -7.18,-38.453c-1.569,-14.795 -2.628,-30.468 -3.178,-47.021c-0.549,-16.553 -1.373,-32.08 -2.471,-46.582c-1.099,-14.502 -2.903,-26.88 -5.414,-37.134c-2.511,-10.254 -6.434,-16.553 -11.77,-18.896l-50.609,-21.094c-0.628,-0 -1.648,-1.392 -3.06,-4.175c-1.413,-2.783 -2.276,-4.907 -2.59,-6.372c-0.157,-0.586 -0.235,-1.318 -0.235,-2.197c-0.157,-0.879 -0.235,-1.905 -0.235,-3.076Z" style="fill:#fff;fill-rule:nonzero;stroke:#000;stroke-width:10px;"/><path d="M1921.72,729.12c0,-17.578 1.138,-35.156 3.414,-52.734c2.275,-17.578 5.924,-33.399 10.945,-47.461c5.022,-14.063 11.495,-25.488 19.42,-34.277c7.925,-8.789 17.537,-13.184 28.836,-13.184c6.434,0 12.083,2.197 16.948,6.592c4.865,4.394 8.945,10.18 12.24,17.358c3.296,7.178 5.807,15.601 7.533,25.269c1.726,9.668 2.589,19.775 2.589,30.322c0,16.406 -2.079,32.446 -6.238,48.12c-4.158,15.674 -9.69,29.444 -16.595,41.309c-6.905,11.865 -14.79,20.801 -23.657,26.806c-8.866,6.006 -17.929,7.398 -27.187,4.175c0.156,9.375 1.843,16.919 5.06,22.632c3.217,5.713 7.101,10.034 11.652,12.964c4.551,2.93 9.298,4.834 14.242,5.713c4.943,0.879 9.298,1.318 13.064,1.318c3.923,0 7.65,-0.659 11.181,-1.977c3.531,-1.319 7.023,-2.784 10.475,-4.395c3.452,-1.611 6.983,-3.076 10.593,-4.394c3.609,-1.319 7.375,-1.978 11.298,-1.978c1.57,0 3.178,0.146 4.826,0.439c1.648,0.293 3.139,1.026 4.472,2.198c1.334,1.172 2.433,2.929 3.296,5.273c0.863,2.344 1.295,5.42 1.295,9.229c-0,6.152 -1.217,11.279 -3.649,15.381c-2.432,4.101 -5.492,7.543 -9.18,10.327c-3.688,2.783 -7.807,4.98 -12.358,6.591c-4.551,1.612 -8.984,2.784 -13.3,3.516c-4.316,0.733 -8.239,1.172 -11.77,1.318c-3.531,0.147 -6.159,0.22 -7.885,0.22c-11.299,0 -21.382,-3.296 -30.248,-9.888c-8.867,-6.591 -16.36,-15.82 -22.48,-27.685c-6.12,-11.865 -10.789,-26.221 -14.006,-43.066c-3.217,-16.846 -4.826,-35.523 -4.826,-56.031Zm27.777,-31.64c-0,11.425 0.824,19.702 2.471,24.829c1.648,5.127 5.689,7.69 12.123,7.69c4.551,0 9.023,-1.538 13.417,-4.614c4.394,-3.076 8.357,-7.398 11.888,-12.964c3.531,-5.566 6.355,-12.085 8.474,-19.556c2.118,-7.47 3.178,-15.6 3.178,-24.389c-0,-4.688 -0.236,-9.668 -0.707,-14.942c-0.47,-5.273 -1.373,-10.107 -2.707,-14.502c-1.333,-4.394 -3.099,-7.983 -5.296,-10.766c-2.197,-2.783 -5.022,-4.175 -8.474,-4.175c-5.336,-0 -10.122,2.197 -14.359,6.592c-4.237,4.394 -7.846,10.107 -10.828,17.138c-2.982,7.032 -5.257,14.869 -6.826,23.511c-1.57,8.643 -2.354,17.359 -2.354,26.148Z" style="fill:#fff;fill-rule:nonzero;stroke:#000;stroke-width:10px;"/><path d="M2067.67,659.687c-0,-2.93 0.078,-5.933 0.235,-9.009c0.157,-3.076 0.51,-5.859 1.059,-8.35c0.55,-2.49 1.413,-4.541 2.59,-6.152c1.177,-1.611 2.785,-2.417 4.825,-2.417c1.726,-0 3.688,2.563 5.885,7.69c2.197,5.127 4.433,11.499 6.709,19.117c2.275,7.617 4.472,15.966 6.591,25.048c2.118,9.082 4.041,17.505 5.767,25.269c1.726,7.764 3.099,14.355 4.119,19.775c1.02,5.42 1.609,8.277 1.766,8.57c2.197,-11.133 4.707,-23.438 7.532,-36.914c2.825,-13.477 6.277,-26.001 10.357,-37.574c4.081,-11.572 8.985,-21.24 14.712,-29.004c5.728,-7.763 12.672,-11.645 20.833,-11.645c4.08,-0 8.003,1.245 11.769,3.735c3.767,2.491 7.101,6.079 10.004,10.767c2.904,4.687 5.218,10.327 6.945,16.919c1.726,6.592 2.589,13.989 2.589,22.192c-0,7.324 -1.53,12.451 -4.59,15.381c-3.06,2.93 -6.474,4.395 -10.24,4.395l-2.589,-0l-11.299,-21.094c-0.314,-0 -0.628,-0.147 -0.942,-0.44c-0.313,0 -0.588,-0.073 -0.823,-0.219c-0.236,-0.147 -0.51,-0.22 -0.824,-0.22c-6.121,-0 -10.907,3.149 -14.359,9.448c-3.453,6.299 -6.042,14.063 -7.768,23.291c-1.726,9.229 -2.786,19.043 -3.178,29.444c-0.392,10.4 -0.588,19.702 -0.588,27.905c-0,6.738 0.353,13.403 1.059,19.995c0.706,6.592 1.491,13.11 2.354,19.556c0.863,6.445 1.647,12.964 2.354,19.555c0.706,6.592 1.059,13.404 1.059,20.435c-0,13.769 -3.923,20.654 -11.77,20.654c-4.394,0 -8.945,-4.321 -13.652,-12.964c-4.708,-8.642 -9.377,-19.629 -14.006,-32.959c-4.63,-13.33 -9.024,-28.051 -13.182,-44.165c-4.159,-16.113 -7.807,-31.787 -10.946,-47.021c-3.139,-15.235 -5.649,-29.077 -7.533,-41.529c-1.883,-12.451 -2.824,-21.606 -2.824,-27.465Z" style="fill:#fff;fill-rule:nonzero;stroke:#000;stroke-width:10px;"/><path d="M1135.49,318.774c0.385,-8.221 3.284,-13.646 8.699,-16.277c5.414,-2.63 12.1,-4.171 20.059,-4.623c7.958,-0.452 16.56,-0.53 25.807,-0.235c9.246,0.295 17.893,-0.743 25.941,-3.113c8.048,-2.37 14.863,-6.651 20.444,-12.844c5.581,-6.192 8.685,-16.002 9.313,-29.43c1.781,-38.089 1,-70.119 -2.343,-96.089c-3.342,-25.971 -11.185,-46.866 -23.527,-62.684c-12.342,-15.819 -30.045,-27.013 -53.108,-33.584c-23.064,-6.571 -53.427,-9.501 -91.088,-8.79c-1.161,-0.329 -2.726,-1.432 -4.696,-3.309c-1.97,-1.877 -4.007,-3.894 -6.111,-6.052c-2.104,-2.158 -4.061,-4.31 -5.872,-6.454c-1.81,-2.144 -2.99,-3.641 -3.538,-4.491c-0.268,-0.561 -0.382,-1.253 -0.344,-2.075c-0.255,-0.836 -0.356,-1.802 -0.305,-2.898c0.038,-0.822 0.223,-1.637 0.555,-2.446c0.026,-0.548 0.204,-1.226 0.536,-2.034c0.919,-0.781 2.36,-1.744 4.324,-2.888c1.964,-1.144 4.142,-2.14 6.534,-2.99c2.391,-0.849 4.56,-1.64 6.505,-2.373c1.945,-0.733 3.357,-1.079 4.237,-1.038c6.173,0.014 15.509,-0.03 28.007,-0.132c12.499,-0.103 26.757,-0.123 42.776,-0.06c16.018,0.062 33.29,0.046 51.815,-0.05c18.524,-0.095 36.969,-0.056 55.335,0.116c18.365,0.172 35.99,0.446 52.876,0.824c16.886,0.377 31.928,0.875 45.128,1.492c-0.448,9.591 -2.694,16.763 -6.738,21.517c-4.044,4.754 -8.987,8.299 -14.828,10.635c-5.842,2.336 -12.165,3.963 -18.969,4.88c-6.805,0.918 -13.115,2.271 -18.931,4.059c-5.816,1.787 -10.726,4.647 -14.732,8.579c-4.005,3.932 -6.194,9.872 -6.565,17.819c-0.731,15.619 0.242,30.974 2.917,46.066c2.675,15.092 5.794,30.136 9.355,45.133c3.562,14.996 6.68,30.04 9.355,45.132c2.675,15.092 3.654,30.31 2.937,45.655c-0.628,13.428 -4.434,25.676 -11.419,36.747c-6.985,11.07 -15.95,20.469 -26.894,28.196c-10.944,7.727 -23.125,13.611 -36.543,17.652c-13.417,4.041 -26.726,5.753 -39.926,5.136c-4.987,-0.233 -10.318,-0.963 -15.993,-2.189c-5.675,-1.227 -10.875,-3.186 -15.599,-5.879c-4.725,-2.692 -8.538,-6.028 -11.438,-10.009c-2.901,-3.98 -4.217,-8.847 -3.948,-14.602Z" style="fill:#fdde14;fill-rule:nonzero;stroke:#0a0015;stroke-width:10px;stroke-miterlimit:2;"/><path d="M1303.39,337.26c0,-20.279 4.572,-39.089 13.714,-56.43c9.143,-17.34 21.099,-32.329 35.867,-44.967c14.769,-12.638 31.437,-22.558 50.003,-29.758c18.567,-7.201 37.414,-10.801 56.544,-10.801c10.689,-0 20.184,3.6 28.482,10.801c8.299,7.2 15.261,15.944 20.887,26.231c5.627,10.286 9.917,21.161 12.87,32.623c2.954,11.463 4.431,21.455 4.431,29.979c0,18.222 -4.22,35.93 -12.659,53.123c-8.439,17.194 -19.41,32.403 -32.913,45.629c-13.503,13.226 -28.694,23.88 -45.572,31.963c-16.879,8.082 -33.758,12.123 -50.636,12.123c-14.91,0 -27.498,-2.645 -37.766,-7.935c-10.268,-5.291 -18.567,-12.491 -24.896,-21.602c-6.33,-9.111 -10.971,-19.766 -13.925,-31.963c-2.954,-12.197 -4.431,-25.202 -4.431,-39.016Zm40.087,5.291c0,8.229 0.703,15.577 2.11,22.043c1.406,6.465 3.868,11.976 7.384,16.532c3.517,4.555 8.229,8.009 14.136,10.36c5.908,2.351 13.362,3.527 22.364,3.527c11.534,-0 23.068,-3.307 34.601,-9.919c11.534,-6.613 21.872,-15.063 31.015,-25.35c9.142,-10.287 16.597,-21.602 22.364,-33.946c5.767,-12.344 8.65,-24.394 8.65,-36.151c0,-5.29 -0.492,-11.021 -1.477,-17.193c-0.984,-6.172 -2.602,-11.903 -4.852,-17.194c-2.251,-5.29 -5.415,-9.772 -9.494,-13.446c-4.079,-3.674 -9.213,-5.511 -15.402,-5.511c-5.626,0 -12.237,1.984 -19.832,5.952c-7.596,3.968 -15.543,9.038 -23.841,15.21c-8.299,6.172 -16.457,13.225 -24.474,21.161c-8.018,7.935 -15.262,15.797 -21.732,23.586c-6.47,7.788 -11.674,15.283 -15.612,22.484c-3.939,7.2 -5.908,13.152 -5.908,17.855Z" style="fill:#002aff;fill-rule:nonzero;stroke:#000;stroke-width:8px;stroke-miterlimit:2;"/><path d="M1519.58,81.578c0.619,-2.512 1.409,-5.049 2.369,-7.61c0.96,-2.562 2.262,-4.839 3.905,-6.832c1.643,-1.994 3.799,-3.395 6.468,-4.203c2.668,-0.808 6.175,-0.677 10.521,0.393c0.31,0.077 0.76,0.254 1.35,0.533c0.59,0.278 1.195,0.494 1.816,0.647c0.87,0.481 1.615,0.797 2.235,0.95c5.097,8.716 8.658,19.319 10.685,31.809c2.027,12.49 3.635,25.676 4.825,39.559c1.19,13.882 2.83,27.942 4.92,42.18c2.09,14.237 5.98,27.519 11.669,39.845c5.689,12.326 13.828,23.057 24.418,32.194c10.59,9.137 24.979,15.546 43.168,19.226c7.761,1.912 13.749,-0.344 17.964,-6.766c4.216,-6.422 7.748,-15.078 10.595,-25.968c2.847,-10.89 5.413,-22.981 7.7,-36.274c2.286,-13.292 5.349,-25.728 9.189,-37.306c3.839,-11.577 9.046,-21.353 15.619,-29.326c6.573,-7.974 15.508,-12.168 26.804,-12.583c2.862,8.432 3.787,20.717 2.775,36.855c-1.012,16.138 -3.325,34.553 -6.941,55.246c-3.615,20.693 -8.315,42.784 -14.101,66.272c-5.786,23.489 -12.254,46.743 -19.406,69.762c-7.151,23.019 -14.692,44.944 -22.621,65.773c-7.929,20.829 -15.674,38.906 -23.235,54.23c-7.561,15.324 -14.736,27.079 -21.527,35.266c-6.79,8.186 -12.669,11.001 -17.636,8.446c-6.089,-7.362 -9.975,-15.98 -11.658,-25.854c-1.684,-9.874 -1.956,-20.466 -0.816,-31.776c1.14,-11.31 3.365,-23.019 6.677,-35.127c3.311,-12.108 6.949,-24.201 10.912,-36.282c3.963,-12.08 7.927,-23.827 11.891,-35.241c3.963,-11.414 7.152,-22.02 9.565,-31.817c-12.353,-1.977 -24.553,-6.581 -36.6,-13.812c-12.047,-7.231 -23.274,-16.457 -33.679,-27.68c-10.405,-11.223 -19.741,-24.114 -28.007,-38.674c-8.267,-14.56 -14.78,-30.22 -19.541,-46.98c-4.762,-16.761 -7.506,-34.357 -8.234,-52.789c-0.728,-18.432 1.26,-37.194 5.962,-56.286Z" style="fill:#ff240d;fill-rule:nonzero;stroke:#000;stroke-width:20px;stroke-miterlimit:2;"/><path d="M438.869,519.995c-0,-6.557 1.105,-12.567 3.316,-18.03c2.211,-5.464 6.79,-8.196 13.739,-8.196c5.369,0 10.817,6.739 16.344,20.216c5.527,13.476 11.212,30.596 17.055,51.357c5.843,20.762 11.844,43.617 18.003,68.568c6.158,24.95 12.791,49.081 19.897,72.392c7.106,23.311 14.529,44.164 22.266,62.558c7.738,18.394 16.029,31.233 24.872,38.518c8.212,-4.007 14.845,-11.201 19.898,-21.581c5.053,-10.381 9.159,-22.765 12.318,-37.153c3.158,-14.387 5.606,-29.958 7.343,-46.713c1.737,-16.755 3.395,-33.601 4.974,-50.538c1.579,-16.937 3.237,-33.328 4.974,-49.172c1.738,-15.844 4.264,-29.867 7.58,-42.069c3.317,-12.202 7.58,-21.946 12.792,-29.23c5.211,-7.285 11.922,-10.927 20.134,-10.927c4.738,-0 9.08,0.546 13.028,1.639c3.948,1.092 7.186,5.281 9.712,12.566l18.003,58.187c4.106,13.294 8.685,27.5 13.739,42.615c5.053,15.116 10.264,29.959 15.633,44.528c5.37,14.57 10.739,28.502 16.108,41.797c5.369,13.294 10.422,24.495 15.16,33.6c0.632,1.822 2.448,4.371 5.448,7.649c3,3.279 5.132,5.282 6.396,6.01l22.266,-26.225c6.001,-6.92 10.58,-17.21 13.739,-30.869c3.158,-13.659 5.527,-29.321 7.106,-46.986c1.579,-17.666 2.606,-36.788 3.079,-57.368c0.474,-20.579 0.948,-40.976 1.422,-61.192c0.473,-20.215 1.184,-39.792 2.132,-58.733c0.947,-18.94 2.684,-35.604 5.211,-49.991c2.527,-14.388 6.08,-25.861 10.659,-34.421c4.58,-8.559 10.818,-12.839 18.713,-12.839c0.316,-0 0.79,0.091 1.422,0.273c0.631,0.182 1.263,0.273 1.895,0.273c0.947,0.364 1.737,0.547 2.368,0.547l6.159,6.283c1.264,1.274 2.369,2.549 3.316,3.824c0.948,1.275 1.58,2.277 1.895,3.005c0,2.914 0.079,8.013 0.237,15.298c0.158,7.285 0.237,15.116 0.237,23.493c0,8.378 0.079,16.3 0.237,23.767c0.158,7.467 0.237,12.657 0.237,15.571c-0,8.013 -0.079,19.122 -0.237,33.328c-0.158,14.205 -0.632,30.322 -1.421,48.352c-0.79,18.03 -2.053,37.243 -3.79,57.641c-1.737,20.397 -4.185,40.612 -7.343,60.645c-3.159,20.033 -7.107,39.247 -11.844,57.641c-4.738,18.394 -10.502,34.602 -17.292,48.625c-6.79,14.023 -14.686,25.224 -23.688,33.601c-9.001,8.378 -19.502,12.566 -31.504,12.566c-12.002,0 -22.108,-4.553 -30.32,-13.658c-8.212,-9.106 -15.318,-20.489 -21.319,-34.148c-6.001,-13.659 -11.133,-28.501 -15.397,-44.528c-4.264,-16.026 -8.606,-30.869 -13.028,-44.528c-4.422,-13.659 -9.159,-25.041 -14.213,-34.147c-5.053,-9.106 -11.212,-13.659 -18.476,-13.659c-0.631,0 -1.579,0.182 -2.842,0.547c-1.264,0.364 -2.211,0.546 -2.843,0.546c-0.316,1.821 -1.421,8.924 -3.316,21.308c-1.895,12.384 -4.422,27.227 -7.58,44.528c-3.158,17.301 -7.027,35.877 -11.607,55.728c-4.58,19.851 -9.712,38.063 -15.397,54.636c-5.685,16.572 -12.002,30.413 -18.95,41.523c-6.948,11.109 -14.37,16.664 -22.266,16.664c-16.424,-0 -31.505,-7.194 -45.244,-21.582c-13.738,-14.387 -25.977,-32.963 -36.715,-55.728c-10.739,-22.765 -20.135,-48.17 -28.188,-76.216c-8.054,-28.047 -14.766,-55.547 -20.135,-82.5c-5.369,-26.954 -9.396,-51.995 -12.081,-75.124c-2.684,-23.129 -4.026,-41.25 -4.026,-54.362Z" style="fill:#fcfcfc;fill-rule:nonzero;stroke:#000;stroke-width:10px;stroke-miterlimit:2;"/></svg>