<svg xmlns="http://www.w3.org/2000/svg"
	 viewBox="0 0 200 200"
	 preserveAspectRatio="none">

	<g transform="translate(100.000000, 82.000000)">

		<g id="Group" transform="translate(34.000000, 74.000000)">
			<path fill="white" d="M10.57,0.87 C9.59,0.89 8.84,1.35 8.87,1.9 C9.17,7.28 10.41,33.12 6.88,38.33
			C5.39,40.53 3.19,42.15 1.33,43.23 C0.25,43.86 1.07,44.91 2.63,44.91 L33.37,44.91
			C35,44.91 35.77,43.8 34.58,43.18 C32.61,42.16 30.39,40.56 28.58,38.08
			C25.26,33.54 25.38,7.16 25.44,1.55 C25.45,0.98 24.6,0.52 23.58,0.55 L10.57,0.87 Z" id="Path"></path>
		</g>
		<g id="Group">
			<path fill="white" d="M44.96,95 C35.47,95 27.18,88.92 24.33,79.87 C24.13,79.24 23.55,78.82 22.9,78.82
			C22.86,78.82 22.82,78.82 22.78,78.82 C22.18,78.87 21.65,78.89 21.17,78.89
			C9.78,78.89 0.51,69.3 0.51,57.51 C0.51,50.19 4.08,43.45 10.06,39.49
			C10.63,39.11 10.87,38.39 10.65,37.75 C9.89,35.57 9.51,33.29 9.51,30.98
			C9.51,19.59 18.78,10.32 30.17,10.32 C31.82,10.32 33.48,10.52 35.1,10.92
			C35.22,10.95 35.34,10.96 35.46,10.96 C35.97,10.96 36.46,10.7 36.73,10.25
			C40.53,4.13 47.1,0.48 54.29,0.48 C63.41,0.48 71.57,6.59 74.12,15.35 C74.31,16 74.9,16.43 75.56,16.43
			C75.65,16.43 75.75,16.42 75.84,16.4 C77.13,16.16 78.43,16.03 79.71,16.03
			C91.1,16.03 100.37,25.3 100.37,36.69 C100.37,42.89 97.62,48.71 92.83,52.65
			C92.5,52.92 92.3,53.33 92.28,53.76 C92.27,54.19 92.44,54.61 92.76,54.9
			C96.97,58.8 99.38,64.32 99.38,70.05 C99.38,81.44 90.11,90.71 78.72,90.71
			C73.63,90.71 68.73,88.84 64.94,85.44 C64.66,85.19 64.31,85.06 63.94,85.06
			C63.88,85.06 63.82,85.06 63.77,85.07 C63.34,85.12 62.96,85.35 62.71,85.7
			C58.65,91.54 52.02,95 44.96,95 Z" id="Path"></path>
		</g>
	</g>
</svg>



