
<svg xmlns="http://www.w3.org/2000/svg"
	 viewBox="0 0 200 200"
	 preserveAspectRatio="none">

	<g fill="#ffffff" transform="translate(150.000000, 161.000000)">
		<g transform="translate(6.000000, 23.000000)">
			<path d="M1.90847222,0.270666667
			C1.73152778,0.276888889 1.59611111,0.42 1.60152778,0.591111111
			C1.65569444,2.26488889 1.87958333,10.304 1.24222222,11.9248889
			C0.973194444,12.6093333 0.575972222,13.1133333 0.240138889,13.4493333
			C0.0451388889,13.6453333 0.193194444,13.972 0.474861111,13.972
			L6.02513889,13.972
			C6.31944444,13.972 6.45847222,13.6266667 6.24361111,13.4337778
			C5.88791667,13.1164444 5.48708333,12.6186667 5.16027778,11.8471111
			C4.56083333,10.4346667 4.5825,2.22755556 4.59333333,0.482222222
			C4.59513889,0.304888889 4.44166667,0.161777778 4.2575,0.171111111
			L1.90847222,0.270666667 Z"></path>
		</g>
		<g>
			<path d="M8.01267327,30
			C6.32138614,30 4.8439604,28.08 4.3360396,25.2221053
			C4.30039604,25.0231579 4.1970297,24.8905263 4.08118812,24.8905263
			C4.07405941,24.8905263 4.06693069,24.8905263 4.05980198,24.8905263
			C3.95287129,24.9063158 3.85841584,24.9126316 3.77287129,24.9126316
			C1.7429703,24.9126316 0.0908910891,21.8842105 0.0908910891,18.1610526
			C0.0908910891,15.8494737 0.727128713,13.7210526 1.79287129,12.4705263
			C1.89445545,12.3505263 1.93722772,12.1231579 1.8980198,11.9210526
			C1.76257426,11.2326316 1.69485149,10.5126316 1.69485149,9.78315789
			C1.69485149,6.18631579 3.34693069,3.25894737 5.37683168,3.25894737
			C5.67089109,3.25894737 5.96673267,3.32210526 6.25544554,3.44842105
			C6.27683168,3.45789474 6.29821782,3.46105263 6.31960396,3.46105263
			C6.41049505,3.46105263 6.49782178,3.37894737 6.54594059,3.23684211
			C7.22316832,1.30421053 8.39405941,0.151578947 9.67544554,0.151578947
			C11.3007921,0.151578947 12.7550495,2.08105263 13.209505,4.84736842
			C13.2433663,5.05263158 13.3485149,5.18842105 13.4661386,5.18842105
			C13.4821782,5.18842105 13.5,5.18526316 13.5160396,5.17894737
			C13.7459406,5.10315789 13.9776238,5.06210526 14.2057426,5.06210526
			C16.2356436,5.06210526 17.8877228,7.98947368 17.8877228,11.5863158
			C17.8877228,13.5442105 17.3976238,15.3821053 16.5439604,16.6263158
			C16.4851485,16.7115789 16.449505,16.8410526 16.4459406,16.9768421
			C16.4441584,17.1126316 16.4744554,17.2452632 16.5314851,17.3368421
			C17.2817822,18.5684211 17.7112871,20.3115789 17.7112871,22.1210526
			C17.7112871,25.7178947 16.0592079,28.6452632 14.0293069,28.6452632
			C13.1221782,28.6452632 12.2489109,28.0547368 11.5734653,26.9810526
			C11.5235644,26.9021053 11.4611881,26.8610526 11.3952475,26.8610526
			C11.3845545,26.8610526 11.3738614,26.8610526 11.3649505,26.8642105
			C11.2883168,26.88 11.2205941,26.9526316 11.1760396,27.0631579
			C10.4524752,28.9073684 9.27089109,30 8.01267327,30 Z"></path>
		</g>
	</g>

	<path fill="white"
		  stroke="none"
		  d="M0,200 L200,200 L200,190 C120,210 50,190 0,200z"/>

</svg>
