<?xml version="1.0" encoding="UTF-8" standalone="no"?><!DOCTYPE svg PUBLIC "-//W3C//DTD SVG 1.1//EN" "http://www.w3.org/Graphics/SVG/1.1/DTD/svg11.dtd"><svg width="100%" height="100%" viewBox="0 0 69 84" version="1.1" xmlns="http://www.w3.org/2000/svg" xmlns:xlink="http://www.w3.org/1999/xlink" xml:space="preserve" xmlns:serif="http://www.serif.com/" style="fill-rule:evenodd;clip-rule:evenodd;stroke-linecap:round;stroke-linejoin:round;stroke-miterlimit:1.5;"><ellipse cx="40.41" cy="37.046" rx="28.511" ry="28.457" style="fill:#941216;"/><path d="M8.331,55.263c44.846,-49.456 14.459,-15.791 44.846,-49.456" style="fill:none;stroke:#fff;stroke-width:3px;"/><path d="M59.723,55.263c-55.064,-52.847 -17.581,-17.039 -55.064,-52.847" style="fill:none;stroke:#231f20;stroke-width:3px;"/><path d="M4.3,2.416c-5.301,4.255 -3.402,15.172 8.51,23.203c6.921,-8.398 6.85,-8.464 7.083,-8.39" style="fill:none;stroke:#231f20;stroke-width:3px;"/><path d="M47.831,1.5c-1.927,2.327 -8.276,10.235 -6.849,12.518c0.364,0.582 4.385,4.764 6.605,4.132c3.153,-0.896 8.237,-5.771 10.295,-7.794" style="fill:none;stroke:#fff;stroke-width:3px;"/><path d="M18.306,82.853c-0.228,0 -0.436,-0.06 -0.627,-0.18c-0.19,-0.12 -0.285,-0.3 -0.285,-0.54l-0,-16.104c-0,-0.24 0.095,-0.42 0.285,-0.54c0.191,-0.12 0.399,-0.18 0.627,-0.18l8.544,0c0.246,0 0.423,0.096 0.532,0.286c0.109,0.19 0.164,0.391 0.164,0.602c-0,0.247 -0.06,0.465 -0.18,0.653c-0.12,0.189 -0.292,0.283 -0.516,0.283l-7.44,0l-0,6.101l3.744,0c0.224,0 0.396,0.086 0.516,0.257c0.12,0.171 0.18,0.372 0.18,0.602c-0,0.186 -0.055,0.367 -0.164,0.545c-0.109,0.178 -0.286,0.267 -0.532,0.267l-3.744,-0l-0,6.124l7.44,0c0.224,0 0.396,0.092 0.516,0.276c0.12,0.184 0.18,0.404 0.18,0.66c-0,0.212 -0.055,0.412 -0.164,0.603c-0.109,0.19 -0.286,0.285 -0.532,0.285l-8.544,0Z" style="fill:#231f20;fill-rule:nonzero;"/><path d="M32.701,83.036c-0.765,-0 -1.443,-0.097 -2.033,-0.291c-0.59,-0.193 -1.054,-0.429 -1.39,-0.708c-0.336,-0.278 -0.504,-0.552 -0.504,-0.82c0,-0.125 0.031,-0.256 0.091,-0.392c0.061,-0.136 0.145,-0.254 0.252,-0.355c0.108,-0.101 0.224,-0.151 0.348,-0.151c0.189,-0 0.395,0.092 0.617,0.276c0.223,0.184 0.529,0.369 0.919,0.554c0.391,0.186 0.94,0.279 1.647,0.279c0.861,-0 1.456,-0.155 1.785,-0.463c0.33,-0.309 0.495,-0.659 0.495,-1.049c-0,-0.483 -0.141,-0.858 -0.423,-1.126c-0.281,-0.267 -0.646,-0.477 -1.094,-0.629c-0.448,-0.152 -0.921,-0.298 -1.421,-0.439c-0.499,-0.14 -0.973,-0.319 -1.421,-0.535c-0.448,-0.216 -0.812,-0.52 -1.094,-0.912c-0.282,-0.392 -0.422,-0.919 -0.422,-1.582c-0,-0.524 0.13,-1.044 0.391,-1.56c0.261,-0.515 0.678,-0.942 1.253,-1.281c0.574,-0.339 1.338,-0.509 2.292,-0.509c0.569,0 1.112,0.06 1.627,0.18c0.515,0.12 0.937,0.279 1.267,0.475c0.33,0.197 0.494,0.411 0.494,0.641c0,0.093 -0.032,0.219 -0.098,0.379c-0.066,0.16 -0.155,0.302 -0.269,0.425c-0.113,0.123 -0.252,0.185 -0.415,0.185c-0.141,0 -0.325,-0.058 -0.552,-0.173c-0.227,-0.115 -0.505,-0.228 -0.835,-0.338c-0.33,-0.111 -0.725,-0.166 -1.186,-0.166c-0.531,0 -0.957,0.091 -1.277,0.271c-0.32,0.181 -0.552,0.397 -0.696,0.648c-0.144,0.252 -0.216,0.499 -0.216,0.742c0,0.406 0.141,0.72 0.423,0.941c0.282,0.22 0.648,0.399 1.099,0.537c0.451,0.138 0.927,0.277 1.426,0.418c0.499,0.141 0.974,0.334 1.425,0.578c0.452,0.245 0.818,0.583 1.1,1.013c0.281,0.43 0.422,1.007 0.422,1.73c0,0.976 -0.35,1.755 -1.051,2.336c-0.701,0.58 -1.693,0.871 -2.976,0.871Z" style="fill:#231f20;fill-rule:nonzero;"/><path d="M42.19,83.036c-0.765,-0 -1.442,-0.097 -2.032,-0.291c-0.591,-0.193 -1.054,-0.429 -1.39,-0.708c-0.336,-0.278 -0.504,-0.552 -0.504,-0.82c-0,-0.125 0.03,-0.256 0.091,-0.392c0.061,-0.136 0.145,-0.254 0.252,-0.355c0.107,-0.101 0.223,-0.151 0.348,-0.151c0.189,-0 0.394,0.092 0.617,0.276c0.222,0.184 0.529,0.369 0.919,0.554c0.391,0.186 0.939,0.279 1.646,0.279c0.861,-0 1.457,-0.155 1.786,-0.463c0.33,-0.309 0.494,-0.659 0.494,-1.049c0,-0.483 -0.14,-0.858 -0.422,-1.126c-0.281,-0.267 -0.646,-0.477 -1.094,-0.629c-0.448,-0.152 -0.922,-0.298 -1.421,-0.439c-0.499,-0.14 -0.973,-0.319 -1.421,-0.535c-0.448,-0.216 -0.813,-0.52 -1.094,-0.912c-0.282,-0.392 -0.423,-0.919 -0.423,-1.582c0,-0.524 0.131,-1.044 0.392,-1.56c0.26,-0.515 0.678,-0.942 1.252,-1.281c0.575,-0.339 1.339,-0.509 2.292,-0.509c0.57,0 1.112,0.06 1.628,0.18c0.515,0.12 0.937,0.279 1.267,0.475c0.329,0.197 0.494,0.411 0.494,0.641c0,0.093 -0.033,0.219 -0.098,0.379c-0.066,0.16 -0.156,0.302 -0.269,0.425c-0.114,0.123 -0.252,0.185 -0.415,0.185c-0.141,0 -0.325,-0.058 -0.552,-0.173c-0.227,-0.115 -0.506,-0.228 -0.835,-0.338c-0.33,-0.111 -0.725,-0.166 -1.186,-0.166c-0.531,0 -0.957,0.091 -1.277,0.271c-0.32,0.181 -0.552,0.397 -0.696,0.648c-0.144,0.252 -0.216,0.499 -0.216,0.742c0,0.406 0.141,0.72 0.423,0.941c0.281,0.22 0.648,0.399 1.099,0.537c0.451,0.138 0.926,0.277 1.425,0.418c0.5,0.141 0.975,0.334 1.426,0.578c0.451,0.245 0.818,0.583 1.099,1.013c0.282,0.43 0.423,1.007 0.423,1.73c-0,0.976 -0.351,1.755 -1.052,2.336c-0.7,0.58 -1.693,0.871 -2.976,0.871Z" style="fill:#231f20;fill-rule:nonzero;"/><path d="M53.336,83.036c-1.04,-0 -1.961,-0.196 -2.763,-0.586c-0.801,-0.39 -1.431,-0.933 -1.888,-1.629c-0.458,-0.696 -0.686,-1.51 -0.686,-2.441l-0,-2.501c-0,-0.819 0.216,-1.574 0.65,-2.263c0.433,-0.69 1.011,-1.241 1.732,-1.654c0.722,-0.412 1.518,-0.619 2.389,-0.619c0.822,0 1.583,0.19 2.282,0.569c0.699,0.379 1.262,0.899 1.69,1.56c0.427,0.661 0.641,1.423 0.641,2.287c-0,0.634 -0.104,1.09 -0.312,1.368c-0.208,0.278 -0.473,0.449 -0.795,0.511c-0.322,0.062 -0.662,0.094 -1.02,0.094l-5.265,-0l-0,0.734c-0,0.89 0.32,1.596 0.96,2.119c0.64,0.524 1.457,0.785 2.452,0.785c0.602,0 1.079,-0.081 1.431,-0.242c0.352,-0.162 0.637,-0.319 0.856,-0.473c0.219,-0.154 0.424,-0.23 0.613,-0.23c0.163,-0 0.305,0.052 0.426,0.158c0.122,0.106 0.216,0.229 0.281,0.37c0.066,0.14 0.099,0.268 0.099,0.384c-0,0.208 -0.153,0.446 -0.459,0.715c-0.305,0.269 -0.74,0.5 -1.303,0.693c-0.563,0.194 -1.233,0.291 -2.011,0.291Zm-3.345,-6.643l4.43,-0c0.425,-0 0.709,-0.05 0.852,-0.149c0.142,-0.099 0.214,-0.304 0.214,-0.615c-0,-0.473 -0.118,-0.916 -0.353,-1.329c-0.236,-0.413 -0.56,-0.746 -0.972,-0.999c-0.413,-0.252 -0.887,-0.379 -1.421,-0.379c-0.499,0 -0.958,0.117 -1.375,0.351c-0.418,0.233 -0.751,0.547 -1.001,0.94c-0.25,0.394 -0.374,0.837 -0.374,1.33l-0,0.85Z" style="fill:#231f20;fill-rule:nonzero;"/><path d="M60.57,82.853c-0.285,0 -0.52,-0.074 -0.706,-0.223c-0.186,-0.148 -0.278,-0.314 -0.278,-0.497l-0,-9.95c-0,-0.211 0.092,-0.38 0.278,-0.506c0.186,-0.127 0.421,-0.19 0.706,-0.19c0.256,0 0.472,0.063 0.648,0.19c0.176,0.126 0.264,0.295 0.264,0.506l-0,0.984c0.253,-0.464 0.652,-0.884 1.197,-1.26c0.546,-0.376 1.219,-0.564 2.019,-0.564c0.765,0 1.467,0.209 2.107,0.626c0.64,0.418 1.153,0.973 1.538,1.666c0.386,0.693 0.579,1.465 0.579,2.316l-0,6.182c-0,0.24 -0.105,0.42 -0.315,0.54c-0.21,0.12 -0.441,0.18 -0.693,0.18c-0.231,0 -0.452,-0.06 -0.665,-0.18c-0.213,-0.12 -0.319,-0.3 -0.319,-0.54l-0,-6.182c-0,-0.477 -0.124,-0.928 -0.372,-1.354c-0.248,-0.425 -0.579,-0.774 -0.992,-1.046c-0.412,-0.272 -0.87,-0.408 -1.372,-0.408c-0.429,0 -0.844,0.113 -1.246,0.339c-0.402,0.225 -0.73,0.544 -0.986,0.957c-0.256,0.413 -0.384,0.917 -0.384,1.512l-0,6.182c-0,0.183 -0.098,0.349 -0.293,0.497c-0.195,0.149 -0.434,0.223 -0.715,0.223Z" style="fill:#231f20;fill-rule:nonzero;"/></svg>