<?xml version="1.0" encoding="UTF-8"?>
<svg width="72px" height="85px" viewBox="0 0 72 85" version="1.1" xmlns="http://www.w3.org/2000/svg" xmlns:xlink="http://www.w3.org/1999/xlink">
    <!-- Generator: Sketch 55.2 (78181) - https://sketchapp.com -->
    <title>Untitled</title>
    <desc>Created with Sketch.</desc>
    <defs>
        <path d="M33.1792079,82.1 C33.9712871,82.8920792 34.9613861,83.2881188 35.9514851,83.2881188 C36.9415842,83.2881188 37.9316832,82.8920792 38.7237624,82.1 L60.7039604,60.119802 C74.3673267,46.4564356 74.3673267,24.1792079 60.7039604,10.5158416 C47.0405941,-3.14752475 24.8623762,-3.14752475 11.1990099,10.5158416 C-2.46435644,24.1792079 -2.46435644,46.4564356 11.1990099,60.119802 L33.1792079,82.1 Z" id="path-1"></path>
    </defs>
    <g id="Page-1" stroke="none" stroke-width="1" fill="none" fill-rule="evenodd">
        <g id="2831421_drop-pin_google-maps_location_map_map-icon_icon">
            <path d="M33.1792079,82.1 C33.9712871,82.8920792 34.9613861,83.2881188 35.9514851,83.2881188 C36.9415842,83.2881188 37.9316832,82.8920792 38.7237624,82.1 L60.7039604,60.119802 C74.3673267,46.4564356 74.3673267,24.1792079 60.7039604,10.5158416 C47.0405941,-3.14752475 24.8623762,-3.14752475 11.1990099,10.5158416 C-2.46435644,24.1792079 -2.46435644,46.4564356 11.1990099,60.119802 L33.1792079,82.1 Z" id="Path" fill="#FF1515" fill-rule="nonzero"></path>
            <g id="Clipped">
                <mask id="mask-2" fill="white">
                    <use xlink:href="#path-1"></use>
                </mask>
                <g id="Path"></g>
                <rect id="Rectangle" fill="#E11313" mask="url(#mask-2)" x="35.9514851" y="-2.75544554" width="36.6336634" height="90.9237624"></rect>
            </g>
            <path d="M33.8,75.7693069 L33.8,79.6554455 L12.629703,58.4851485 C22.039604,67.1821782 30.909901,74.4831683 33.8,75.7693069 L33.8,75.7693069 Z" id="Path" fill-opacity="0.5" fill="#FFFFFF"></path>
            <path d="M15.1623762,10.5316832 L14.1574257,13.4861386 C9.86138614,18.0673267 7.98613861,21.1 4.56732673,26.539604 C6.20594059,21.350495 9.07722772,16.4722772 13.1792079,12.3693069 C13.8217822,11.7267327 14.4841584,11.1138614 15.1623762,10.5316832 Z" id="Path" fill-opacity="0.5" fill="#FFFFFF"></path>
        </g>
        <g id="Group-23" transform="translate(10.000000, 16.000000)">
            <path d="M16.978,16.021 C17.4243,15.5896 18.8203,16.3088 20.0936,17.626 C21.3669,18.9432 22.0383,20.3628 21.5921,20.7941 C21.1459,21.2255 19.7498,20.5063 18.4765,19.1891 C17.2033,17.872 16.5318,16.4524 16.978,16.021 Z" id="Fill-1" fill="#FFFFFF"></path>
            <path d="M16.9043,16.9437 C16.5723,16.4193 17.5595,15.198 19.1074,14.2181 C20.6553,13.2382 22.1815,12.8684 22.5135,13.3927 C22.8455,13.9171 21.8583,15.1385 20.3104,16.1184 C18.7625,17.0983 17.2362,17.4681 16.9043,16.9437 Z" id="Fill-2" fill="#FFFFFF"></path>
            <path d="M32.094501,13.0965 C32.0959,13.7171 30.6097,14.2244 28.7777,14.2286 C26.9457,14.2328 25.4572,13.7323 25.455799,13.1117 C25.4544,12.491 26.9406,11.9837 28.7726,11.9795 C30.6046,11.9753 32.0931,12.4758 32.094501,13.0965 Z" id="Fill-3" fill="#FFFFFF"></path>
            <path d="M23.6935,2.9721 C26.8276,2.9721 29.3721,5.2533 29.3721,8.0632 C29.3721,10.8731 26.8276,13.1544 23.6935,13.1544 C20.5594,13.1544 18.0149,10.8731 18.0149,8.0632 C18.0149,5.2533 20.5594,2.9721 23.6935,2.9721 Z" id="Fill-4" fill="#FFFFFF"></path>
            <path d="M23.9584,10.4344 C26.514,10.2064 28.925,13.7899 29.339,18.4317 C29.753,23.0735 28.0143,27.0272 25.4587,27.2551 C22.903,27.4831 20.492,23.8996 20.078,19.2578 C19.664,14.616 21.4027,10.6623 23.9584,10.4344 Z" id="Fill-5" fill="#FFFFFF"></path>
            <path d="M25.26,22.924 C39.2014,22.924 50.52,18.8056 50.52,22.924 C50.52,27.0424 39.2014,30.386 25.26,30.386 C11.3186,30.386 0,27.0424 0,22.924 C0,18.8056 11.3186,22.924 25.26,22.924 Z" id="Fill-6" fill="#000000"></path>
            <path d="M38.0945,3.4841 C38.0592,3.5113 38.0249,3.5402 37.9916,3.5708 L34.1154,7.1296 C33.3013,7.877 33.4158,9.3285 34.371,10.3688 L34.7236,10.7529 C35.6788,11.7933 37.1152,12.0311 37.9293,11.2837 L41.2305,8.2528 L41.2387,8.2617 L43.0244,6.5996 C43.4651,6.1894 43.3985,5.398 42.8758,4.8335 L40.9386,2.7412 C40.4159,2.1766 39.6338,2.0513 39.1931,2.4615 L38.0945,3.4841 Z" id="Fill-7" fill="#696969"></path>
            <path d="M14.6075,32.1732 C14.6425,32.1457 14.6766,32.1165 14.7097,32.0857 L18.5583,28.497 C19.3666,27.7433 19.2409,26.2928 18.2777,25.2598 L17.9221,24.8785 C16.9589,23.8455 15.5207,23.6188 14.7124,24.3725 L11.4347,27.4288 L11.4264,27.42 L9.6537,29.0959 C9.2162,29.5095 9.2889,30.3003 9.8159,30.8608 L11.7692,32.9381 C12.2963,33.4985 13.0793,33.6178 13.5168,33.2042 L14.6075,32.1732 Z" id="Fill-8" fill="#696969"></path>
            <path d="M40.4908,6.4412 C40.6239,6.327 40.6393,6.1262 40.525,5.993 L40.1111,5.5106 C39.9969,5.3774 39.7961,5.3621 39.663,5.4763 L13.3297,28.0681 C13.1966,28.1823 13.1812,28.3831 13.2954,28.5163 L13.7093,28.9987 C13.8235,29.1318 14.0244,29.1472 14.1575,29.033 L40.4908,6.4412 Z" id="Fill-9" fill="#696969"></path>
            <path d="M30.4729,12.0246 C31.3008,11.2341 32.508,11.1528 33.167,11.843 C33.8261,12.5333 33.6891,13.7354 32.8612,14.5259 C32.0334,15.3163 30.8262,15.3977 30.1671,14.7074 C29.508,14.0172 29.6451,12.815 30.4729,12.0246 Z" id="Fill-10" fill="#FFFFFF"></path>
            <path d="M30.4729,12.0246 C31.3008,11.2341 32.508,11.1528 33.167,11.843 C33.8261,12.5333 33.6891,13.7354 32.8612,14.5259 C32.0334,15.3163 30.8262,15.3977 30.1671,14.7074 C29.508,14.0172 29.6451,12.815 30.4729,12.0246 Z" id="Fill-11" fill="#FFFFFF"></path>
            <path d="M20.6959,20.0708 C21.5237,19.2804 22.7309,19.199 23.39,19.8893 C24.049,20.5796 23.912,21.7817 23.0841,22.5721 C22.2563,23.3626 21.0491,23.4439 20.39,22.7537 C19.731,22.0634 19.868,20.8613 20.6959,20.0708 Z" id="Fill-12" fill="#FFFFFF"></path>
            <polygon id="Fill-13" fill="#000000" points="23.5354 9.5776 20.9484 6.2431 20.678 6.4529 23.2649 9.7874"></polygon>
            <polygon id="Stroke-14" stroke="#000000" stroke-width="0.55" stroke-linecap="round" stroke-linejoin="round" points="23.5354 9.5776 20.9484 6.2431 20.678 6.4529 23.2649 9.7874"></polygon>
            <polygon id="Fill-15" fill="#000000" points="25.5452 12.0856 23.3922 9.3448 23.1114 9.5653 25.2645 12.3061"></polygon>
            <polygon id="Stroke-16" stroke="#000000" stroke-width="0.55" stroke-linecap="round" stroke-linejoin="round" points="25.5452 12.0856 23.3922 9.3448 23.1114 9.5653 25.2645 12.3061"></polygon>
            <polygon id="Fill-17" fill="#000000" points="23.5406 9.7794 25.3115 5.9278 24.9752 5.7731 23.2042 9.6247"></polygon>
            <polygon id="Stroke-18" stroke="#000000" stroke-width="0.55" stroke-linecap="round" stroke-linejoin="round" points="23.5406 9.7794 25.3115 5.9278 24.9752 5.7731 23.2042 9.6247"></polygon>
            <path d="M27.4807,7.8409 C27.8179,7.8409 28.0917,8.1147 28.0917,8.4519 C28.0917,8.7891 27.8179,9.0628 27.4807,9.0628 C27.1436,9.0628 26.8698,8.7891 26.8698,8.4519 C26.8698,8.1147 27.1436,7.8409 27.4807,7.8409 Z" id="Fill-19" fill="#000000"></path>
            <path d="M28.2364,10.903 C28.0922,10.9216 27.9452,10.9419 27.8097,10.903 C27.5052,10.8156 26.9638,10.6607 26.5878,10.2847 C26.5267,10.2236 26.357,10.1058 26.3475,10.0315" id="Stroke-20" stroke="#000000" stroke-width="0.55" stroke-linecap="round" stroke-linejoin="round"></path>
            <path d="M36.1382,5.5601 C36.3165,5.5474 36.451,5.3922 36.4383,5.2139 L36.3922,4.5675 C36.3795,4.3891 36.2243,4.2546 36.046,4.2674 L24.6839,5.0778 C24.5055,5.0905 24.371,5.2457 24.3838,5.424 L24.4299,6.0704 C24.4426,6.2488 24.5977,6.3833 24.7761,6.3706 L36.1382,5.5601 Z" id="Fill-21" fill="#000000"></path>
            <path d="M16.336,7.3285 C16.3281,7.2642 16.3212,7.1991 16.3153,7.1338 C15.9982,3.5815 18.8868,0.4166 22.762,0.0706 C26.6372,-0.2754 30.0409,2.3276 30.3581,5.8799 C30.3639,5.9453 30.3687,6.0105 30.3723,6.0752 L16.336,7.3285 Z" id="Fill-22" fill="#000000"></path>
        </g>
    </g>
</svg>