<?xml version="1.0" encoding="UTF-8" standalone="no"?>
<!DOCTYPE svg PUBLIC "-//W3C//DTD SVG 1.1//EN" "http://www.w3.org/Graphics/SVG/1.1/DTD/svg11.dtd">
<svg width="100%" height="100%" viewBox="0 0 40 55" version="1.1" xmlns="http://www.w3.org/2000/svg" xmlns:xlink="http://www.w3.org/1999/xlink" xml:space="preserve" xmlns:serif="http://www.serif.com/" style="fill-rule:evenodd;clip-rule:evenodd;stroke-linejoin:round;stroke-miterlimit:2;">
    <g transform="matrix(1.33333,0,0,1.33333,0,0)">
        <g transform="matrix(1,0,0,1,-9,-4)">
            <path d="M35.76,26.36L35.77,26.36C35.77,26.36 32,31.89 28.83,36C26.09,39.55 25.29,42.59 25.06,44.06C24.97,44.6 24.53,45 24,45C23.47,45 23.03,44.6 22.94,44.06C22.71,42.59 21.91,39.55 19.17,36C18.75,35.45 18.32,34.88 17.89,34.3L28.24,22L36.57,12.12C37.49,14.05 38,16.21 38,18.5C38,21.4 37.17,24.09 35.76,26.36Z" style="fill:rgb(72,181,100);fill-rule:nonzero;"/>
        </g>
        <g transform="matrix(1,0,0,1,-9,-4)">
            <path d="M28.24,22L17.89,34.3C15.07,30.52 12.23,26.36 12.23,26.36L12.24,26.36C11.94,25.88 11.67,25.39 11.44,24.88L19.76,15C18.97,15.95 18.5,17.17 18.5,18.5C18.5,21.54 20.96,24 24,24C25.71,24 27.24,23.22 28.24,22Z" style="fill:rgb(252,198,14);fill-rule:nonzero;"/>
        </g>
        <g transform="matrix(1,0,0,1,-9,-4)">
            <path d="M28.4,4.74L19.83,14.92L13.27,9.2C15.83,6.02 19.69,4 24,4C25.54,4 27.02,4.26 28.4,4.74Z" style="fill:rgb(44,133,235);fill-rule:nonzero;"/>
        </g>
        <g transform="matrix(1,0,0,1,-9,-4)">
            <path d="M19.83,14.92L19.76,15L11.44,24.88C10.52,22.95 10,20.79 10,18.5C10,14.96 11.23,11.71 13.27,9.2L19.83,14.92Z" style="fill:rgb(237,87,72);fill-rule:nonzero;"/>
        </g>
        <g transform="matrix(1,0,0,1,-9,-4)">
            <path d="M28.24,22C29.03,21.05 29.5,19.83 29.5,18.5C29.5,15.46 27.04,13 24,13C22.29,13 20.76,13.78 19.76,15L28.4,4.74C31.99,5.96 34.93,8.65 36.57,12.12L28.24,22Z" style="fill:rgb(86,149,246);fill-rule:nonzero;"/>
        </g>
    </g>
</svg>
