<?xml version="1.0" encoding="UTF-8" standalone="no"?><!DOCTYPE svg PUBLIC "-//W3C//DTD SVG 1.1//EN" "http://www.w3.org/Graphics/SVG/1.1/DTD/svg11.dtd"><svg width="100%" height="100%" viewBox="0 0 79 76" version="1.1" xmlns="http://www.w3.org/2000/svg" xmlns:xlink="http://www.w3.org/1999/xlink" xml:space="preserve" xmlns:serif="http://www.serif.com/" style="fill-rule:evenodd;clip-rule:evenodd;stroke-linecap:round;stroke-miterlimit:1.5;"><ellipse cx="50.31" cy="28.457" rx="28.511" ry="28.457" style="fill:#941216;"/><ellipse cx="29.397" cy="11.172" rx="26.69" ry="7.916" style="fill:none;stroke:#231f20;stroke-width:3px;"/><path d="M3.01,22.089c-0,4.369 11.959,7.916 26.69,7.916c14.73,0 26.689,-3.547 26.689,-7.916" style="fill:none;stroke:#231f20;stroke-width:3px;"/><path d="M2.704,11.172c0.229,10.444 -0.101,7.405 0.229,10.444" style="fill:none;stroke:#231f20;stroke-width:3px;"/><path d="M56.097,11.172c0.229,10.444 -0.1,7.405 0.229,10.444" style="fill:none;stroke:#231f20;stroke-width:3px;"/><path d="M2.889,22.089c0.228,10.444 -0.101,7.405 0.228,10.444" style="fill:none;stroke:#231f20;stroke-width:3px;"/><path d="M56.282,22.089c0.229,10.444 -0.101,7.405 0.229,10.444" style="fill:none;stroke:#231f20;stroke-width:3px;"/><path d="M3.131,32.533c0,4.369 11.96,7.916 26.69,7.916c14.73,0 26.69,-3.547 26.69,-7.916" style="fill:none;stroke:#231f20;stroke-width:3px;"/><path d="M3.117,33.527c0.229,10.444 -0.1,7.405 0.229,10.444" style="fill:none;stroke:#231f20;stroke-width:3px;"/><path d="M56.511,33.527c0.229,10.444 -0.101,7.405 0.229,10.444" style="fill:none;stroke:#231f20;stroke-width:3px;"/><path d="M3.246,43.731c-0,4.369 11.959,7.916 26.689,7.916c14.731,0 26.69,-3.547 26.69,-7.916" style="fill:none;stroke:#231f20;stroke-width:3px;"/><ellipse cx="60.403" cy="36.111" rx="15.538" ry="15.536" style="fill:#fff;stroke:#fff;stroke-width:2px;"/><path d="M59.851,46.533l0,-2.07c-1.035,-0.131 -1.877,-0.363 -2.525,-0.696c-0.648,-0.334 -1.208,-0.873 -1.68,-1.617c-0.471,-0.743 -0.745,-1.652 -0.822,-2.726l2.082,-0.391c0.161,1.112 0.445,1.929 0.851,2.45c0.583,0.737 1.281,1.147 2.094,1.231l0,-6.592c-0.851,-0.161 -1.722,-0.49 -2.611,-0.989c-0.66,-0.368 -1.168,-0.878 -1.525,-1.53c-0.356,-0.652 -0.534,-1.392 -0.534,-2.22c-0,-1.473 0.521,-2.665 1.564,-3.578c0.698,-0.613 1.733,-0.989 3.106,-1.127l0,-0.99l1.22,0l-0,0.99c1.204,0.115 2.158,0.468 2.864,1.058c0.905,0.752 1.449,1.783 1.634,3.095l-2.14,0.322c-0.123,-0.813 -0.378,-1.436 -0.765,-1.87c-0.387,-0.433 -0.919,-0.719 -1.593,-0.857l-0,5.971c1.043,0.261 1.733,0.464 2.07,0.61c0.644,0.283 1.17,0.628 1.576,1.035c0.407,0.406 0.719,0.89 0.938,1.449c0.218,0.56 0.328,1.166 0.328,1.818c-0,1.434 -0.457,2.631 -1.369,3.589c-0.913,0.959 -2.094,1.473 -3.543,1.542l-0,2.093l-1.22,0Zm0,-18.13c-0.805,0.123 -1.44,0.445 -1.904,0.967c-0.464,0.521 -0.696,1.139 -0.696,1.852c0,0.705 0.198,1.296 0.593,1.771c0.395,0.476 1.064,0.856 2.007,1.139l0,-5.729Zm1.22,14.311c0.805,-0.1 1.47,-0.448 1.995,-1.047c0.526,-0.598 0.788,-1.338 0.788,-2.22c0,-0.751 -0.186,-1.355 -0.557,-1.812c-0.372,-0.456 -1.114,-0.864 -2.226,-1.225l-0,6.304Z" style="fill:#231f20;fill-rule:nonzero;"/><path d="M17.754,74.919c-0.253,0 -0.484,-0.06 -0.693,-0.18c-0.21,-0.12 -0.315,-0.3 -0.315,-0.54l0,-16.128c0,-0.246 0.105,-0.424 0.315,-0.533c0.209,-0.109 0.44,-0.163 0.693,-0.163c0.253,0 0.484,0.054 0.694,0.163c0.21,0.109 0.314,0.287 0.314,0.533l0,7.949l6.447,-8.347c0.144,-0.199 0.342,-0.298 0.595,-0.298c0.176,0 0.352,0.05 0.528,0.151c0.176,0.101 0.322,0.231 0.439,0.389c0.117,0.159 0.175,0.326 0.175,0.502c0,0.057 -0.011,0.126 -0.033,0.206c-0.023,0.08 -0.063,0.155 -0.12,0.226l-4.901,6.11l5.702,8.63c0.08,0.122 0.12,0.249 0.12,0.38c0,0.169 -0.056,0.331 -0.17,0.485c-0.114,0.153 -0.261,0.279 -0.442,0.376c-0.181,0.098 -0.369,0.147 -0.564,0.147c-0.141,-0 -0.275,-0.033 -0.403,-0.099c-0.128,-0.065 -0.238,-0.168 -0.331,-0.309l-5.256,-7.911l-1.786,2.247l0,5.294c0,0.24 -0.104,0.42 -0.314,0.54c-0.21,0.12 -0.441,0.18 -0.694,0.18Z" style="fill:#231f20;fill-rule:nonzero;"/><path d="M33.221,75.101c-0.837,0 -1.615,-0.217 -2.336,-0.652c-0.72,-0.435 -1.299,-1.006 -1.734,-1.714c-0.436,-0.708 -0.654,-1.471 -0.654,-2.29l-0,-2.428c-0,-0.82 0.213,-1.58 0.638,-2.281c0.426,-0.7 1,-1.263 1.722,-1.689c0.723,-0.425 1.512,-0.638 2.368,-0.638c0.854,-0 1.642,0.209 2.362,0.627c0.721,0.418 1.3,0.973 1.736,1.664c0.436,0.691 0.654,1.463 0.654,2.317l-0,2.428c-0,0.801 -0.219,1.558 -0.655,2.273c-0.437,0.716 -1.016,1.291 -1.738,1.728c-0.722,0.437 -1.509,0.655 -2.363,0.655Zm0.002,-1.8c0.513,0 0.976,-0.135 1.389,-0.407c0.412,-0.271 0.744,-0.626 0.996,-1.065c0.251,-0.439 0.377,-0.9 0.377,-1.384l-0,-2.428c-0,-0.477 -0.123,-0.929 -0.37,-1.354c-0.246,-0.425 -0.578,-0.774 -0.995,-1.046c-0.416,-0.272 -0.881,-0.408 -1.394,-0.408c-0.513,-0 -0.975,0.135 -1.387,0.407c-0.411,0.271 -0.739,0.619 -0.984,1.045c-0.244,0.426 -0.366,0.878 -0.366,1.356l-0,2.428c-0,0.484 0.122,0.945 0.366,1.384c0.243,0.439 0.574,0.794 0.991,1.065c0.417,0.272 0.876,0.407 1.377,0.407Z" style="fill:#231f20;fill-rule:nonzero;"/><path d="M43.631,75.101c-0.765,0 -1.442,-0.096 -2.033,-0.29c-0.59,-0.193 -1.053,-0.429 -1.389,-0.708c-0.336,-0.278 -0.504,-0.552 -0.504,-0.821c-0,-0.125 0.03,-0.255 0.091,-0.391c0.061,-0.136 0.145,-0.254 0.252,-0.355c0.107,-0.101 0.223,-0.152 0.348,-0.152c0.189,0 0.394,0.092 0.617,0.276c0.222,0.184 0.529,0.369 0.919,0.555c0.391,0.186 0.939,0.278 1.646,0.278c0.861,0 1.457,-0.154 1.786,-0.463c0.33,-0.309 0.494,-0.658 0.494,-1.049c0,-0.483 -0.14,-0.858 -0.422,-1.125c-0.281,-0.267 -0.646,-0.477 -1.094,-0.629c-0.448,-0.152 -0.922,-0.298 -1.421,-0.439c-0.499,-0.141 -0.973,-0.319 -1.421,-0.535c-0.448,-0.216 -0.813,-0.52 -1.094,-0.912c-0.282,-0.392 -0.423,-0.919 -0.423,-1.582c0,-0.525 0.131,-1.045 0.391,-1.56c0.261,-0.515 0.679,-0.942 1.253,-1.281c0.575,-0.34 1.339,-0.509 2.292,-0.509c0.57,-0 1.112,0.06 1.627,0.18c0.516,0.12 0.938,0.278 1.268,0.475c0.329,0.197 0.494,0.41 0.494,0.641c0,0.093 -0.033,0.219 -0.098,0.379c-0.066,0.16 -0.156,0.302 -0.269,0.425c-0.114,0.123 -0.252,0.185 -0.415,0.185c-0.141,-0 -0.325,-0.058 -0.552,-0.173c-0.228,-0.115 -0.506,-0.228 -0.836,-0.339c-0.329,-0.11 -0.724,-0.165 -1.185,-0.165c-0.531,-0 -0.957,0.09 -1.277,0.271c-0.32,0.181 -0.552,0.397 -0.696,0.648c-0.144,0.251 -0.216,0.498 -0.216,0.741c0,0.407 0.141,0.72 0.422,0.941c0.282,0.221 0.649,0.4 1.1,0.538c0.451,0.137 0.926,0.277 1.425,0.418c0.499,0.14 0.975,0.333 1.426,0.578c0.451,0.245 0.818,0.582 1.099,1.013c0.282,0.43 0.423,1.007 0.423,1.73c-0,0.976 -0.351,1.754 -1.052,2.335c-0.701,0.581 -1.693,0.871 -2.976,0.871Z" style="fill:#231f20;fill-rule:nonzero;"/><path d="M53.793,74.919c-1.29,0 -2.276,-0.288 -2.959,-0.864c-0.684,-0.576 -1.025,-1.496 -1.025,-2.76l-0,-12.36c-0,-0.211 0.106,-0.38 0.319,-0.506c0.213,-0.127 0.435,-0.19 0.665,-0.19c0.253,0 0.484,0.063 0.693,0.19c0.21,0.126 0.315,0.295 0.315,0.506l-0,4.618l3.029,-0c0.188,-0 0.337,0.08 0.446,0.24c0.109,0.16 0.163,0.342 0.163,0.547c0,0.201 -0.054,0.381 -0.163,0.538c-0.109,0.156 -0.258,0.235 -0.446,0.235l-3.029,-0l-0,6.182c-0,0.688 0.149,1.172 0.446,1.452c0.298,0.28 0.813,0.42 1.546,0.42l0.744,0c0.285,0 0.502,0.087 0.653,0.262c0.15,0.174 0.225,0.376 0.225,0.607c0,0.227 -0.075,0.431 -0.225,0.612c-0.151,0.181 -0.368,0.271 -0.653,0.271l-0.744,0Z" style="fill:#231f20;fill-rule:nonzero;"/><path d="M61.924,75.101c-1.04,0 -1.961,-0.195 -2.762,-0.585c-0.802,-0.391 -1.432,-0.934 -1.889,-1.63c-0.458,-0.696 -0.686,-1.509 -0.686,-2.441l-0,-2.5c-0,-0.819 0.216,-1.574 0.65,-2.263c0.433,-0.69 1.011,-1.241 1.733,-1.654c0.721,-0.413 1.517,-0.619 2.388,-0.619c0.822,-0 1.583,0.189 2.282,0.569c0.699,0.379 1.263,0.899 1.69,1.56c0.427,0.66 0.641,1.423 0.641,2.287c-0,0.633 -0.104,1.089 -0.312,1.368c-0.208,0.278 -0.473,0.448 -0.795,0.511c-0.321,0.062 -0.661,0.093 -1.02,0.093l-5.265,0l-0,0.735c-0,0.889 0.32,1.596 0.96,2.119c0.64,0.523 1.457,0.785 2.452,0.785c0.602,-0 1.079,-0.081 1.431,-0.242c0.352,-0.162 0.637,-0.32 0.856,-0.473c0.22,-0.154 0.424,-0.231 0.613,-0.231c0.163,0 0.305,0.053 0.427,0.159c0.121,0.105 0.215,0.228 0.28,0.369c0.066,0.141 0.099,0.269 0.099,0.384c-0,0.208 -0.153,0.447 -0.459,0.716c-0.305,0.268 -0.74,0.5 -1.303,0.693c-0.563,0.194 -1.233,0.29 -2.011,0.29Zm-3.345,-6.643l4.43,0c0.425,0 0.709,-0.049 0.852,-0.148c0.142,-0.1 0.214,-0.304 0.214,-0.615c-0,-0.473 -0.118,-0.917 -0.353,-1.329c-0.235,-0.413 -0.559,-0.746 -0.972,-0.999c-0.413,-0.253 -0.887,-0.379 -1.421,-0.379c-0.499,-0 -0.958,0.117 -1.375,0.35c-0.418,0.234 -0.751,0.548 -1.001,0.941c-0.25,0.394 -0.374,0.837 -0.374,1.33l-0,0.849Z" style="fill:#231f20;fill-rule:nonzero;"/><path d="M69.158,74.919c-0.285,0 -0.52,-0.074 -0.706,-0.223c-0.186,-0.149 -0.278,-0.314 -0.278,-0.497l-0,-9.95c-0,-0.211 0.092,-0.38 0.278,-0.507c0.186,-0.126 0.421,-0.189 0.706,-0.189c0.256,-0 0.472,0.063 0.648,0.189c0.176,0.127 0.264,0.296 0.264,0.507l-0,0.984c0.253,-0.464 0.652,-0.884 1.197,-1.26c0.546,-0.376 1.219,-0.564 2.019,-0.564c0.765,-0 1.467,0.209 2.107,0.626c0.64,0.418 1.153,0.973 1.538,1.666c0.386,0.693 0.579,1.465 0.579,2.316l-0,6.182c-0,0.24 -0.105,0.42 -0.315,0.54c-0.209,0.12 -0.441,0.18 -0.693,0.18c-0.231,0 -0.452,-0.06 -0.665,-0.18c-0.213,-0.12 -0.319,-0.3 -0.319,-0.54l-0,-6.182c-0,-0.477 -0.124,-0.928 -0.372,-1.354c-0.248,-0.425 -0.579,-0.774 -0.991,-1.046c-0.413,-0.272 -0.871,-0.408 -1.373,-0.408c-0.429,-0 -0.844,0.113 -1.246,0.338c-0.402,0.226 -0.73,0.545 -0.986,0.958c-0.256,0.413 -0.384,0.917 -0.384,1.512l-0,6.182c-0,0.183 -0.098,0.348 -0.293,0.497c-0.195,0.149 -0.434,0.223 -0.715,0.223Z" style="fill:#231f20;fill-rule:nonzero;"/></svg>