<?xml version="1.0" encoding="UTF-8" standalone="no"?><!DOCTYPE svg PUBLIC "-//W3C//DTD SVG 1.1//EN" "http://www.w3.org/Graphics/SVG/1.1/DTD/svg11.dtd"><svg width="100%" height="100%" viewBox="0 0 92 57" version="1.1" xmlns="http://www.w3.org/2000/svg" xmlns:xlink="http://www.w3.org/1999/xlink" xml:space="preserve" xmlns:serif="http://www.serif.com/" style="fill-rule:evenodd;clip-rule:evenodd;stroke-linecap:round;stroke-miterlimit:1.5;"><ellipse cx="62.55" cy="28.457" rx="28.511" ry="28.457" style="fill:#941216;"/><ellipse cx="29.397" cy="11.172" rx="26.69" ry="7.916" style="fill:none;stroke:#231f20;stroke-width:3px;"/><path d="M3.01,22.089c-0,4.369 11.959,7.916 26.69,7.916c14.73,0 26.689,-3.547 26.689,-7.916" style="fill:none;stroke:#231f20;stroke-width:3px;"/><path d="M2.704,11.172c0.229,10.444 -0.101,7.405 0.229,10.444" style="fill:none;stroke:#231f20;stroke-width:3px;"/><path d="M56.097,11.172c0.229,10.444 -0.1,7.405 0.229,10.444" style="fill:none;stroke:#231f20;stroke-width:3px;"/><path d="M2.889,22.089c0.228,10.444 -0.101,7.405 0.228,10.444" style="fill:none;stroke:#231f20;stroke-width:3px;"/><path d="M56.282,22.089c0.229,10.444 -0.101,7.405 0.229,10.444" style="fill:none;stroke:#231f20;stroke-width:3px;"/><path d="M3.131,32.533c0,4.369 11.96,7.916 26.69,7.916c14.73,0 26.69,-3.547 26.69,-7.916" style="fill:none;stroke:#231f20;stroke-width:3px;"/><path d="M3.117,33.527c0.229,10.444 -0.1,7.405 0.229,10.444" style="fill:none;stroke:#231f20;stroke-width:3px;"/><path d="M56.511,33.527c0.229,10.444 -0.101,7.405 0.229,10.444" style="fill:none;stroke:#231f20;stroke-width:3px;"/><path d="M3.246,43.731c-0,4.369 11.959,7.916 26.689,7.916c14.731,0 26.69,-3.547 26.69,-7.916" style="fill:none;stroke:#231f20;stroke-width:3px;"/><ellipse cx="60.403" cy="36.111" rx="15.538" ry="15.536" style="fill:#fff;stroke:#fff;stroke-width:2px;"/><g transform="matrix(23.5599,0,0,23.5599,67.087,44.1062)"></g><text x="53.984px" y="44.106px" style="font-family:'ArialMT', 'Arial', sans-serif;font-size:23.56px;fill:#231f20;">$</text></svg>