<?xml version="1.0" encoding="UTF-8" standalone="no"?><!DOCTYPE svg PUBLIC "-//W3C//DTD SVG 1.1//EN" "http://www.w3.org/Graphics/SVG/1.1/DTD/svg11.dtd"><svg width="100%" height="100%" viewBox="0 0 91 59" version="1.1" xmlns="http://www.w3.org/2000/svg" xmlns:xlink="http://www.w3.org/1999/xlink" xml:space="preserve" xmlns:serif="http://www.serif.com/" style="fill-rule:evenodd;clip-rule:evenodd;stroke-linecap:round;stroke-linejoin:round;stroke-miterlimit:1.5;"><ellipse cx="61.612" cy="28.457" rx="28.511" ry="28.457" style="fill:#941216;"/><g><path d="M29.337,28.245c0.771,-0.745 3.184,0.497 5.384,2.773c2.2,2.276 3.36,4.729 2.589,5.475c-0.771,0.745 -3.183,-0.497 -5.383,-2.774c-2.201,-2.276 -3.361,-4.729 -2.59,-5.474Z" style="fill:#fff;"/><path d="M29.21,29.839c-0.574,-0.906 1.132,-3.016 3.807,-4.709c2.674,-1.694 5.312,-2.333 5.885,-1.426c0.574,0.906 -1.132,3.016 -3.807,4.709c-2.674,1.694 -5.312,2.333 -5.885,1.426Z" style="fill:#fff;"/></g><path d="M55.458,23.192c0.002,1.072 -2.566,1.949 -5.731,1.956c-3.166,0.007 -5.738,-0.858 -5.74,-1.93c-0.003,-1.073 2.565,-1.949 5.731,-1.956c3.165,-0.008 5.737,0.857 5.74,1.93Z" style="fill:#fff;"/><ellipse cx="40.941" cy="14.494" rx="9.812" ry="8.797" style="fill:#fff;"/><path d="M41.399,18.592c4.416,-0.394 8.582,5.798 9.298,13.819c0.715,8.021 -2.289,14.852 -6.706,15.246c-4.416,0.394 -8.582,-5.798 -9.297,-13.819c-0.715,-8.021 2.289,-14.852 6.705,-15.246Z" style="fill:#fff;"/><path d="M43.648,40.173c24.09,0 43.648,-7.116 43.648,0c0,7.117 -19.558,12.894 -43.648,12.894c-24.09,0 -43.648,-5.777 -43.648,-12.894c0,-7.116 19.558,0 43.648,0Z"/><g><path d="M65.826,6.582c-0.061,0.047 -0.121,0.097 -0.178,0.15l-6.698,6.149c-1.407,1.292 -1.209,3.8 0.442,5.597l0.609,0.664c1.65,1.798 4.132,2.209 5.539,0.917l5.705,-5.237l0.014,0.015l3.085,-2.872c0.762,-0.709 0.647,-2.076 -0.256,-3.051l-3.348,-3.616c-0.903,-0.975 -2.255,-1.192 -3.016,-0.483l-1.898,1.767Z" style="fill:#595959;"/><path d="M25.241,56.155c0.061,-0.047 0.12,-0.098 0.177,-0.151l6.65,-6.201c1.397,-1.302 1.179,-3.809 -0.485,-5.594l-0.614,-0.659c-1.665,-1.784 -4.15,-2.176 -5.547,-0.874l-5.663,5.281l-0.015,-0.015l-3.063,2.896c-0.756,0.715 -0.63,2.081 0.28,3.05l3.376,3.589c0.91,0.969 2.264,1.175 3.02,0.46l1.884,-1.782Z" style="fill:#595959;"/><path d="M69.966,11.692c0.23,-0.198 0.257,-0.545 0.06,-0.775l-0.716,-0.833c-0.197,-0.231 -0.544,-0.257 -0.774,-0.06l-45.503,39.038c-0.23,0.197 -0.256,0.544 -0.059,0.774l0.715,0.834c0.197,0.23 0.544,0.257 0.775,0.059l45.502,-39.037Z" style="fill:#595959;"/></g><path d="M52.656,21.339c1.43,-1.365 3.516,-1.506 4.655,-0.313c1.139,1.192 0.902,3.27 -0.528,4.636c-1.431,1.365 -3.517,1.506 -4.656,0.313c-1.138,-1.192 -0.902,-3.27 0.529,-4.636Z" style="fill:#fff;"/><path d="M52.656,21.339c1.43,-1.365 3.516,-1.506 4.655,-0.313c1.139,1.192 0.902,3.27 -0.528,4.636c-1.431,1.365 -3.517,1.506 -4.656,0.313c-1.138,-1.192 -0.902,-3.27 0.529,-4.636Z" style="fill:#fff;"/><path d="M35.762,35.243c1.43,-1.366 3.516,-1.506 4.655,-0.314c1.139,1.193 0.902,3.27 -0.529,4.636c-1.43,1.366 -3.516,1.507 -4.655,0.314c-1.139,-1.193 -0.902,-3.27 0.529,-4.636Z" style="fill:#fff;"/><path d="M40.668,17.111l-4.47,-5.762l-0.467,0.363l4.47,5.762l0.467,-0.363Z" style="stroke:#000;stroke-width:0.55px;"/><path d="M44.141,21.445l-3.72,-4.736l-0.485,0.381l3.72,4.736l0.485,-0.381Z" style="stroke:#000;stroke-width:0.55px;"/><path d="M40.677,17.46l3.06,-6.656l-0.581,-0.267l-3.06,6.656l0.581,0.267Z" style="stroke:#000;stroke-width:0.55px;"/><circle cx="47.486" cy="15.166" r="1.056"/><path d="M48.791,19.401c-0.249,0.033 -0.503,0.068 -0.737,0c-0.526,-0.151 -1.462,-0.418 -2.111,-1.068c-0.106,-0.106 -0.399,-0.309 -0.416,-0.437" style="fill:none;stroke:#000;stroke-width:0.55px;"/><g><path d="M62.445,10.332c0.308,-0.022 0.541,-0.291 0.519,-0.599l-0.08,-1.117c-0.022,-0.308 -0.29,-0.54 -0.598,-0.518l-19.633,1.4c-0.308,0.022 -0.541,0.29 -0.519,0.598l0.08,1.117c0.022,0.309 0.29,0.541 0.598,0.519l19.633,-1.4Z"/><path d="M28.228,13.225c-0.014,-0.111 -0.026,-0.224 -0.036,-0.337c-0.548,-6.138 4.444,-11.607 11.14,-12.205c6.696,-0.597 12.577,3.901 13.125,10.039c0.011,0.113 0.019,0.225 0.025,0.337l-24.254,2.166Z"/></g></svg>