<?xml version="1.0" encoding="UTF-8" standalone="no"?><!DOCTYPE svg PUBLIC "-//W3C//DTD SVG 1.1//EN" "http://www.w3.org/Graphics/SVG/1.1/DTD/svg11.dtd"><svg width="100%" height="100%" viewBox="0 0 98 82" version="1.1" xmlns="http://www.w3.org/2000/svg" xmlns:xlink="http://www.w3.org/1999/xlink" xml:space="preserve" xmlns:serif="http://www.serif.com/" style="fill-rule:evenodd;clip-rule:evenodd;stroke-linecap:round;stroke-linejoin:round;stroke-miterlimit:1.5;"><g><ellipse cx="68.695" cy="29.747" rx="28.511" ry="28.457" style="fill:#00b1e5;"/><g><path d="M37.86,27.615c0.772,-0.745 3.184,0.497 5.384,2.773c2.2,2.276 3.36,4.729 2.589,5.475c-0.771,0.745 -3.183,-0.498 -5.383,-2.774c-2.2,-2.276 -3.361,-4.729 -2.59,-5.474Z" style="fill:#fff;"/><path d="M37.733,29.209c-0.574,-0.906 1.132,-3.016 3.807,-4.709c2.675,-1.694 5.312,-2.333 5.885,-1.427c0.574,0.907 -1.132,3.017 -3.806,4.71c-2.675,1.693 -5.312,2.332 -5.886,1.426Z" style="fill:#fff;"/></g><path d="M63.981,22.562c0.003,1.072 -2.566,1.949 -5.731,1.956c-3.166,0.007 -5.738,-0.858 -5.74,-1.93c-0.003,-1.073 2.565,-1.949 5.731,-1.957c3.166,-0.007 5.738,0.858 5.74,1.931Z" style="fill:#fff;"/><ellipse cx="49.464" cy="13.864" rx="9.812" ry="8.797" style="fill:#fff;"/><path d="M49.922,17.962c4.416,-0.394 8.582,5.798 9.298,13.819c0.715,8.02 -2.289,14.852 -6.705,15.246c-4.416,0.394 -8.582,-5.798 -9.298,-13.819c-0.715,-8.021 2.289,-14.853 6.705,-15.246Z" style="fill:#fff;"/><path d="M52.171,39.543c24.09,0 43.649,-7.116 43.649,0c-0,7.116 -19.559,12.894 -43.649,12.894c-24.09,0 -43.648,-5.778 -43.648,-12.894c0,-7.116 19.558,0 43.648,0Z"/><g><path d="M74.349,5.952c-0.061,0.047 -0.12,0.097 -0.178,0.15l-6.698,6.149c-1.407,1.292 -1.209,3.8 0.442,5.597l0.609,0.664c1.651,1.798 4.133,2.209 5.539,0.917l5.705,-5.237l0.014,0.015l3.085,-2.872c0.762,-0.709 0.647,-2.076 -0.256,-3.052l-3.348,-3.615c-0.903,-0.976 -2.254,-1.192 -3.016,-0.483l-1.898,1.767Z" style="fill:#595959;"/><path d="M33.764,55.525c0.061,-0.047 0.12,-0.098 0.177,-0.151l6.65,-6.201c1.397,-1.302 1.18,-3.809 -0.485,-5.594l-0.614,-0.659c-1.665,-1.785 -4.15,-2.176 -5.546,-0.874l-5.664,5.281l-0.015,-0.015l-3.063,2.896c-0.756,0.714 -0.63,2.081 0.281,3.049l3.375,3.59c0.911,0.968 2.264,1.174 3.02,0.46l1.884,-1.782Z" style="fill:#595959;"/><path d="M78.489,11.061c0.23,-0.197 0.257,-0.544 0.06,-0.774l-0.716,-0.834c-0.197,-0.23 -0.544,-0.256 -0.774,-0.059l-45.503,39.038c-0.23,0.197 -0.256,0.544 -0.059,0.774l0.715,0.834c0.198,0.23 0.545,0.256 0.775,0.059l45.502,-39.038Z" style="fill:#595959;"/></g><path d="M61.179,20.709c1.431,-1.366 3.516,-1.506 4.655,-0.313c1.139,1.192 0.902,3.27 -0.528,4.635c-1.431,1.366 -3.517,1.507 -4.655,0.314c-1.139,-1.193 -0.902,-3.27 0.528,-4.636Z" style="fill:#fff;"/><path d="M61.179,20.709c1.431,-1.366 3.516,-1.506 4.655,-0.313c1.139,1.192 0.902,3.27 -0.528,4.635c-1.431,1.366 -3.517,1.507 -4.655,0.314c-1.139,-1.193 -0.902,-3.27 0.528,-4.636Z" style="fill:#fff;"/><path d="M44.285,34.613c1.43,-1.366 3.516,-1.506 4.655,-0.314c1.139,1.193 0.902,3.27 -0.528,4.636c-1.431,1.366 -3.517,1.506 -4.656,0.314c-1.139,-1.193 -0.902,-3.27 0.529,-4.636Z" style="fill:#fff;"/><path d="M49.191,16.481l-4.47,-5.762l-0.467,0.363l4.47,5.762l0.467,-0.363Z" style="stroke:#000;stroke-width:0.55px;"/><path d="M52.664,20.815l-3.72,-4.736l-0.485,0.381l3.72,4.736l0.485,-0.381Z" style="stroke:#000;stroke-width:0.55px;"/><path d="M49.2,16.83l3.06,-6.656l-0.581,-0.267l-3.06,6.655l0.581,0.268Z" style="stroke:#000;stroke-width:0.55px;"/><circle cx="56.009" cy="14.536" r="1.056"/><path d="M57.314,18.771c-0.249,0.032 -0.503,0.068 -0.737,0c-0.526,-0.151 -1.462,-0.418 -2.111,-1.068c-0.106,-0.106 -0.399,-0.309 -0.416,-0.438" style="fill:none;stroke:#000;stroke-width:0.55px;"/><g><path d="M70.968,9.701c0.309,-0.022 0.541,-0.29 0.519,-0.598l-0.08,-1.117c-0.022,-0.308 -0.29,-0.54 -0.598,-0.518l-19.633,1.4c-0.308,0.022 -0.541,0.29 -0.519,0.598l0.08,1.117c0.022,0.308 0.29,0.541 0.598,0.519l19.633,-1.401Z"/><path d="M36.751,12.595c-0.014,-0.111 -0.026,-0.224 -0.036,-0.337c-0.548,-6.138 4.444,-11.607 11.14,-12.205c6.696,-0.598 12.578,3.9 13.126,10.039c0.01,0.113 0.018,0.225 0.024,0.337l-24.254,2.166Z"/></g></g><path d="M1.008,76.206c-0.253,-0 -0.484,-0.06 -0.694,-0.18c-0.209,-0.12 -0.314,-0.3 -0.314,-0.54l-0,-16.128c-0,-0.189 0.075,-0.35 0.226,-0.483c0.15,-0.132 0.347,-0.204 0.59,-0.213l4.536,-0c0.951,-0 1.811,0.17 2.58,0.511c0.77,0.341 1.38,0.889 1.831,1.644c0.451,0.755 0.677,1.761 0.677,3.019l-0,0.221c-0,1.258 -0.229,2.269 -0.688,3.032c-0.458,0.763 -1.08,1.316 -1.864,1.66c-0.785,0.344 -1.662,0.516 -2.632,0.516l-3.24,0l-0,6.221c-0,0.24 -0.105,0.42 -0.314,0.54c-0.21,0.12 -0.441,0.18 -0.694,0.18Zm1.008,-8.611l3.24,-0c0.99,-0 1.765,-0.28 2.326,-0.841c0.561,-0.56 0.842,-1.421 0.842,-2.582l-0,-0.278c-0,-1.163 -0.281,-2.022 -0.842,-2.576c-0.561,-0.555 -1.336,-0.832 -2.326,-0.832l-3.24,-0l-0,7.109Z" style="fill:#231f20;fill-rule:nonzero;"/><path d="M13.306,76.206c-0.279,-0 -0.511,-0.074 -0.697,-0.223c-0.185,-0.149 -0.278,-0.315 -0.278,-0.497l0,-9.95c0,-0.212 0.093,-0.38 0.278,-0.507c0.186,-0.126 0.418,-0.189 0.697,-0.189c0.262,-0 0.481,0.063 0.657,0.189c0.176,0.127 0.264,0.295 0.264,0.507l0,1.118c0.179,-0.333 0.419,-0.646 0.72,-0.941c0.301,-0.294 0.656,-0.537 1.066,-0.729c0.409,-0.192 0.862,-0.288 1.358,-0.288l0.811,-0c0.208,-0 0.389,0.088 0.543,0.264c0.153,0.176 0.23,0.388 0.23,0.638c0,0.246 -0.077,0.458 -0.23,0.634c-0.154,0.176 -0.335,0.264 -0.543,0.264l-0.811,-0c-0.509,-0 -0.997,0.143 -1.464,0.429c-0.467,0.287 -0.848,0.689 -1.142,1.207c-0.295,0.519 -0.442,1.146 -0.442,1.882l0,5.472c0,0.182 -0.098,0.348 -0.293,0.497c-0.195,0.149 -0.436,0.223 -0.724,0.223Z" style="fill:#231f20;fill-rule:nonzero;"/><path d="M24.217,76.388c-0.837,0 -1.615,-0.217 -2.336,-0.652c-0.72,-0.435 -1.299,-1.006 -1.735,-1.714c-0.435,-0.708 -0.653,-1.471 -0.653,-2.29l-0,-2.428c-0,-0.82 0.212,-1.581 0.638,-2.281c0.426,-0.701 1,-1.264 1.722,-1.689c0.722,-0.426 1.512,-0.638 2.368,-0.638c0.854,-0 1.641,0.209 2.362,0.627c0.721,0.418 1.3,0.973 1.736,1.664c0.436,0.691 0.654,1.463 0.654,2.317l-0,2.428c-0,0.8 -0.219,1.558 -0.655,2.273c-0.437,0.715 -1.016,1.291 -1.738,1.728c-0.722,0.437 -1.509,0.655 -2.363,0.655Zm0.002,-1.8c0.513,0 0.976,-0.135 1.389,-0.407c0.412,-0.271 0.744,-0.626 0.996,-1.065c0.251,-0.439 0.377,-0.901 0.377,-1.384l-0,-2.428c-0,-0.478 -0.124,-0.929 -0.37,-1.354c-0.246,-0.426 -0.578,-0.774 -0.995,-1.046c-0.416,-0.272 -0.881,-0.408 -1.394,-0.408c-0.513,-0 -0.975,0.135 -1.387,0.406c-0.411,0.271 -0.739,0.62 -0.984,1.046c-0.244,0.426 -0.366,0.878 -0.366,1.356l-0,2.428c-0,0.483 0.122,0.945 0.365,1.384c0.244,0.439 0.575,0.794 0.992,1.065c0.417,0.272 0.876,0.407 1.377,0.407Z" style="fill:#231f20;fill-rule:nonzero;"/><path d="M35.51,81.702c-0.934,-0 -1.778,-0.131 -2.532,-0.394c-0.753,-0.262 -1.35,-0.636 -1.79,-1.123c-0.44,-0.486 -0.66,-1.064 -0.66,-1.733c-0,-0.672 0.198,-1.218 0.593,-1.639c0.395,-0.421 0.849,-0.74 1.361,-0.957c-0.362,-0.141 -0.656,-0.334 -0.884,-0.579c-0.227,-0.245 -0.34,-0.591 -0.34,-1.039c-0,-0.448 0.111,-0.806 0.333,-1.073c0.223,-0.267 0.51,-0.5 0.862,-0.698c-0.439,-0.359 -0.777,-0.798 -1.015,-1.318c-0.239,-0.52 -0.358,-1.092 -0.358,-1.716l-0,-0.792c-0,-0.774 0.178,-1.457 0.533,-2.049c0.355,-0.592 0.857,-1.056 1.505,-1.392c0.648,-0.336 1.397,-0.504 2.248,-0.504c0.56,-0 1.077,0.08 1.551,0.242c0.473,0.161 0.889,0.388 1.248,0.679c0.249,-0.531 0.517,-0.922 0.801,-1.174c0.285,-0.251 0.56,-0.376 0.826,-0.376c0.285,-0 0.501,0.08 0.648,0.24c0.147,0.16 0.221,0.323 0.221,0.489c-0,0.138 -0.039,0.255 -0.118,0.351c-0.078,0.096 -0.177,0.166 -0.295,0.211c-0.183,0.051 -0.39,0.147 -0.622,0.288c-0.232,0.141 -0.45,0.381 -0.655,0.72c0.247,0.301 0.429,0.646 0.547,1.037c0.119,0.39 0.178,0.803 0.178,1.238l-0,0.792c-0,0.759 -0.183,1.44 -0.55,2.045c-0.366,0.605 -0.877,1.081 -1.533,1.428c-0.656,0.347 -1.41,0.521 -2.261,0.521c-0.653,-0 -1.238,-0.12 -1.757,-0.36c-0.157,0.093 -0.298,0.199 -0.425,0.319c-0.126,0.12 -0.189,0.286 -0.189,0.497c-0,0.329 0.179,0.566 0.537,0.71c0.359,0.144 0.818,0.248 1.378,0.312c0.56,0.064 1.154,0.138 1.781,0.221c0.627,0.083 1.221,0.226 1.781,0.427c0.56,0.202 1.019,0.509 1.377,0.922c0.359,0.413 0.538,0.985 0.538,1.718c-0,0.791 -0.218,1.445 -0.653,1.963c-0.435,0.519 -1.017,0.906 -1.745,1.162c-0.728,0.256 -1.55,0.384 -2.465,0.384Zm-0.028,-1.402c0.902,0 1.619,-0.187 2.15,-0.561c0.531,-0.375 0.797,-0.872 0.797,-1.493c-0,-0.455 -0.139,-0.806 -0.415,-1.054c-0.277,-0.248 -0.632,-0.429 -1.064,-0.542c-0.432,-0.114 -0.882,-0.194 -1.351,-0.24c-0.469,-0.047 -0.892,-0.094 -1.269,-0.142c-0.512,0.17 -0.956,0.414 -1.332,0.732c-0.376,0.319 -0.564,0.737 -0.564,1.256c-0,0.62 0.277,1.116 0.832,1.487c0.556,0.372 1.294,0.557 2.216,0.557Zm-0.082,-8.241c0.733,-0 1.308,-0.249 1.726,-0.747c0.417,-0.497 0.626,-1.124 0.626,-1.879l-0,-0.792c-0,-0.726 -0.207,-1.337 -0.622,-1.833c-0.414,-0.496 -0.999,-0.744 -1.754,-0.744c-0.749,-0 -1.328,0.248 -1.738,0.744c-0.409,0.496 -0.614,1.107 -0.614,1.833l-0,0.768c-0,0.749 0.207,1.378 0.622,1.886c0.414,0.509 0.999,0.764 1.754,0.764Z" style="fill:#231f20;fill-rule:nonzero;"/><path d="M43.349,76.206c-0.279,-0 -0.511,-0.074 -0.696,-0.223c-0.186,-0.149 -0.279,-0.315 -0.279,-0.497l0,-9.95c0,-0.212 0.093,-0.38 0.279,-0.507c0.185,-0.126 0.417,-0.189 0.696,-0.189c0.262,-0 0.481,0.063 0.657,0.189c0.176,0.127 0.264,0.295 0.264,0.507l0,1.118c0.18,-0.333 0.42,-0.646 0.72,-0.941c0.301,-0.294 0.657,-0.537 1.066,-0.729c0.41,-0.192 0.862,-0.288 1.358,-0.288l0.811,-0c0.209,-0 0.39,0.088 0.543,0.264c0.154,0.176 0.23,0.388 0.23,0.638c0,0.246 -0.076,0.458 -0.23,0.634c-0.153,0.176 -0.334,0.264 -0.543,0.264l-0.811,-0c-0.508,-0 -0.996,0.143 -1.464,0.429c-0.467,0.287 -0.847,0.689 -1.142,1.207c-0.294,0.519 -0.442,1.146 -0.442,1.882l0,5.472c0,0.182 -0.097,0.348 -0.292,0.497c-0.196,0.149 -0.437,0.223 -0.725,0.223Z" style="fill:#231f20;fill-rule:nonzero;"/><path d="M52.392,76.388c-0.89,0 -1.65,-0.26 -2.282,-0.78c-0.632,-0.52 -0.948,-1.319 -0.948,-2.397c-0,-0.887 0.237,-1.572 0.712,-2.057c0.476,-0.485 1.133,-0.822 1.973,-1.011c0.84,-0.188 1.812,-0.283 2.916,-0.283l1.152,0l0,-0.499c0,-0.473 -0.085,-0.937 -0.254,-1.392c-0.17,-0.454 -0.445,-0.831 -0.826,-1.13c-0.381,-0.299 -0.894,-0.449 -1.54,-0.449c-0.56,-0 -1.005,0.057 -1.335,0.17c-0.329,0.114 -0.589,0.232 -0.78,0.353c-0.19,0.122 -0.359,0.183 -0.506,0.183c-0.237,-0 -0.423,-0.116 -0.557,-0.348c-0.135,-0.232 -0.202,-0.459 -0.202,-0.68c0,-0.249 0.177,-0.477 0.531,-0.684c0.353,-0.206 0.793,-0.372 1.32,-0.499c0.526,-0.126 1.052,-0.189 1.577,-0.189c1.12,-0 2.012,0.221 2.678,0.664c0.666,0.443 1.146,1.016 1.442,1.719c0.296,0.702 0.444,1.456 0.444,2.263l0,6.144c0,0.195 -0.09,0.364 -0.271,0.506c-0.181,0.143 -0.415,0.214 -0.703,0.214c-0.253,-0 -0.47,-0.071 -0.651,-0.214c-0.18,-0.142 -0.271,-0.311 -0.271,-0.506l0,-0.96c-0.413,0.477 -0.914,0.906 -1.505,1.289c-0.59,0.382 -1.295,0.573 -2.114,0.573Zm0.629,-1.589c0.467,0 0.921,-0.128 1.361,-0.386c0.44,-0.257 0.805,-0.578 1.096,-0.962c0.292,-0.384 0.437,-0.757 0.437,-1.119l0,-1.248l-0.83,0c-0.669,0 -1.303,0.04 -1.903,0.12c-0.6,0.08 -1.087,0.255 -1.459,0.526c-0.373,0.27 -0.56,0.694 -0.56,1.27c0,0.62 0.18,1.076 0.538,1.365c0.358,0.29 0.798,0.434 1.32,0.434Z" style="fill:#231f20;fill-rule:nonzero;"/><path d="M61.618,76.206c-0.285,-0 -0.52,-0.074 -0.706,-0.223c-0.186,-0.149 -0.278,-0.315 -0.278,-0.497l-0,-9.95c-0,-0.212 0.092,-0.38 0.278,-0.507c0.186,-0.126 0.421,-0.189 0.706,-0.189c0.256,-0 0.472,0.063 0.648,0.189c0.176,0.127 0.264,0.295 0.264,0.507l-0,0.984c0.272,-0.464 0.674,-0.884 1.207,-1.26c0.533,-0.376 1.196,-0.564 1.989,-0.564c0.762,-0 1.432,0.224 2.009,0.672c0.578,0.448 1.006,1.024 1.284,1.728c0.416,-0.816 0.953,-1.42 1.611,-1.812c0.657,-0.392 1.33,-0.588 2.018,-0.588c0.704,-0 1.369,0.179 1.995,0.537c0.625,0.359 1.134,0.88 1.526,1.565c0.392,0.685 0.588,1.52 0.588,2.506l0,6.182c0,0.182 -0.098,0.348 -0.293,0.497c-0.195,0.149 -0.434,0.223 -0.715,0.223c-0.266,-0 -0.496,-0.074 -0.691,-0.223c-0.196,-0.149 -0.293,-0.315 -0.293,-0.497l-0,-6.182c-0,-0.621 -0.124,-1.14 -0.372,-1.556c-0.248,-0.416 -0.566,-0.73 -0.953,-0.943c-0.387,-0.213 -0.784,-0.319 -1.19,-0.319c-0.429,-0 -0.836,0.111 -1.222,0.333c-0.386,0.223 -0.705,0.536 -0.958,0.939c-0.252,0.403 -0.379,0.89 -0.379,1.459l0,6.293c0,0.246 -0.104,0.424 -0.314,0.533c-0.21,0.109 -0.441,0.163 -0.694,0.163c-0.23,-0 -0.452,-0.054 -0.665,-0.163c-0.212,-0.109 -0.319,-0.287 -0.319,-0.533l0,-6.269c0,-0.544 -0.116,-1.022 -0.348,-1.433c-0.232,-0.411 -0.536,-0.732 -0.914,-0.964c-0.378,-0.232 -0.794,-0.348 -1.248,-0.348c-0.419,-0 -0.826,0.109 -1.222,0.328c-0.395,0.219 -0.717,0.535 -0.967,0.948c-0.25,0.413 -0.374,0.924 -0.374,1.532l-0,6.182c-0,0.182 -0.098,0.348 -0.293,0.497c-0.195,0.149 -0.434,0.223 -0.715,0.223Z" style="fill:#231f20;fill-rule:nonzero;"/><path d="M80.467,76.206c-0.285,-0 -0.52,-0.074 -0.705,-0.223c-0.186,-0.149 -0.279,-0.315 -0.279,-0.497l0,-9.95c0,-0.212 0.093,-0.38 0.279,-0.507c0.185,-0.126 0.42,-0.189 0.705,-0.189c0.256,-0 0.472,0.063 0.648,0.189c0.176,0.127 0.264,0.295 0.264,0.507l0,0.984c0.272,-0.464 0.675,-0.884 1.208,-1.26c0.532,-0.376 1.196,-0.564 1.989,-0.564c0.762,-0 1.431,0.224 2.009,0.672c0.577,0.448 1.005,1.024 1.284,1.728c0.416,-0.816 0.953,-1.42 1.61,-1.812c0.658,-0.392 1.331,-0.588 2.019,-0.588c0.704,-0 1.369,0.179 1.994,0.537c0.626,0.359 1.135,0.88 1.527,1.565c0.392,0.685 0.588,1.52 0.588,2.506l-0,6.182c-0,0.182 -0.098,0.348 -0.293,0.497c-0.195,0.149 -0.434,0.223 -0.716,0.223c-0.265,-0 -0.496,-0.074 -0.691,-0.223c-0.195,-0.149 -0.293,-0.315 -0.293,-0.497l0,-6.182c0,-0.621 -0.124,-1.14 -0.372,-1.556c-0.248,-0.416 -0.565,-0.73 -0.952,-0.943c-0.387,-0.213 -0.784,-0.319 -1.191,-0.319c-0.429,-0 -0.836,0.111 -1.221,0.333c-0.386,0.223 -0.705,0.536 -0.958,0.939c-0.253,0.403 -0.379,0.89 -0.379,1.459l-0,6.293c-0,0.246 -0.105,0.424 -0.314,0.533c-0.21,0.109 -0.441,0.163 -0.694,0.163c-0.231,-0 -0.452,-0.054 -0.665,-0.163c-0.213,-0.109 -0.319,-0.287 -0.319,-0.533l-0,-6.269c-0,-0.544 -0.116,-1.022 -0.348,-1.433c-0.232,-0.411 -0.537,-0.732 -0.914,-0.964c-0.378,-0.232 -0.794,-0.348 -1.249,-0.348c-0.419,-0 -0.826,0.109 -1.221,0.328c-0.395,0.219 -0.718,0.535 -0.967,0.948c-0.25,0.413 -0.375,0.924 -0.375,1.532l0,6.182c0,0.182 -0.097,0.348 -0.292,0.497c-0.196,0.149 -0.434,0.223 -0.716,0.223Z" style="fill:#231f20;fill-rule:nonzero;"/></svg>