<?xml version="1.0" encoding="iso-8859-1"?>
<!-- Generator: Adobe Illustrator 18.0.0, SVG Export Plug-In . SVG Version: 6.00 Build 0)  -->
<!DOCTYPE svg PUBLIC "-//W3C//DTD SVG 1.1//EN" "http://www.w3.org/Graphics/SVG/1.1/DTD/svg11.dtd">
<svg version="1.1" id="Capa_1" xmlns="http://www.w3.org/2000/svg" xmlns:xlink="http://www.w3.org/1999/xlink" x="0px" y="0px"
	 viewBox="0 0 297.001 297.001" style="enable-background:new 0 0 297.001 297.001;" xml:space="preserve">
<path d="M236.111,160.088c-12.577-12.577-29.95-18.736-47.428-17.065l74.944-74.944c8.778,3.376,19.127,1.532,26.197-5.539
	c9.568-9.569,9.568-25.138,0-34.706L269.165,7.175c-9.569-9.567-25.137-9.566-34.706,0.001c-4.635,4.635-7.188,10.798-7.188,17.353
	c0,3.077,0.563,6.067,1.639,8.853l-80.41,80.41l-80.419-80.42c3.377-8.78,1.531-19.127-5.539-26.197
	c-9.569-9.569-25.137-9.567-34.706,0L7.176,27.834c-9.568,9.568-9.568,25.137,0.001,34.707c7.069,7.069,17.417,8.914,26.196,5.538
	l74.944,74.943c-17.482-1.674-34.851,4.487-47.428,17.066L7.22,213.758c-9.626,9.626-9.626,25.29,0,34.916l41.107,41.107
	c4.814,4.813,11.136,7.22,17.458,7.22c6.322,0,12.644-2.407,17.458-7.22l53.669-53.67c4.844-4.844,8.735-10.4,11.595-16.398
	c2.858,5.997,6.738,11.555,11.581,16.398l53.669,53.669c4.814,4.813,11.136,7.22,17.458,7.22s12.644-2.407,17.458-7.22
	l41.107-41.107c9.626-9.626,9.626-25.29,0-34.916L236.111,160.088z M34.859,45.584c-2.635,0-5.161,1.047-7.025,2.909
	c-1.82,1.822-4.786,1.823-6.609,0.001c-1.822-1.823-1.823-4.788,0-6.61l20.658-20.658c1.822-1.822,4.787-1.821,6.609-0.001
	c1.822,1.823,1.823,4.788,0,6.61c-3.879,3.879-3.879,10.17,0,14.049l85.958,85.958l-6.609,6.609L41.884,48.493
	C40.02,46.63,37.494,45.584,34.859,45.584z M134.611,168.998c-2.349,2.349-3.368,5.716-2.716,8.973l1.718,8.587
	c2.582,12.917-1.436,26.189-10.75,35.503l-53.669,53.67c-1.88,1.88-4.938,1.88-6.818,0l-41.107-41.107
	c-1.88-1.88-1.88-4.939,0-6.818l53.669-53.669c7.455-7.456,17.444-11.518,27.76-11.518c2.572,0,5.166,0.253,7.743,0.768l8.588,1.717
	c3.258,0.653,6.624-0.368,8.972-2.716L248.507,41.883c3.879-3.879,3.879-10.17,0-14.049c-1.822-1.822-1.822-4.786,0-6.608
	c1.822-1.824,4.787-1.823,6.609-0.001l20.658,20.658c1.823,1.822,1.822,4.787,0.001,6.609c-1.824,1.822-4.788,1.822-6.61,0
	c-1.864-1.863-4.39-2.909-7.025-2.909c-2.635,0-5.161,1.047-7.025,2.909L134.611,168.998z M275.732,234.624l-41.107,41.107
	c-1.88,1.88-4.938,1.88-6.818,0l-53.669-53.669c-9.314-9.314-13.332-22.586-10.75-35.502l1.718-8.588
	c0.637-3.183-0.331-6.464-2.567-8.804l6.629-6.629c2.341,2.235,5.621,3.204,8.804,2.567l8.588-1.718h-0.001
	c12.916-2.579,26.189,1.436,35.503,10.75l53.669,53.669C277.612,229.686,277.612,232.744,275.732,234.624z"/>
<g>
</g>
<g>
</g>
<g>
</g>
<g>
</g>
<g>
</g>
<g>
</g>
<g>
</g>
<g>
</g>
<g>
</g>
<g>
</g>
<g>
</g>
<g>
</g>
<g>
</g>
<g>
</g>
<g>
</g>
</svg>
