<?xml version="1.0" encoding="UTF-8" standalone="no"?><!DOCTYPE svg PUBLIC "-//W3C//DTD SVG 1.1//EN" "http://www.w3.org/Graphics/SVG/1.1/DTD/svg11.dtd"><svg width="100%" height="100%" viewBox="0 0 23 21" version="1.1" xmlns="http://www.w3.org/2000/svg" xmlns:xlink="http://www.w3.org/1999/xlink" xml:space="preserve" xmlns:serif="http://www.serif.com/" style="fill-rule:evenodd;clip-rule:evenodd;stroke-linejoin:round;stroke-miterlimit:2;"><g><path d="M16.784,17.409c2.175,-2.737 1.857,-6.891 -0.88,-9.066l-1.572,1.977c2.183,1.735 2.584,3.632 0.849,5.815l1.603,1.274" style="fill:#00b1e5;"/><path d="M7.752,15.359c1.833,1.456 4.499,1.152 5.956,-0.681l-0.672,-0.534c-1.162,1.461 -2.785,1.071 -4.247,-0.09l-1.037,1.305" style="fill:#00b1e5;"/><path d="M7.082,9.41c-1.457,1.832 -1.152,4.499 0.68,5.955l1.184,-1.488c-1.462,-1.162 -1.358,-1.68 -0.196,-3.141l-1.668,-1.326" style="fill:#00b1e5;"/><path d="M15.973,8.397c-2.737,-2.175 -6.718,-1.72 -8.894,1.017l1.671,1.327c1.734,-2.182 3.472,-2.105 5.654,-0.37l1.569,-1.974" style="fill:#00b1e5;"/><path d="M3.589,18.762c4.102,3.266 10.064,2.579 13.33,-1.523l-1.606,-1.277c-2.605,3.271 -6.479,2.921 -9.751,0.317l-1.973,2.483" style="fill:#00b1e5;"/><path d="M2.062,5.422c-3.263,4.105 -2.58,10.078 1.525,13.341l1.974,-2.483c-3.274,-2.602 -3.018,-5.134 -0.416,-8.408l-3.083,-2.45" style="fill:#00b1e5;"/><path d="M22.022,3.046c-6.183,-4.861 -15.137,-3.789 -19.998,2.394l3.082,2.45c3.877,-4.931 11.985,-8.72 16.916,-4.844" style="fill:#00b1e5;"/><path d="M13.204,10.825c1.221,0.971 1.424,2.75 0.454,3.971c-0.971,1.221 -2.75,1.424 -3.971,0.454c-1.221,-0.971 -1.424,-2.75 -0.454,-3.971c0.971,-1.221 2.75,-1.424 3.971,-0.454Z" style="fill:#00b1e5;"/></g></svg>