<?xml version="1.0" encoding="UTF-8" standalone="no"?><!DOCTYPE svg PUBLIC "-//W3C//DTD SVG 1.1//EN" "http://www.w3.org/Graphics/SVG/1.1/DTD/svg11.dtd"><svg width="100%" height="100%" viewBox="0 0 92 87" version="1.1" xmlns="http://www.w3.org/2000/svg" xmlns:xlink="http://www.w3.org/1999/xlink" xml:space="preserve" xmlns:serif="http://www.serif.com/" style="fill-rule:evenodd;clip-rule:evenodd;stroke-linejoin:round;stroke-miterlimit:2;"><g><path d="M69.717,72.313c9.035,-11.368 7.713,-28.623 -3.654,-37.658l-6.529,8.214c9.065,7.205 10.73,15.087 3.525,24.152l6.658,5.292" style="fill:#00b1e5;"/><path d="M32.2,63.797c7.613,6.05 18.688,4.784 24.739,-2.828l-2.792,-2.219c-4.825,6.071 -11.567,4.451 -17.638,-0.374l-4.309,5.421" style="fill:#00b1e5;"/><path d="M29.415,39.087c-6.05,7.612 -4.784,18.688 2.829,24.738l4.914,-6.184c-6.07,-4.825 -5.637,-6.975 -0.812,-13.046l-6.931,-5.508" style="fill:#00b1e5;"/><path d="M66.349,34.879c-11.368,-9.035 -27.907,-7.144 -36.943,4.223l6.939,5.515c7.205,-9.065 14.422,-8.744 23.487,-1.539l6.517,-8.199" style="fill:#00b1e5;"/><path d="M14.906,77.933c17.04,13.567 41.806,10.714 55.373,-6.326l-6.674,-5.304c-10.819,13.589 -26.912,12.135 -40.501,1.315l-8.198,10.315" style="fill:#00b1e5;"/><path d="M8.566,22.523c-13.553,17.051 -10.717,41.861 6.335,55.413l8.198,-10.314c-13.598,-10.808 -12.537,-21.325 -1.729,-34.923l-12.804,-10.176" style="fill:#00b1e5;"/><path d="M91.476,12.653c-25.685,-20.192 -62.876,-15.739 -83.069,9.946l12.803,10.176c16.103,-20.483 49.783,-36.224 70.266,-20.122" style="fill:#00b1e5;"/><path d="M54.846,44.966c5.072,4.031 5.916,11.421 1.885,16.492c-4.03,5.072 -11.42,5.917 -16.492,1.886c-5.071,-4.031 -5.916,-11.421 -1.885,-16.493c4.031,-5.071 11.421,-5.916 16.492,-1.885Z" style="fill:#00b1e5;"/></g></svg>