<?xml version="1.0" encoding="UTF-8" standalone="no"?><!DOCTYPE svg PUBLIC "-//W3C//DTD SVG 1.1//EN" "http://www.w3.org/Graphics/SVG/1.1/DTD/svg11.dtd"><svg width="100%" height="100%" viewBox="0 0 45 42" version="1.1" xmlns="http://www.w3.org/2000/svg" xmlns:xlink="http://www.w3.org/1999/xlink" xml:space="preserve" xmlns:serif="http://www.serif.com/" style="fill-rule:evenodd;clip-rule:evenodd;stroke-linejoin:round;stroke-miterlimit:2;"><g><path d="M33.61,34.861c4.356,-5.48 3.718,-13.799 -1.762,-18.154l-3.147,3.96c4.37,3.473 5.172,7.273 1.699,11.643l3.21,2.551" style="fill:#00b1e5;"/><path d="M15.523,30.756c3.67,2.917 9.01,2.306 11.926,-1.363l-1.345,-1.07c-2.326,2.926 -5.577,2.145 -8.503,-0.181l-2.078,2.614" style="fill:#00b1e5;"/><path d="M14.181,18.843c-2.917,3.67 -2.307,9.01 1.363,11.926l2.37,-2.981c-2.927,-2.326 -2.718,-3.363 -0.392,-6.289l-3.341,-2.656" style="fill:#00b1e5;"/><path d="M31.986,16.815c-5.48,-4.356 -13.454,-3.444 -17.809,2.036l3.344,2.659c3.474,-4.371 6.953,-4.216 11.324,-0.743l3.141,-3.952" style="fill:#00b1e5;"/><path d="M7.186,37.57c8.215,6.541 20.154,5.166 26.695,-3.049l-3.217,-2.557c-5.216,6.551 -12.975,5.85 -19.526,0.634l-3.952,4.972" style="fill:#00b1e5;"/><path d="M4.13,10.858c-6.534,8.22 -5.167,20.181 3.053,26.714l3.953,-4.972c-6.556,-5.21 -6.044,-10.281 -0.834,-16.836l-6.172,-4.906" style="fill:#00b1e5;"/><path d="M44.1,6.1c-12.383,-9.734 -30.312,-7.588 -40.047,4.795l6.172,4.905c7.763,-9.874 24,-17.463 33.875,-9.7" style="fill:#00b1e5;"/><path d="M26.441,21.678c2.445,1.943 2.852,5.506 0.909,7.95c-1.944,2.445 -5.506,2.853 -7.951,0.909c-2.445,-1.943 -2.852,-5.506 -0.909,-7.95c1.943,-2.445 5.506,-2.853 7.951,-0.909Z" style="fill:#00b1e5;"/></g></svg>