<?xml version="1.0" encoding="UTF-8" standalone="no"?><!DOCTYPE svg PUBLIC "-//W3C//DTD SVG 1.1//EN" "http://www.w3.org/Graphics/SVG/1.1/DTD/svg11.dtd"><svg width="100%" height="100%" viewBox="0 0 4603 4353" version="1.1" xmlns="http://www.w3.org/2000/svg" xmlns:xlink="http://www.w3.org/1999/xlink" xml:space="preserve" xmlns:serif="http://www.serif.com/" style="fill-rule:evenodd;clip-rule:evenodd;stroke-linejoin:round;stroke-miterlimit:2;"><g><path d="M3507.62,3638.24c454.582,-571.93 388.074,-1440.09 -183.856,-1894.68l-328.484,413.281c456.093,362.512 539.856,759.04 177.344,1215.13l334.996,266.262" style="fill:#00b1e5;"/><path d="M1620.07,3209.78c382.989,304.407 940.234,240.704 1244.64,-142.285l-140.452,-111.634c-242.754,305.419 -581.981,223.92 -887.401,-18.834l-216.789,272.753" style="fill:#00b1e5;"/><path d="M1479.96,1966.54c-304.408,382.99 -240.705,940.235 142.285,1244.64l247.278,-311.112c-305.42,-242.753 -283.629,-350.966 -40.875,-656.385l-348.688,-277.145" style="fill:#00b1e5;"/><path d="M3338.17,1754.86c-571.931,-454.582 -1404.08,-359.452 -1858.66,212.479l349.088,277.462c362.512,-456.093 725.622,-439.955 1181.71,-77.443l327.862,-412.498" style="fill:#00b1e5;"/><path d="M749.977,3920.97c857.323,682.592 2103.32,539.078 2785.91,-318.246l-335.75,-266.861c-544.341,683.684 -1354.02,610.514 -2037.71,66.173l-412.459,518.934" style="fill:#00b1e5;"/><path d="M430.971,1133.17c-681.873,857.896 -539.177,2106.12 318.719,2788l412.459,-518.935c-684.14,-543.768 -630.756,-1072.91 -86.988,-1757.05l-644.19,-512.015" style="fill:#00b1e5;"/><path d="M4602.38,636.627c-1292.28,-1015.93 -3163.45,-791.912 -4179.39,500.367l644.14,511.975c810.169,-1030.54 2504.7,-1822.51 3535.25,-1012.34" style="fill:#00b1e5;"/><path d="M2759.44,2262.35c255.155,202.802 297.659,574.606 94.856,829.761c-202.802,255.155 -574.606,297.659 -829.761,94.857c-255.155,-202.802 -297.659,-574.606 -94.857,-829.761c202.803,-255.155 574.606,-297.659 829.762,-94.857Z" style="fill:#00b1e5;"/></g></svg>