<?xml version="1.0" encoding="UTF-8" standalone="no"?><!DOCTYPE svg PUBLIC "-//W3C//DTD SVG 1.1//EN" "http://www.w3.org/Graphics/SVG/1.1/DTD/svg11.dtd"><svg width="100%" height="100%" viewBox="0 0 90 60" version="1.1" xmlns="http://www.w3.org/2000/svg" xmlns:xlink="http://www.w3.org/1999/xlink" xml:space="preserve" xmlns:serif="http://www.serif.com/" style="fill-rule:evenodd;clip-rule:evenodd;stroke-linecap:round;stroke-linejoin:round;stroke-miterlimit:1.5;"><ellipse cx="61.021" cy="28.899" rx="28.511" ry="28.457" style="fill:#941216;"/><path d="M49.119,16.745c24.781,0.006 8.785,0.002 -10.655,-0.002c-15.851,-0.004 -33.991,-0.008 -34.181,-0.008" style="fill:none;stroke:#231f20;stroke-width:3px;"/><path d="M37.854,9.479c7.433,0.002 2.635,0.001 -3.196,-0.001c-4.754,-0.001 -10.195,-0.002 -10.252,-0.002" style="fill:none;stroke:#231f20;stroke-width:5px;"/><path d="M2.508,28.164c-0.015,7.433 -0.006,2.635 0.006,-3.196c0.01,-4.755 0.021,-10.196 0.021,-10.253" style="fill:none;stroke:#231f20;stroke-width:5px;"/><path d="M63.15,28.164c-0.015,7.433 -0.006,2.635 0.006,-3.196c0.01,-4.755 0.021,-10.196 0.021,-10.253" style="fill:none;stroke:#231f20;stroke-width:5px;"/><path d="M49.119,36.671c24.781,0.006 8.785,0.002 -10.655,-0.002c-15.851,-0.004 -33.991,-0.008 -34.181,-0.008" style="fill:none;stroke:#231f20;stroke-width:3px;"/><circle cx="16.303" cy="42.732" r="2.95" style="fill:#fff;stroke:#fff;stroke-width:2px;stroke-linejoin:miter;"/><circle cx="50.95" cy="42.732" r="2.95" style="fill:#fff;stroke:#fff;stroke-width:2px;stroke-linejoin:miter;"/><path d="M61.772,13.351l0,35.553l-57.489,0l0,-35.553c0,-6.541 5.31,-11.851 11.851,-11.851l33.787,0c6.541,0 11.851,5.31 11.851,11.851Z" style="fill:none;stroke:#231f20;stroke-width:3px;"/><path d="M18.418,51.221l0,3.123c0,0.614 -0.498,1.113 -1.113,1.113l-2.226,-0c-0.614,-0 -1.113,-0.499 -1.113,-1.113l-0,-3.123c-0,-0.615 0.499,-1.113 1.113,-1.113l2.226,-0c0.615,-0 1.113,0.498 1.113,1.113Z" style="fill:none;stroke:#231f20;stroke-width:5px;stroke-linejoin:miter;"/><path d="M53.345,51.221l0,3.123c0,0.614 -0.499,1.113 -1.113,1.113l-2.226,-0c-0.615,-0 -1.113,-0.499 -1.113,-1.113l-0,-3.123c-0,-0.615 0.498,-1.113 1.113,-1.113l2.226,-0c0.614,-0 1.113,0.498 1.113,1.113Z" style="fill:none;stroke:#231f20;stroke-width:5px;stroke-linejoin:miter;"/></svg>