<?xml version="1.0" encoding="UTF-8" standalone="no"?><!DOCTYPE svg PUBLIC "-//W3C//DTD SVG 1.1//EN" "http://www.w3.org/Graphics/SVG/1.1/DTD/svg11.dtd"><svg width="100%" height="100%" viewBox="0 0 99 84" version="1.1" xmlns="http://www.w3.org/2000/svg" xmlns:xlink="http://www.w3.org/1999/xlink" xml:space="preserve" xmlns:serif="http://www.serif.com/" style="fill-rule:evenodd;clip-rule:evenodd;stroke-linecap:round;stroke-linejoin:round;stroke-miterlimit:1.5;"><ellipse cx="69.77" cy="32.739" rx="28.511" ry="28.457" style="fill:#941216;"/><path d="M81.148,16.745c24.78,0.006 8.784,0.002 -10.655,-0.002c-15.851,-0.004 -33.991,-0.008 -34.181,-0.008" style="fill:none;stroke:#231f20;stroke-width:3px;"/><path d="M69.883,9.479c7.433,0.002 2.635,0.001 -3.196,-0.001c-4.755,-0.001 -10.196,-0.002 -10.253,-0.002" style="fill:none;stroke:#231f20;stroke-width:5px;"/><path d="M34.536,28.164c-0.015,7.433 -0.005,2.635 0.007,-3.196c0.009,-4.755 0.02,-10.196 0.02,-10.253" style="fill:none;stroke:#231f20;stroke-width:5px;"/><path d="M95.178,28.164c-0.015,7.433 -0.005,2.635 0.007,-3.196c0.009,-4.755 0.02,-10.196 0.021,-10.253" style="fill:none;stroke:#231f20;stroke-width:5px;"/><path d="M81.148,36.671c24.78,0.006 8.784,0.002 -10.655,-0.002c-15.851,-0.004 -33.991,-0.008 -34.181,-0.008" style="fill:none;stroke:#231f20;stroke-width:3px;"/><circle cx="48.332" cy="42.732" r="2.95" style="fill:#fff;stroke:#fff;stroke-width:2px;stroke-linejoin:miter;"/><circle cx="82.978" cy="42.732" r="2.95" style="fill:#fff;stroke:#fff;stroke-width:2px;stroke-linejoin:miter;"/><path d="M93.8,13.351l0,35.553l-57.488,0l-0,-35.553c-0,-6.541 5.31,-11.851 11.851,-11.851l33.786,0c6.541,0 11.851,5.31 11.851,11.851Z" style="fill:none;stroke:#231f20;stroke-width:3px;"/><path d="M50.447,51.221l-0,3.123c-0,0.614 -0.499,1.113 -1.113,1.113l-2.227,-0c-0.614,-0 -1.113,-0.499 -1.113,-1.113l0,-3.123c0,-0.615 0.499,-1.113 1.113,-1.113l2.227,-0c0.614,-0 1.113,0.498 1.113,1.113Z" style="fill:none;stroke:#231f20;stroke-width:5px;stroke-linejoin:miter;"/><path d="M85.373,51.221l0,3.123c0,0.614 -0.498,1.113 -1.113,1.113l-2.226,-0c-0.614,-0 -1.113,-0.499 -1.113,-1.113l-0,-3.123c-0,-0.615 0.499,-1.113 1.113,-1.113l2.226,-0c0.615,-0 1.113,0.498 1.113,1.113Z" style="fill:none;stroke:#231f20;stroke-width:5px;stroke-linejoin:miter;"/><path d="M5.607,78.183c-0.253,0 -0.484,-0.06 -0.694,-0.18c-0.21,-0.12 -0.314,-0.3 -0.314,-0.54l-0,-14.961l-3.888,0c-0.218,0 -0.391,-0.095 -0.519,-0.286c-0.128,-0.19 -0.192,-0.409 -0.192,-0.655c-0,-0.227 0.059,-0.437 0.178,-0.631c0.118,-0.194 0.296,-0.291 0.533,-0.291l9.777,0c0.247,0 0.427,0.095 0.54,0.284c0.114,0.188 0.171,0.396 0.171,0.624c-0,0.246 -0.058,0.467 -0.173,0.662c-0.116,0.195 -0.295,0.293 -0.538,0.293l-3.873,0l-0,14.961c-0,0.24 -0.105,0.42 -0.315,0.54c-0.209,0.12 -0.441,0.18 -0.693,0.18Z" style="fill:#231f20;fill-rule:nonzero;"/><path d="M11.679,78.183c-0.279,0 -0.511,-0.074 -0.696,-0.223c-0.186,-0.148 -0.279,-0.314 -0.279,-0.497l0,-9.95c0,-0.211 0.093,-0.38 0.279,-0.506c0.185,-0.127 0.417,-0.19 0.696,-0.19c0.262,0 0.481,0.063 0.657,0.19c0.176,0.126 0.264,0.295 0.264,0.506l0,1.118c0.179,-0.332 0.419,-0.646 0.72,-0.94c0.301,-0.295 0.656,-0.538 1.066,-0.73c0.409,-0.192 0.862,-0.288 1.358,-0.288l0.811,0c0.209,0 0.389,0.088 0.543,0.264c0.153,0.176 0.23,0.389 0.23,0.638c0,0.247 -0.077,0.458 -0.23,0.634c-0.154,0.176 -0.334,0.264 -0.543,0.264l-0.811,0c-0.509,0 -0.997,0.143 -1.464,0.43c-0.467,0.286 -0.848,0.689 -1.142,1.207c-0.295,0.518 -0.442,1.145 -0.442,1.881l0,5.472c0,0.183 -0.097,0.349 -0.293,0.497c-0.195,0.149 -0.436,0.223 -0.724,0.223Z" style="fill:#231f20;fill-rule:nonzero;"/><path d="M20.722,78.366c-0.89,-0 -1.65,-0.26 -2.282,-0.78c-0.632,-0.52 -0.948,-1.319 -0.948,-2.398c-0,-0.886 0.237,-1.572 0.712,-2.057c0.475,-0.484 1.133,-0.821 1.973,-1.01c0.84,-0.189 1.812,-0.283 2.916,-0.283l1.152,-0l-0,-0.499c-0,-0.474 -0.085,-0.938 -0.254,-1.392c-0.17,-0.455 -0.445,-0.831 -0.826,-1.131c-0.381,-0.299 -0.894,-0.449 -1.541,-0.449c-0.56,0 -1.004,0.057 -1.334,0.171c-0.33,0.114 -0.59,0.231 -0.78,0.353c-0.19,0.121 -0.359,0.182 -0.506,0.182c-0.237,0 -0.423,-0.116 -0.557,-0.348c-0.135,-0.232 -0.202,-0.458 -0.202,-0.679c-0,-0.25 0.177,-0.478 0.53,-0.684c0.354,-0.206 0.794,-0.373 1.32,-0.499c0.527,-0.127 1.052,-0.19 1.577,-0.19c1.12,0 2.013,0.222 2.679,0.665c0.665,0.443 1.146,1.016 1.442,1.718c0.296,0.703 0.444,1.457 0.444,2.263l0,6.144c0,0.196 -0.09,0.365 -0.271,0.507c-0.181,0.142 -0.415,0.213 -0.703,0.213c-0.253,0 -0.47,-0.071 -0.651,-0.213c-0.181,-0.142 -0.271,-0.311 -0.271,-0.507l-0,-0.96c-0.413,0.477 -0.914,0.907 -1.505,1.289c-0.59,0.383 -1.295,0.574 -2.114,0.574Zm0.629,-1.589c0.467,-0 0.921,-0.129 1.361,-0.386c0.44,-0.258 0.805,-0.579 1.096,-0.963c0.291,-0.384 0.437,-0.757 0.437,-1.118l-0,-1.248l-0.83,-0c-0.669,-0 -1.303,0.04 -1.903,0.12c-0.6,0.08 -1.087,0.255 -1.46,0.525c-0.372,0.271 -0.559,0.694 -0.559,1.27c0,0.621 0.179,1.076 0.538,1.366c0.358,0.289 0.798,0.434 1.32,0.434Z" style="fill:#231f20;fill-rule:nonzero;"/><path d="M29.947,78.183c-0.284,0 -0.52,-0.074 -0.705,-0.223c-0.186,-0.148 -0.279,-0.314 -0.279,-0.497l0,-9.95c0,-0.211 0.093,-0.38 0.279,-0.506c0.185,-0.127 0.421,-0.19 0.705,-0.19c0.256,0 0.472,0.063 0.648,0.19c0.176,0.126 0.264,0.295 0.264,0.506l0,0.984c0.253,-0.464 0.653,-0.884 1.198,-1.26c0.546,-0.376 1.218,-0.564 2.018,-0.564c0.765,0 1.468,0.209 2.108,0.626c0.64,0.418 1.153,0.973 1.538,1.666c0.386,0.693 0.578,1.465 0.578,2.316l0,6.182c0,0.24 -0.104,0.42 -0.314,0.54c-0.21,0.12 -0.441,0.18 -0.694,0.18c-0.23,0 -0.451,-0.06 -0.664,-0.18c-0.213,-0.12 -0.32,-0.3 -0.32,-0.54l0,-6.182c0,-0.477 -0.124,-0.928 -0.372,-1.354c-0.248,-0.425 -0.578,-0.774 -0.991,-1.046c-0.412,-0.272 -0.87,-0.408 -1.373,-0.408c-0.428,0 -0.844,0.113 -1.245,0.339c-0.402,0.225 -0.731,0.544 -0.987,0.957c-0.256,0.413 -0.384,0.917 -0.384,1.512l0,6.182c0,0.183 -0.097,0.349 -0.292,0.497c-0.195,0.149 -0.434,0.223 -0.716,0.223Z" style="fill:#231f20;fill-rule:nonzero;"/><path d="M44.28,78.366c-0.765,-0 -1.442,-0.097 -2.032,-0.291c-0.591,-0.193 -1.054,-0.429 -1.39,-0.708c-0.336,-0.278 -0.504,-0.552 -0.504,-0.82c-0,-0.125 0.03,-0.256 0.091,-0.392c0.061,-0.136 0.145,-0.254 0.252,-0.355c0.107,-0.101 0.223,-0.151 0.348,-0.151c0.189,-0 0.394,0.092 0.617,0.276c0.222,0.184 0.529,0.369 0.919,0.554c0.391,0.186 0.939,0.279 1.646,0.279c0.861,-0 1.457,-0.155 1.786,-0.463c0.33,-0.309 0.494,-0.659 0.494,-1.049c0,-0.483 -0.14,-0.858 -0.422,-1.126c-0.281,-0.267 -0.646,-0.477 -1.094,-0.629c-0.448,-0.152 -0.922,-0.298 -1.421,-0.439c-0.499,-0.14 -0.973,-0.319 -1.421,-0.535c-0.448,-0.216 -0.813,-0.52 -1.094,-0.912c-0.282,-0.392 -0.423,-0.919 -0.423,-1.582c0,-0.524 0.131,-1.044 0.392,-1.56c0.26,-0.515 0.678,-0.942 1.252,-1.281c0.575,-0.339 1.339,-0.509 2.292,-0.509c0.57,0 1.112,0.06 1.628,0.18c0.515,0.12 0.937,0.279 1.267,0.475c0.329,0.197 0.494,0.411 0.494,0.641c0,0.093 -0.033,0.219 -0.098,0.379c-0.066,0.16 -0.156,0.302 -0.269,0.425c-0.114,0.123 -0.252,0.185 -0.415,0.185c-0.141,0 -0.325,-0.058 -0.552,-0.173c-0.227,-0.115 -0.506,-0.228 -0.835,-0.338c-0.33,-0.111 -0.725,-0.166 -1.186,-0.166c-0.531,0 -0.957,0.091 -1.277,0.271c-0.32,0.181 -0.552,0.397 -0.696,0.648c-0.144,0.252 -0.216,0.499 -0.216,0.742c0,0.406 0.141,0.72 0.423,0.941c0.281,0.22 0.648,0.4 1.099,0.537c0.451,0.138 0.926,0.277 1.425,0.418c0.5,0.141 0.975,0.334 1.426,0.578c0.451,0.245 0.818,0.583 1.099,1.013c0.282,0.43 0.423,1.007 0.423,1.73c-0,0.976 -0.351,1.755 -1.052,2.336c-0.7,0.58 -1.693,0.871 -2.976,0.871Z" style="fill:#231f20;fill-rule:nonzero;"/><path d="M51.505,83.679c-0.279,0 -0.511,-0.074 -0.697,-0.223c-0.185,-0.148 -0.278,-0.314 -0.278,-0.497l-0,-15.446c-0,-0.211 0.093,-0.38 0.278,-0.506c0.186,-0.127 0.412,-0.19 0.677,-0.19c0.275,0 0.501,0.063 0.677,0.19c0.176,0.126 0.264,0.295 0.264,0.506l-0,0.984c0.272,-0.464 0.682,-0.884 1.231,-1.26c0.549,-0.376 1.214,-0.564 1.995,-0.564c0.796,0 1.521,0.209 2.174,0.626c0.653,0.418 1.172,0.973 1.558,1.666c0.385,0.693 0.578,1.465 0.578,2.316l-0,2.429c-0,0.803 -0.194,1.561 -0.583,2.275c-0.389,0.714 -0.904,1.289 -1.546,1.726c-0.641,0.436 -1.343,0.655 -2.104,0.655c-0.724,-0 -1.376,-0.187 -1.956,-0.559c-0.581,-0.373 -0.998,-0.808 -1.251,-1.304l-0,6.456c-0,0.183 -0.098,0.349 -0.293,0.497c-0.195,0.149 -0.436,0.223 -0.724,0.223Zm3.724,-7.113c0.493,-0 0.946,-0.136 1.359,-0.408c0.412,-0.272 0.746,-0.629 1,-1.071c0.255,-0.441 0.382,-0.9 0.382,-1.377l-0,-2.429c-0,-0.477 -0.126,-0.928 -0.377,-1.354c-0.251,-0.425 -0.586,-0.774 -1.005,-1.046c-0.42,-0.272 -0.884,-0.408 -1.392,-0.408c-0.442,0 -0.867,0.113 -1.275,0.339c-0.408,0.225 -0.743,0.544 -1.005,0.957c-0.263,0.413 -0.394,0.917 -0.394,1.512l-0,3.086c-0,0.215 0.117,0.497 0.35,0.845c0.234,0.349 0.556,0.662 0.968,0.939c0.411,0.276 0.874,0.415 1.389,0.415Z" style="fill:#231f20;fill-rule:nonzero;"/><path d="M66.654,78.366c-0.836,-0 -1.615,-0.218 -2.336,-0.653c-0.72,-0.434 -1.298,-1.006 -1.734,-1.714c-0.436,-0.707 -0.654,-1.471 -0.654,-2.289l-0,-2.429c-0,-0.82 0.213,-1.58 0.638,-2.281c0.426,-0.7 1,-1.263 1.722,-1.689c0.723,-0.425 1.512,-0.638 2.368,-0.638c0.854,0 1.642,0.209 2.363,0.627c0.72,0.419 1.299,0.973 1.735,1.664c0.436,0.691 0.654,1.464 0.654,2.317l-0,2.429c-0,0.8 -0.218,1.558 -0.655,2.273c-0.437,0.715 -1.016,1.291 -1.738,1.728c-0.721,0.436 -1.509,0.655 -2.363,0.655Zm0.002,-1.8c0.513,-0 0.976,-0.136 1.389,-0.407c0.412,-0.271 0.744,-0.627 0.996,-1.066c0.251,-0.439 0.377,-0.9 0.377,-1.383l-0,-2.429c-0,-0.477 -0.123,-0.928 -0.37,-1.354c-0.246,-0.425 -0.578,-0.774 -0.994,-1.046c-0.417,-0.272 -0.882,-0.408 -1.395,-0.408c-0.513,0 -0.975,0.136 -1.387,0.407c-0.411,0.271 -0.739,0.62 -0.984,1.046c-0.244,0.426 -0.366,0.877 -0.366,1.355l-0,2.429c-0,0.483 0.122,0.944 0.366,1.383c0.244,0.439 0.574,0.795 0.991,1.066c0.417,0.271 0.876,0.407 1.377,0.407Z" style="fill:#231f20;fill-rule:nonzero;"/><path d="M74.775,78.183c-0.279,0 -0.511,-0.074 -0.696,-0.223c-0.186,-0.148 -0.279,-0.314 -0.279,-0.497l0,-9.95c0,-0.211 0.093,-0.38 0.279,-0.506c0.185,-0.127 0.417,-0.19 0.696,-0.19c0.262,0 0.481,0.063 0.657,0.19c0.176,0.126 0.264,0.295 0.264,0.506l0,1.118c0.18,-0.332 0.42,-0.646 0.721,-0.94c0.3,-0.295 0.656,-0.538 1.065,-0.73c0.41,-0.192 0.862,-0.288 1.358,-0.288l0.811,0c0.209,0 0.39,0.088 0.543,0.264c0.154,0.176 0.23,0.389 0.23,0.638c0,0.247 -0.076,0.458 -0.23,0.634c-0.153,0.176 -0.334,0.264 -0.543,0.264l-0.811,0c-0.508,0 -0.996,0.143 -1.463,0.43c-0.468,0.286 -0.848,0.689 -1.143,1.207c-0.294,0.518 -0.442,1.145 -0.442,1.881l0,5.472c0,0.183 -0.097,0.349 -0.292,0.497c-0.195,0.149 -0.437,0.223 -0.725,0.223Z" style="fill:#231f20;fill-rule:nonzero;"/><path d="M85.954,78.183c-1.29,0 -2.276,-0.288 -2.959,-0.864c-0.683,-0.576 -1.025,-1.496 -1.025,-2.76l-0,-12.36c-0,-0.211 0.106,-0.38 0.319,-0.506c0.213,-0.126 0.435,-0.19 0.665,-0.19c0.253,0 0.484,0.064 0.694,0.19c0.209,0.126 0.314,0.295 0.314,0.506l-0,4.618l3.029,0c0.189,0 0.337,0.08 0.446,0.24c0.109,0.16 0.164,0.343 0.164,0.547c-0,0.202 -0.055,0.381 -0.164,0.538c-0.109,0.157 -0.257,0.235 -0.446,0.235l-3.029,0l-0,6.182c-0,0.688 0.149,1.172 0.446,1.452c0.298,0.28 0.813,0.42 1.546,0.42l0.744,0c0.285,0 0.503,0.088 0.653,0.262c0.15,0.174 0.226,0.377 0.226,0.607c-0,0.228 -0.076,0.432 -0.226,0.612c-0.15,0.181 -0.368,0.271 -0.653,0.271l-0.744,0Z" style="fill:#231f20;fill-rule:nonzero;"/><path d="M94.085,78.366c-1.04,-0 -1.961,-0.195 -2.762,-0.586c-0.802,-0.39 -1.431,-0.933 -1.889,-1.629c-0.457,-0.696 -0.686,-1.51 -0.686,-2.441l-0,-2.501c-0,-0.819 0.217,-1.573 0.65,-2.263c0.434,-0.69 1.011,-1.241 1.733,-1.654c0.721,-0.412 1.517,-0.619 2.388,-0.619c0.822,0 1.583,0.19 2.282,0.569c0.699,0.379 1.263,0.899 1.69,1.56c0.427,0.661 0.641,1.423 0.641,2.287c-0,0.634 -0.104,1.09 -0.312,1.368c-0.208,0.278 -0.473,0.449 -0.795,0.511c-0.321,0.063 -0.661,0.094 -1.02,0.094l-5.265,-0l-0,0.734c-0,0.89 0.32,1.596 0.96,2.119c0.64,0.524 1.457,0.785 2.452,0.785c0.602,0 1.079,-0.08 1.431,-0.242c0.352,-0.162 0.638,-0.319 0.857,-0.473c0.219,-0.154 0.423,-0.23 0.612,-0.23c0.163,-0 0.305,0.052 0.427,0.158c0.121,0.106 0.215,0.229 0.281,0.37c0.065,0.14 0.098,0.268 0.098,0.384c0,0.208 -0.153,0.446 -0.458,0.715c-0.306,0.269 -0.74,0.5 -1.303,0.693c-0.564,0.194 -1.234,0.291 -2.012,0.291Zm-3.345,-6.643l4.43,-0c0.426,-0 0.71,-0.05 0.852,-0.149c0.143,-0.099 0.214,-0.304 0.214,-0.615c-0,-0.473 -0.118,-0.916 -0.353,-1.329c-0.235,-0.413 -0.559,-0.746 -0.972,-0.999c-0.413,-0.252 -0.886,-0.379 -1.421,-0.379c-0.499,0 -0.958,0.117 -1.375,0.351c-0.418,0.233 -0.751,0.547 -1.001,0.94c-0.249,0.394 -0.374,0.837 -0.374,1.33l-0,0.85Z" style="fill:#231f20;fill-rule:nonzero;"/></svg>