<?xml version="1.0" encoding="UTF-8" standalone="no"?><!DOCTYPE svg PUBLIC "-//W3C//DTD SVG 1.1//EN" "http://www.w3.org/Graphics/SVG/1.1/DTD/svg11.dtd"><svg width="100%" height="100%" viewBox="0 0 103 76" version="1.1" xmlns="http://www.w3.org/2000/svg" xmlns:xlink="http://www.w3.org/1999/xlink" xml:space="preserve" xmlns:serif="http://www.serif.com/" style="fill-rule:evenodd;clip-rule:evenodd;stroke-linecap:round;stroke-linejoin:round;stroke-miterlimit:1.5;"><ellipse cx="73.884" cy="28.457" rx="28.511" ry="28.457" style="fill:#941216;"/><path d="M70.861,4.383l21.624,47.324l-43.249,0l21.625,-47.324Z" style="fill:#fff;stroke:#231f20;stroke-width:3px;"/><path d="M70.861,41.292c-0,37.033 -0,-36.56 -0,-36.909" style="fill:none;stroke:#231f20;stroke-width:3px;"/><path d="M62.363,4.381c30.213,0.007 -29.827,-0.006 -30.112,-0.007" style="fill:none;stroke:#231f20;stroke-width:3px;"/><path d="M39.329,51.705c35.223,0.008 -34.774,-0.008 -35.105,-0.008" style="fill:none;stroke:#231f20;stroke-width:3px;"/><path d="M26.083,14.801c21.932,-37.031 -21.653,36.558 -21.859,36.906" style="fill:none;stroke:#231f20;stroke-width:3px;"/><path d="M5.225,75.436c-0.981,0 -1.865,-0.172 -2.652,-0.516c-0.787,-0.344 -1.413,-0.897 -1.877,-1.661c-0.464,-0.764 -0.696,-1.782 -0.696,-3.055l-0,-11.76c-0,-0.245 0.103,-0.423 0.308,-0.532c0.205,-0.109 0.439,-0.164 0.7,-0.164c0.253,0 0.484,0.055 0.694,0.164c0.209,0.109 0.314,0.287 0.314,0.532l-0,11.76c-0,1.163 0.283,2.022 0.848,2.576c0.565,0.555 1.352,0.832 2.362,0.832c1.009,0 1.799,-0.277 2.37,-0.832c0.571,-0.554 0.857,-1.413 0.857,-2.576l-0,-11.76c-0,-0.245 0.103,-0.423 0.308,-0.532c0.205,-0.109 0.439,-0.164 0.7,-0.164c0.253,0 0.484,0.055 0.693,0.164c0.21,0.109 0.315,0.287 0.315,0.532l-0,11.76c-0,1.273 -0.232,2.291 -0.696,3.055c-0.464,0.764 -1.093,1.317 -1.887,1.661c-0.793,0.344 -1.68,0.516 -2.661,0.516Z" style="fill:#231f20;fill-rule:nonzero;"/><path d="M14.299,75.292c-0.285,0 -0.52,-0.074 -0.705,-0.223c-0.186,-0.149 -0.279,-0.314 -0.279,-0.497l0,-9.95c0,-0.211 0.093,-0.38 0.279,-0.506c0.185,-0.127 0.42,-0.19 0.705,-0.19c0.256,0 0.472,0.063 0.648,0.19c0.176,0.126 0.264,0.295 0.264,0.506l0,0.984c0.253,-0.464 0.652,-0.884 1.198,-1.26c0.545,-0.376 1.218,-0.564 2.018,-0.564c0.765,0 1.468,0.209 2.108,0.626c0.64,0.418 1.152,0.973 1.538,1.666c0.385,0.693 0.578,1.465 0.578,2.316l0,6.182c0,0.24 -0.105,0.42 -0.314,0.54c-0.21,0.12 -0.441,0.18 -0.694,0.18c-0.23,0 -0.452,-0.06 -0.664,-0.18c-0.213,-0.12 -0.32,-0.3 -0.32,-0.54l0,-6.182c0,-0.477 -0.124,-0.928 -0.372,-1.354c-0.248,-0.425 -0.578,-0.774 -0.991,-1.046c-0.413,-0.272 -0.87,-0.408 -1.373,-0.408c-0.429,0 -0.844,0.113 -1.245,0.339c-0.402,0.225 -0.731,0.544 -0.987,0.957c-0.256,0.413 -0.384,0.917 -0.384,1.512l0,6.182c0,0.183 -0.097,0.348 -0.292,0.497c-0.196,0.149 -0.434,0.223 -0.716,0.223Z" style="fill:#231f20;fill-rule:nonzero;"/><path d="M29.304,75.292c-1.289,0 -2.276,-0.288 -2.959,-0.864c-0.683,-0.576 -1.025,-1.496 -1.025,-2.76l0,-12.36c0,-0.211 0.107,-0.38 0.319,-0.506c0.213,-0.126 0.435,-0.19 0.665,-0.19c0.253,0 0.484,0.064 0.694,0.19c0.209,0.126 0.314,0.295 0.314,0.506l0,4.618l3.029,0c0.189,0 0.338,0.08 0.446,0.24c0.109,0.16 0.164,0.342 0.164,0.547c-0,0.202 -0.055,0.381 -0.164,0.538c-0.108,0.157 -0.257,0.235 -0.446,0.235l-3.029,0l0,6.182c0,0.688 0.149,1.172 0.447,1.452c0.297,0.28 0.812,0.42 1.545,0.42l0.744,0c0.285,0 0.503,0.088 0.653,0.262c0.151,0.174 0.226,0.377 0.226,0.607c-0,0.227 -0.075,0.431 -0.226,0.612c-0.15,0.181 -0.368,0.271 -0.653,0.271l-0.744,0Z" style="fill:#231f20;fill-rule:nonzero;"/><path d="M37.435,75.475c-1.04,-0 -1.96,-0.196 -2.762,-0.586c-0.802,-0.39 -1.431,-0.934 -1.889,-1.63c-0.457,-0.696 -0.686,-1.509 -0.686,-2.44l-0,-2.501c-0,-0.819 0.217,-1.574 0.65,-2.263c0.434,-0.69 1.011,-1.241 1.733,-1.654c0.722,-0.413 1.518,-0.619 2.388,-0.619c0.822,0 1.583,0.19 2.282,0.569c0.7,0.379 1.263,0.899 1.69,1.56c0.427,0.661 0.641,1.423 0.641,2.287c-0,0.634 -0.104,1.09 -0.312,1.368c-0.208,0.278 -0.473,0.449 -0.794,0.511c-0.322,0.062 -0.662,0.094 -1.021,0.094l-5.265,-0l-0,0.734c-0,0.89 0.32,1.596 0.96,2.119c0.64,0.524 1.457,0.785 2.452,0.785c0.602,0 1.079,-0.081 1.431,-0.242c0.352,-0.162 0.638,-0.319 0.857,-0.473c0.219,-0.154 0.423,-0.231 0.612,-0.231c0.163,0 0.305,0.053 0.427,0.159c0.122,0.106 0.215,0.229 0.281,0.369c0.065,0.141 0.098,0.269 0.098,0.384c0,0.208 -0.153,0.447 -0.458,0.716c-0.306,0.269 -0.74,0.5 -1.303,0.693c-0.563,0.194 -1.234,0.291 -2.012,0.291Zm-3.345,-6.644l4.43,0c0.426,0 0.71,-0.049 0.852,-0.148c0.143,-0.099 0.214,-0.304 0.214,-0.615c-0,-0.473 -0.118,-0.916 -0.353,-1.329c-0.235,-0.413 -0.559,-0.746 -0.972,-0.999c-0.413,-0.252 -0.886,-0.379 -1.421,-0.379c-0.499,0 -0.957,0.117 -1.375,0.351c-0.417,0.233 -0.751,0.547 -1.001,0.94c-0.249,0.394 -0.374,0.837 -0.374,1.33l-0,0.849Z" style="fill:#231f20;fill-rule:nonzero;"/><path d="M44.66,75.292c-0.279,0 -0.511,-0.074 -0.697,-0.223c-0.185,-0.149 -0.278,-0.314 -0.278,-0.497l-0,-9.95c-0,-0.211 0.093,-0.38 0.278,-0.506c0.186,-0.127 0.418,-0.19 0.697,-0.19c0.262,0 0.481,0.063 0.657,0.19c0.176,0.126 0.264,0.295 0.264,0.506l-0,1.118c0.179,-0.332 0.419,-0.646 0.72,-0.94c0.301,-0.295 0.656,-0.538 1.066,-0.73c0.409,-0.192 0.862,-0.288 1.358,-0.288l0.811,0c0.208,0 0.389,0.088 0.543,0.264c0.153,0.176 0.23,0.389 0.23,0.638c-0,0.247 -0.077,0.458 -0.23,0.634c-0.154,0.176 -0.335,0.264 -0.543,0.264l-0.811,0c-0.509,0 -0.997,0.143 -1.464,0.43c-0.467,0.286 -0.848,0.688 -1.142,1.207c-0.295,0.518 -0.442,1.145 -0.442,1.881l-0,5.472c-0,0.183 -0.098,0.348 -0.293,0.497c-0.195,0.149 -0.436,0.223 -0.724,0.223Z" style="fill:#231f20;fill-rule:nonzero;"/><path d="M52.901,75.292c-0.278,0 -0.51,-0.074 -0.696,-0.223c-0.186,-0.149 -0.278,-0.314 -0.278,-0.497l-0,-16.824c-0,-0.211 0.092,-0.38 0.278,-0.506c0.186,-0.126 0.418,-0.19 0.696,-0.19c0.288,0 0.53,0.064 0.725,0.19c0.195,0.126 0.293,0.295 0.293,0.506l-0,11.223l5.481,-4.93c0.135,-0.115 0.279,-0.173 0.432,-0.173c0.157,0 0.311,0.044 0.461,0.132c0.15,0.088 0.277,0.204 0.379,0.346c0.103,0.142 0.154,0.297 0.154,0.463c0,0.083 -0.014,0.167 -0.043,0.25c-0.029,0.083 -0.082,0.158 -0.159,0.225l-3.336,2.957l3.979,5.774c0.08,0.122 0.12,0.247 0.12,0.375c0,0.154 -0.056,0.31 -0.168,0.468c-0.112,0.158 -0.252,0.286 -0.422,0.384c-0.17,0.098 -0.339,0.146 -0.509,0.146c-0.23,0 -0.416,-0.104 -0.557,-0.312l-3.811,-5.592l-2.001,1.776l-0,3.312c-0,0.183 -0.098,0.348 -0.293,0.497c-0.195,0.149 -0.437,0.223 -0.725,0.223Z" style="fill:#231f20;fill-rule:nonzero;"/><path d="M67.733,75.475c-0.87,-0 -1.666,-0.215 -2.388,-0.644c-0.721,-0.428 -1.297,-0.996 -1.725,-1.703c-0.429,-0.707 -0.644,-1.461 -0.644,-2.261l0,-6.221c0,-0.182 0.1,-0.348 0.3,-0.497c0.2,-0.149 0.435,-0.223 0.704,-0.223c0.268,0 0.5,0.074 0.696,0.223c0.195,0.149 0.292,0.315 0.292,0.497l0,6.221c0,0.477 0.124,0.928 0.37,1.354c0.246,0.425 0.578,0.774 0.995,1.046c0.416,0.272 0.881,0.408 1.394,0.408c0.513,-0 0.976,-0.134 1.389,-0.401c0.412,-0.267 0.74,-0.616 0.984,-1.047c0.243,-0.431 0.364,-0.884 0.364,-1.36l0,-6.245c0,-0.191 0.103,-0.355 0.307,-0.491c0.204,-0.137 0.437,-0.205 0.697,-0.205c0.297,0 0.536,0.068 0.717,0.205c0.181,0.136 0.271,0.3 0.271,0.491l0,6.245c0,0.82 -0.214,1.58 -0.643,2.28c-0.429,0.701 -1.003,1.264 -1.722,1.689c-0.72,0.426 -1.506,0.639 -2.358,0.639Z" style="fill:#231f20;fill-rule:nonzero;"/><path d="M76.157,75.292c-0.285,0 -0.52,-0.074 -0.705,-0.223c-0.186,-0.149 -0.279,-0.314 -0.279,-0.497l0,-9.95c0,-0.211 0.093,-0.38 0.279,-0.506c0.185,-0.127 0.42,-0.19 0.705,-0.19c0.256,0 0.472,0.063 0.648,0.19c0.176,0.126 0.264,0.295 0.264,0.506l0,0.984c0.253,-0.464 0.652,-0.884 1.198,-1.26c0.545,-0.376 1.218,-0.564 2.018,-0.564c0.765,0 1.468,0.209 2.108,0.626c0.64,0.418 1.152,0.973 1.538,1.666c0.385,0.693 0.578,1.465 0.578,2.316l0,6.182c0,0.24 -0.105,0.42 -0.314,0.54c-0.21,0.12 -0.441,0.18 -0.694,0.18c-0.23,0 -0.452,-0.06 -0.665,-0.18c-0.212,-0.12 -0.319,-0.3 -0.319,-0.54l0,-6.182c0,-0.477 -0.124,-0.928 -0.372,-1.354c-0.248,-0.425 -0.578,-0.774 -0.991,-1.046c-0.413,-0.272 -0.87,-0.408 -1.373,-0.408c-0.429,0 -0.844,0.113 -1.245,0.339c-0.402,0.225 -0.731,0.544 -0.987,0.957c-0.256,0.413 -0.384,0.917 -0.384,1.512l0,6.182c0,0.183 -0.097,0.348 -0.293,0.497c-0.195,0.149 -0.433,0.223 -0.715,0.223Z" style="fill:#231f20;fill-rule:nonzero;"/><path d="M88.21,75.292c-0.272,0 -0.5,-0.065 -0.684,-0.197c-0.184,-0.131 -0.276,-0.297 -0.276,-0.499l-0,-13.051c-0,-0.832 0.194,-1.588 0.583,-2.268c0.389,-0.68 0.906,-1.221 1.551,-1.622c0.644,-0.402 1.351,-0.603 2.119,-0.603l0.835,0c0.262,0 0.464,0.09 0.605,0.269c0.141,0.179 0.211,0.384 0.211,0.614c-0,0.228 -0.07,0.429 -0.211,0.605c-0.141,0.176 -0.343,0.264 -0.605,0.264l-0.509,0c-0.486,0 -0.925,0.118 -1.317,0.353c-0.392,0.235 -0.7,0.546 -0.922,0.931c-0.222,0.386 -0.338,0.817 -0.348,1.294l-0,2.544l3.288,0c0.198,0 0.352,0.08 0.461,0.24c0.109,0.16 0.163,0.338 0.163,0.533c-0,0.201 -0.054,0.383 -0.163,0.545c-0.109,0.161 -0.263,0.242 -0.461,0.242l-3.288,0l-0,9.11c-0,0.202 -0.102,0.368 -0.305,0.499c-0.203,0.132 -0.445,0.197 -0.727,0.197Z" style="fill:#231f20;fill-rule:nonzero;"/><path d="M98.722,75.292c-1.29,0 -2.276,-0.288 -2.959,-0.864c-0.683,-0.576 -1.025,-1.496 -1.025,-2.76l-0,-12.36c-0,-0.211 0.106,-0.38 0.319,-0.506c0.213,-0.126 0.435,-0.19 0.665,-0.19c0.253,0 0.484,0.064 0.694,0.19c0.209,0.126 0.314,0.295 0.314,0.506l-0,4.618l3.029,0c0.189,0 0.337,0.08 0.446,0.24c0.109,0.16 0.164,0.342 0.164,0.547c-0,0.202 -0.055,0.381 -0.164,0.538c-0.109,0.157 -0.257,0.235 -0.446,0.235l-3.029,0l-0,6.182c-0,0.688 0.149,1.172 0.446,1.452c0.298,0.28 0.813,0.42 1.546,0.42l0.744,0c0.285,0 0.503,0.088 0.653,0.262c0.15,0.174 0.226,0.377 0.226,0.607c-0,0.227 -0.076,0.431 -0.226,0.612c-0.15,0.181 -0.368,0.271 -0.653,0.271l-0.744,0Z" style="fill:#231f20;fill-rule:nonzero;"/></svg>