<?xml version="1.0" encoding="UTF-8" standalone="no"?><!DOCTYPE svg PUBLIC "-//W3C//DTD SVG 1.1//EN" "http://www.w3.org/Graphics/SVG/1.1/DTD/svg11.dtd"><svg width="100%" height="100%" viewBox="0 0 137 86" version="1.1" xmlns="http://www.w3.org/2000/svg" xmlns:xlink="http://www.w3.org/1999/xlink" xml:space="preserve" xmlns:serif="http://www.serif.com/" style="fill-rule:evenodd;clip-rule:evenodd;stroke-linecap:round;stroke-miterlimit:1.5;"><ellipse cx="107.233" cy="35.166" rx="28.511" ry="28.457" style="fill:#941216;"/><g transform="matrix(24,0,0,24,-0.384,80.3307)"><path d="M0.274,0.006c-0.011,0 -0.022,-0.002 -0.032,-0.007c-0.01,-0.005 -0.017,-0.012 -0.02,-0.022l-0.205,-0.665c-0.001,-0.003 -0.001,-0.005 -0.001,-0.008c-0,-0.007 0.003,-0.013 0.008,-0.018c0.005,-0.005 0.012,-0.009 0.02,-0.012c0.008,-0.003 0.016,-0.005 0.023,-0.005c0.007,0 0.014,0.001 0.02,0.004c0.005,0.003 0.009,0.008 0.011,0.015l0.176,0.594l0.175,-0.594c0.002,-0.007 0.006,-0.012 0.011,-0.015c0.006,-0.003 0.012,-0.004 0.019,-0.004c0.008,0 0.016,0.002 0.024,0.005c0.008,0.003 0.014,0.007 0.02,0.013c0.005,0.005 0.008,0.011 0.008,0.018c-0,0.001 -0,0.002 -0.001,0.003c0,0.001 -0,0.003 -0,0.004l-0.204,0.665c-0.003,0.01 -0.009,0.017 -0.019,0.022c-0.01,0.005 -0.021,0.007 -0.033,0.007Z" style="fill:#231f20;fill-rule:nonzero;"/></g><g transform="matrix(24,0,0,24,11.472,80.3307)"><path d="M0.238,0.008c-0.035,-0 -0.068,-0.009 -0.098,-0.028c-0.03,-0.018 -0.054,-0.042 -0.072,-0.071c-0.018,-0.029 -0.027,-0.061 -0.027,-0.095l-0,-0.102c-0,-0.034 0.009,-0.065 0.026,-0.095c0.018,-0.029 0.042,-0.052 0.072,-0.07c0.03,-0.018 0.063,-0.027 0.099,-0.027c0.035,0 0.068,0.009 0.098,0.027c0.03,0.017 0.054,0.04 0.073,0.069c0.018,0.029 0.027,0.061 0.027,0.096l-0,0.102c-0,0.033 -0.009,0.065 -0.028,0.094c-0.018,0.03 -0.042,0.054 -0.072,0.072c-0.03,0.018 -0.063,0.028 -0.098,0.028Zm-0,-0.075c0.021,-0 0.04,-0.006 0.058,-0.017c0.017,-0.012 0.031,-0.026 0.041,-0.045c0.011,-0.018 0.016,-0.037 0.016,-0.057l-0,-0.102c-0,-0.019 -0.005,-0.038 -0.016,-0.056c-0.01,-0.018 -0.024,-0.032 -0.041,-0.044c-0.017,-0.011 -0.037,-0.017 -0.058,-0.017c-0.022,0 -0.041,0.006 -0.058,0.017c-0.017,0.012 -0.031,0.026 -0.041,0.044c-0.01,0.018 -0.015,0.037 -0.015,0.056l-0,0.102c-0,0.02 0.005,0.039 0.015,0.057c0.01,0.019 0.024,0.033 0.041,0.045c0.018,0.011 0.037,0.017 0.058,0.017Z" style="fill:#231f20;fill-rule:nonzero;"/></g><g transform="matrix(24,0,0,24,22.9105,80.3307)"><path d="M0.099,-0c-0.011,-0 -0.021,-0.003 -0.029,-0.009c-0.007,-0.006 -0.011,-0.013 -0.011,-0.021l-0,-0.415c-0,-0.008 0.004,-0.015 0.011,-0.021c0.008,-0.005 0.018,-0.008 0.029,-0.008c0.011,0 0.02,0.003 0.028,0.008c0.007,0.006 0.011,0.013 0.011,0.021l-0,0.047c0.007,-0.014 0.017,-0.027 0.03,-0.039c0.012,-0.012 0.027,-0.023 0.044,-0.031c0.017,-0.008 0.036,-0.012 0.057,-0.012l0.034,0c0.008,0 0.016,0.004 0.022,0.011c0.007,0.008 0.01,0.017 0.01,0.027c-0,0.01 -0.003,0.019 -0.01,0.026c-0.006,0.008 -0.014,0.011 -0.022,0.011l-0.034,0c-0.021,0 -0.042,0.006 -0.061,0.018c-0.02,0.012 -0.036,0.029 -0.048,0.051c-0.012,0.021 -0.018,0.047 -0.018,0.078l-0,0.228c-0,0.008 -0.004,0.015 -0.012,0.021c-0.009,0.006 -0.019,0.009 -0.031,0.009Z" style="fill:#231f20;fill-rule:nonzero;"/></g><g transform="matrix(24,0,0,24,30.4321,80.3307)"><path d="M0.163,0.008c-0.037,-0 -0.069,-0.011 -0.095,-0.033c-0.027,-0.022 -0.04,-0.055 -0.04,-0.1c0,-0.037 0.01,-0.065 0.03,-0.085c0.02,-0.021 0.047,-0.035 0.082,-0.043c0.035,-0.007 0.076,-0.011 0.122,-0.011l0.048,-0l-0,-0.021c-0,-0.02 -0.004,-0.039 -0.011,-0.058c-0.007,-0.019 -0.019,-0.035 -0.034,-0.047c-0.016,-0.013 -0.038,-0.019 -0.065,-0.019c-0.023,0 -0.041,0.002 -0.055,0.007c-0.014,0.005 -0.025,0.01 -0.033,0.015c-0.008,0.005 -0.015,0.007 -0.021,0.007c-0.01,0 -0.017,-0.004 -0.023,-0.014c-0.006,-0.01 -0.008,-0.019 -0.008,-0.028c-0,-0.011 0.007,-0.02 0.022,-0.029c0.014,-0.008 0.033,-0.015 0.055,-0.021c0.022,-0.005 0.044,-0.008 0.065,-0.008c0.047,0 0.084,0.01 0.112,0.028c0.028,0.019 0.048,0.042 0.06,0.072c0.012,0.029 0.019,0.06 0.019,0.094l-0,0.256c-0,0.008 -0.004,0.015 -0.012,0.021c-0.007,0.006 -0.017,0.009 -0.029,0.009c-0.011,0 -0.02,-0.003 -0.027,-0.009c-0.008,-0.006 -0.011,-0.013 -0.011,-0.021l-0,-0.04c-0.018,0.02 -0.039,0.038 -0.063,0.054c-0.025,0.016 -0.054,0.024 -0.088,0.024Zm0.026,-0.067c0.019,0 0.038,-0.005 0.057,-0.016c0.018,-0.01 0.033,-0.024 0.045,-0.04c0.013,-0.016 0.019,-0.031 0.019,-0.046l-0,-0.052l-0.035,-0c-0.028,-0 -0.054,0.001 -0.079,0.005c-0.025,0.003 -0.046,0.01 -0.061,0.022c-0.016,0.011 -0.023,0.028 -0.023,0.052c-0,0.026 0.007,0.045 0.022,0.057c0.015,0.012 0.033,0.018 0.055,0.018Z" style="fill:#231f20;fill-rule:nonzero;"/></g><g transform="matrix(24,0,0,24,41.1698,80.3307)"><path d="M0.253,0.008c-0.037,-0 -0.07,-0.009 -0.1,-0.027c-0.03,-0.018 -0.054,-0.042 -0.072,-0.071c-0.018,-0.03 -0.027,-0.061 -0.027,-0.094l0,-0.26c0,-0.007 0.005,-0.014 0.013,-0.02c0.008,-0.006 0.018,-0.01 0.029,-0.01c0.011,0 0.021,0.004 0.029,0.01c0.008,0.006 0.012,0.013 0.012,0.02l0,0.26c0,0.019 0.006,0.038 0.016,0.056c0.01,0.018 0.024,0.032 0.041,0.044c0.018,0.011 0.037,0.017 0.058,0.017c0.022,-0 0.041,-0.006 0.058,-0.017c0.017,-0.011 0.031,-0.026 0.041,-0.044c0.01,-0.018 0.015,-0.037 0.015,-0.056l0,-0.261c0,-0.008 0.005,-0.014 0.013,-0.02c0.009,-0.006 0.018,-0.009 0.029,-0.009c0.013,0 0.023,0.003 0.03,0.009c0.008,0.006 0.011,0.012 0.011,0.02l0,0.261c0,0.034 -0.009,0.065 -0.026,0.095c-0.018,0.029 -0.042,0.052 -0.072,0.07c-0.03,0.018 -0.063,0.027 -0.098,0.027Z" style="fill:#231f20;fill-rule:nonzero;"/></g><g transform="matrix(24,0,0,24,53.261,80.3307)"><path d="M0.195,0.008c-0.032,-0 -0.06,-0.004 -0.085,-0.013c-0.024,-0.008 -0.044,-0.017 -0.058,-0.029c-0.014,-0.012 -0.021,-0.023 -0.021,-0.034c0,-0.005 0.001,-0.011 0.004,-0.017c0.003,-0.005 0.006,-0.01 0.011,-0.014c0.004,-0.005 0.009,-0.007 0.014,-0.007c0.008,0 0.016,0.004 0.026,0.012c0.009,0.008 0.022,0.015 0.038,0.023c0.016,0.008 0.039,0.012 0.069,0.012c0.035,-0 0.06,-0.007 0.074,-0.02c0.014,-0.013 0.021,-0.027 0.021,-0.043c-0,-0.021 -0.006,-0.036 -0.018,-0.047c-0.012,-0.011 -0.027,-0.02 -0.046,-0.026c-0.018,-0.007 -0.038,-0.013 -0.059,-0.019c-0.021,-0.006 -0.04,-0.013 -0.059,-0.022c-0.019,-0.009 -0.034,-0.022 -0.046,-0.038c-0.011,-0.016 -0.017,-0.038 -0.017,-0.066c-0,-0.022 0.005,-0.044 0.016,-0.065c0.011,-0.021 0.028,-0.039 0.052,-0.053c0.024,-0.015 0.056,-0.022 0.096,-0.022c0.024,0 0.046,0.003 0.068,0.008c0.021,0.005 0.039,0.012 0.052,0.02c0.014,0.008 0.021,0.017 0.021,0.026c0,0.004 -0.001,0.01 -0.004,0.016c-0.003,0.007 -0.007,0.013 -0.011,0.018c-0.005,0.005 -0.011,0.008 -0.018,0.008c-0.005,-0 -0.013,-0.003 -0.023,-0.008c-0.009,-0.004 -0.021,-0.009 -0.034,-0.014c-0.014,-0.004 -0.031,-0.007 -0.05,-0.007c-0.022,0 -0.04,0.004 -0.053,0.012c-0.013,0.007 -0.023,0.016 -0.029,0.027c-0.006,0.01 -0.009,0.02 -0.009,0.031c-0,0.017 0.006,0.03 0.018,0.039c0.011,0.009 0.027,0.016 0.045,0.022c0.019,0.006 0.039,0.012 0.06,0.018c0.021,0.005 0.04,0.014 0.059,0.024c0.019,0.01 0.034,0.024 0.046,0.042c0.012,0.018 0.018,0.042 0.018,0.072c-0,0.041 -0.015,0.073 -0.044,0.097c-0.029,0.024 -0.071,0.037 -0.124,0.037Z" style="fill:#231f20;fill-rule:nonzero;"/></g><g transform="matrix(24,0,0,24,62.7506,80.3307)"><path d="M0.195,0.008c-0.032,-0 -0.06,-0.004 -0.085,-0.013c-0.024,-0.008 -0.044,-0.017 -0.058,-0.029c-0.014,-0.012 -0.021,-0.023 -0.021,-0.034c0,-0.005 0.001,-0.011 0.004,-0.017c0.003,-0.005 0.006,-0.01 0.011,-0.014c0.004,-0.005 0.009,-0.007 0.014,-0.007c0.008,0 0.016,0.004 0.026,0.012c0.009,0.008 0.022,0.015 0.038,0.023c0.016,0.008 0.039,0.012 0.069,0.012c0.035,-0 0.06,-0.007 0.074,-0.02c0.014,-0.013 0.021,-0.027 0.021,-0.043c-0,-0.021 -0.006,-0.036 -0.018,-0.047c-0.012,-0.011 -0.027,-0.02 -0.046,-0.026c-0.018,-0.007 -0.038,-0.013 -0.059,-0.019c-0.021,-0.006 -0.04,-0.013 -0.059,-0.022c-0.019,-0.009 -0.034,-0.022 -0.046,-0.038c-0.011,-0.016 -0.017,-0.038 -0.017,-0.066c-0,-0.022 0.005,-0.044 0.016,-0.065c0.011,-0.021 0.028,-0.039 0.052,-0.053c0.024,-0.015 0.056,-0.022 0.096,-0.022c0.024,0 0.046,0.003 0.068,0.008c0.021,0.005 0.039,0.012 0.052,0.02c0.014,0.008 0.021,0.017 0.021,0.026c0,0.004 -0.001,0.01 -0.004,0.016c-0.003,0.007 -0.007,0.013 -0.011,0.018c-0.005,0.005 -0.011,0.008 -0.018,0.008c-0.005,-0 -0.013,-0.003 -0.023,-0.008c-0.009,-0.004 -0.021,-0.009 -0.034,-0.014c-0.014,-0.004 -0.031,-0.007 -0.05,-0.007c-0.022,0 -0.04,0.004 -0.053,0.012c-0.013,0.007 -0.023,0.016 -0.029,0.027c-0.006,0.01 -0.009,0.02 -0.009,0.031c-0,0.017 0.006,0.03 0.018,0.039c0.011,0.009 0.027,0.016 0.045,0.022c0.019,0.006 0.039,0.012 0.06,0.018c0.021,0.005 0.04,0.014 0.059,0.024c0.019,0.01 0.034,0.024 0.046,0.042c0.012,0.018 0.018,0.042 0.018,0.072c-0,0.041 -0.015,0.073 -0.044,0.097c-0.029,0.024 -0.071,0.037 -0.124,0.037Z" style="fill:#231f20;fill-rule:nonzero;"/></g><g transform="matrix(24,0,0,24,72.2403,80.3307)"><path d="M0.264,0.008c-0.044,-0 -0.082,-0.009 -0.115,-0.025c-0.034,-0.016 -0.06,-0.039 -0.079,-0.068c-0.019,-0.029 -0.029,-0.063 -0.029,-0.101l0,-0.105c0,-0.034 0.009,-0.065 0.027,-0.094c0.019,-0.029 0.043,-0.052 0.073,-0.069c0.03,-0.017 0.063,-0.026 0.099,-0.026c0.034,0 0.066,0.008 0.095,0.024c0.029,0.016 0.053,0.038 0.071,0.065c0.018,0.028 0.026,0.059 0.026,0.095c0,0.027 -0.004,0.046 -0.013,0.057c-0.008,0.012 -0.019,0.019 -0.033,0.022c-0.013,0.002 -0.027,0.004 -0.042,0.004l-0.22,-0l0,0.03c0,0.037 0.014,0.067 0.04,0.089c0.027,0.021 0.061,0.032 0.103,0.032c0.025,0 0.045,-0.003 0.059,-0.01c0.015,-0.007 0.027,-0.013 0.036,-0.02c0.009,-0.006 0.018,-0.009 0.025,-0.009c0.007,-0 0.013,0.002 0.018,0.006c0.005,0.005 0.009,0.01 0.012,0.016c0.003,0.006 0.004,0.011 0.004,0.016c-0,0.008 -0.006,0.018 -0.019,0.03c-0.013,0.011 -0.031,0.02 -0.054,0.029c-0.024,0.008 -0.052,0.012 -0.084,0.012Zm-0.14,-0.277l0.185,-0c0.018,-0 0.03,-0.002 0.036,-0.006c0.005,-0.005 0.008,-0.013 0.008,-0.026c0,-0.02 -0.004,-0.038 -0.014,-0.055c-0.01,-0.018 -0.024,-0.031 -0.041,-0.042c-0.017,-0.011 -0.037,-0.016 -0.059,-0.016c-0.021,0 -0.04,0.005 -0.057,0.015c-0.018,0.01 -0.032,0.023 -0.042,0.039c-0.01,0.016 -0.016,0.035 -0.016,0.055l0,0.036Z" style="fill:#231f20;fill-rule:nonzero;"/></g><g transform="matrix(24,0,0,24,83.4099,80.3307)"><path d="M0.223,-0c-0.054,-0 -0.095,-0.012 -0.124,-0.036c-0.028,-0.024 -0.042,-0.062 -0.042,-0.115l-0,-0.515c-0,-0.009 0.004,-0.016 0.013,-0.021c0.009,-0.005 0.018,-0.008 0.028,-0.008c0.01,0 0.02,0.003 0.029,0.008c0.008,0.005 0.013,0.012 0.013,0.021l-0,0.192l0.126,0c0.008,0 0.014,0.004 0.019,0.01c0.004,0.007 0.006,0.015 0.006,0.023c0,0.009 -0.002,0.016 -0.006,0.023c-0.005,0.006 -0.011,0.009 -0.019,0.009l-0.126,0l-0,0.258c-0,0.029 0.006,0.049 0.018,0.06c0.013,0.012 0.034,0.018 0.065,0.018l0.031,-0c0.012,-0 0.021,0.004 0.027,0.011c0.006,0.007 0.009,0.016 0.009,0.025c0,0.01 -0.003,0.018 -0.009,0.026c-0.006,0.007 -0.015,0.011 -0.027,0.011l-0.031,-0Z" style="fill:#231f20;fill-rule:nonzero;"/></g><g transform="matrix(24,0,0,24,90.8211,80.3307)"><path d="M0.054,-0c-0.01,-0 -0.018,-0.003 -0.023,-0.01c-0.006,-0.006 -0.008,-0.013 -0.008,-0.021c-0,-0.006 0.001,-0.012 0.004,-0.018c0.002,-0.006 0.006,-0.011 0.009,-0.015l0.231,-0.339l-0.207,0c-0.008,0 -0.014,-0.003 -0.02,-0.01c-0.006,-0.007 -0.008,-0.015 -0.008,-0.025c-0,-0.01 0.002,-0.018 0.008,-0.025c0.005,-0.007 0.012,-0.011 0.02,-0.011l0.286,0c0.008,0 0.015,0.003 0.021,0.008c0.006,0.006 0.009,0.013 0.009,0.024c-0,0.011 -0.004,0.022 -0.012,0.032l-0.232,0.339l0.229,0c0.008,0 0.014,0.003 0.02,0.01c0.005,0.007 0.008,0.016 0.008,0.026c-0,0.009 -0.003,0.018 -0.008,0.025c-0.005,0.007 -0.012,0.01 -0.02,0.01l-0.307,0Z" style="fill:#231f20;fill-rule:nonzero;"/></g><g transform="matrix(24,0,0,24,100.666,80.3307)"><path d="M0.253,0.008c-0.037,-0 -0.07,-0.009 -0.1,-0.027c-0.03,-0.018 -0.054,-0.042 -0.072,-0.071c-0.018,-0.03 -0.027,-0.061 -0.027,-0.094l0,-0.26c0,-0.007 0.005,-0.014 0.013,-0.02c0.008,-0.006 0.018,-0.01 0.029,-0.01c0.011,0 0.021,0.004 0.029,0.01c0.008,0.006 0.012,0.013 0.012,0.02l0,0.26c0,0.019 0.006,0.038 0.016,0.056c0.01,0.018 0.024,0.032 0.041,0.044c0.018,0.011 0.037,0.017 0.058,0.017c0.022,-0 0.041,-0.006 0.058,-0.017c0.017,-0.011 0.031,-0.026 0.041,-0.044c0.01,-0.018 0.015,-0.037 0.015,-0.056l0,-0.261c0,-0.008 0.005,-0.014 0.013,-0.02c0.009,-0.006 0.018,-0.009 0.029,-0.009c0.013,0 0.023,0.003 0.03,0.009c0.008,0.006 0.011,0.012 0.011,0.02l0,0.261c0,0.034 -0.009,0.065 -0.026,0.095c-0.018,0.029 -0.042,0.052 -0.072,0.07c-0.03,0.018 -0.063,0.027 -0.098,0.027Z" style="fill:#231f20;fill-rule:nonzero;"/></g><g transform="matrix(24,0,0,24,112.757,80.3307)"><path d="M0.1,-0c-0.012,-0 -0.022,-0.003 -0.03,-0.009c-0.007,-0.006 -0.011,-0.013 -0.011,-0.021l-0,-0.415c-0,-0.008 0.004,-0.015 0.011,-0.021c0.008,-0.005 0.018,-0.008 0.03,-0.008c0.01,0 0.019,0.003 0.027,0.008c0.007,0.006 0.011,0.013 0.011,0.021l-0,0.041c0.01,-0.019 0.027,-0.036 0.05,-0.052c0.022,-0.016 0.05,-0.024 0.084,-0.024c0.032,0 0.061,0.009 0.088,0.027c0.026,0.017 0.048,0.04 0.064,0.069c0.016,0.029 0.024,0.061 0.024,0.096l-0,0.258c-0,0.01 -0.005,0.018 -0.013,0.023c-0.009,0.005 -0.019,0.007 -0.029,0.007c-0.01,0 -0.019,-0.002 -0.028,-0.007c-0.009,-0.005 -0.013,-0.013 -0.013,-0.023l-0,-0.258c-0,-0.019 -0.005,-0.038 -0.016,-0.056c-0.01,-0.018 -0.024,-0.032 -0.041,-0.044c-0.017,-0.011 -0.036,-0.017 -0.057,-0.017c-0.018,0 -0.035,0.005 -0.052,0.015c-0.017,0.009 -0.031,0.022 -0.041,0.039c-0.011,0.018 -0.016,0.039 -0.016,0.063l-0,0.258c-0,0.008 -0.004,0.015 -0.012,0.021c-0.009,0.006 -0.018,0.009 -0.03,0.009Z" style="fill:#231f20;fill-rule:nonzero;"/></g><g transform="matrix(24,0,0,24,124.81,80.3307)"><path d="M0.232,0.229c-0.039,0 -0.074,-0.005 -0.106,-0.016c-0.031,-0.011 -0.056,-0.027 -0.075,-0.047c-0.018,-0.02 -0.027,-0.045 -0.027,-0.072c0,-0.028 0.008,-0.051 0.025,-0.069c0.016,-0.017 0.035,-0.031 0.056,-0.04c-0.015,-0.005 -0.027,-0.014 -0.036,-0.024c-0.01,-0.01 -0.015,-0.024 -0.015,-0.043c0,-0.019 0.005,-0.034 0.014,-0.045c0.01,-0.011 0.022,-0.021 0.036,-0.029c-0.018,-0.015 -0.032,-0.033 -0.042,-0.055c-0.01,-0.021 -0.015,-0.045 -0.015,-0.071l-0,-0.033c0,-0.032 0.007,-0.061 0.022,-0.086c0.015,-0.024 0.036,-0.044 0.063,-0.058c0.027,-0.014 0.058,-0.021 0.094,-0.021c0.023,0 0.044,0.004 0.064,0.011c0.02,0.006 0.037,0.016 0.052,0.028c0.011,-0.022 0.022,-0.039 0.034,-0.049c0.011,-0.011 0.023,-0.016 0.034,-0.016c0.012,0 0.021,0.004 0.027,0.01c0.006,0.007 0.009,0.014 0.009,0.021c0,0.005 -0.001,0.01 -0.005,0.014c-0.003,0.004 -0.007,0.007 -0.012,0.009c-0.008,0.002 -0.016,0.006 -0.026,0.012c-0.01,0.006 -0.019,0.016 -0.027,0.03c0.01,0.013 0.018,0.027 0.023,0.043c0.005,0.016 0.007,0.034 0.007,0.052l0,0.033c-0,0.031 -0.008,0.06 -0.023,0.085c-0.015,0.025 -0.036,0.045 -0.064,0.059c-0.027,0.015 -0.059,0.022 -0.094,0.022c-0.027,0 -0.052,-0.005 -0.073,-0.015c-0.007,0.004 -0.013,0.008 -0.018,0.013c-0.005,0.005 -0.008,0.012 -0.008,0.021c0,0.014 0.008,0.024 0.023,0.03c0.015,0.006 0.034,0.01 0.057,0.013c0.023,0.002 0.048,0.006 0.074,0.009c0.026,0.003 0.051,0.009 0.074,0.018c0.024,0.008 0.043,0.021 0.058,0.038c0.015,0.017 0.022,0.041 0.022,0.072c0,0.033 -0.009,0.06 -0.027,0.082c-0.018,0.021 -0.042,0.037 -0.073,0.048c-0.03,0.011 -0.064,0.016 -0.102,0.016Zm-0.002,-0.058c0.038,-0 0.068,-0.008 0.09,-0.024c0.022,-0.015 0.033,-0.036 0.033,-0.062c0,-0.019 -0.006,-0.034 -0.017,-0.044c-0.012,-0.01 -0.026,-0.018 -0.044,-0.023c-0.018,-0.004 -0.037,-0.008 -0.057,-0.01c-0.019,-0.001 -0.037,-0.003 -0.053,-0.005c-0.021,0.007 -0.039,0.017 -0.055,0.03c-0.016,0.013 -0.024,0.031 -0.024,0.052c0,0.026 0.012,0.047 0.035,0.062c0.023,0.016 0.054,0.024 0.092,0.024Zm-0.003,-0.344c0.031,0 0.054,-0.01 0.072,-0.031c0.017,-0.021 0.026,-0.047 0.026,-0.078l-0,-0.033c-0,-0.03 -0.009,-0.056 -0.026,-0.077c-0.017,-0.02 -0.042,-0.031 -0.073,-0.031c-0.031,0 -0.055,0.011 -0.072,0.031c-0.017,0.021 -0.026,0.047 -0.026,0.077l-0,0.032c-0,0.031 0.009,0.057 0.026,0.078c0.017,0.022 0.042,0.032 0.073,0.032Z" style="fill:#231f20;fill-rule:nonzero;"/></g><g transform="matrix(24,0,0,24,135.821,80.3307)"></g><rect x="34.041" y="6.71" width="62.785" height="53.905" style="fill:none;stroke:#231f20;stroke-width:3px;"/><rect x="43.183" y="1.803" width="44.471" height="9.814" style="fill:#fff;stroke:#231f20;stroke-width:2px;"/><rect x="43.183" y="17.741" width="7.892" height="7.345" style="fill:#fff;stroke:#231f20;stroke-width:1px;"/><rect x="43.183" y="32.121" width="7.892" height="7.345" style="fill:#fff;stroke:#231f20;stroke-width:1px;"/><path d="M57.41,23.984c25.137,0 25.496,0 25.137,0" style="fill:none;stroke:#231f20;stroke-width:3px;"/><path d="M57.41,36.335c25.137,0 25.496,0 25.137,0" style="fill:none;stroke:#231f20;stroke-width:3px;"/><path d="M57.41,52.664c25.137,-0 25.496,-0 25.137,-0" style="fill:none;stroke:#231f20;stroke-width:3px;"/><rect x="43.183" y="46.291" width="7.892" height="7.345" style="fill:#fff;stroke:#231f20;stroke-width:1px;"/><path d="M84.065,57.363l-14.056,-10.566l5.793,-7.743l11.89,12.405l34.435,-48.113l12.076,7.322l-45.131,49.339l-0.519,0.729l-0.088,-0.066l-0.06,0.066l-4.34,-3.373Z" style="fill:#fff;stroke:#231f20;stroke-width:3px;"/></svg>