<?xml version="1.0" encoding="UTF-8" standalone="no"?><!DOCTYPE svg PUBLIC "-//W3C//DTD SVG 1.1//EN" "http://www.w3.org/Graphics/SVG/1.1/DTD/svg11.dtd"><svg width="100%" height="100%" viewBox="0 0 93 59" version="1.1" xmlns="http://www.w3.org/2000/svg" xmlns:xlink="http://www.w3.org/1999/xlink" xml:space="preserve" xmlns:serif="http://www.serif.com/" style="fill-rule:evenodd;clip-rule:evenodd;stroke-linecap:round;stroke-miterlimit:1.5;"><ellipse cx="64.135" cy="28.58" rx="28.511" ry="28.457" style="fill:#941216;"/><rect x="2.704" y="6.71" width="62.785" height="48.998" style="fill:none;stroke:#231f20;stroke-width:3px;"/><rect x="11.846" y="1.803" width="44.471" height="9.814" style="fill:#fff;stroke:#231f20;stroke-width:2px;"/><rect x="12.806" y="15.954" width="7.892" height="7.345" style="fill:#fff;stroke:#231f20;stroke-width:1px;"/><rect x="12.806" y="30.334" width="7.892" height="7.345" style="fill:#fff;stroke:#231f20;stroke-width:1px;"/><path d="M27.032,22.197c25.138,0 25.497,0 25.138,0" style="fill:none;stroke:#231f20;stroke-width:3px;"/><path d="M27.032,34.548c25.138,0 25.497,0 25.138,0" style="fill:none;stroke:#231f20;stroke-width:3px;"/><path d="M27.032,50.877c25.138,-0 25.497,-0 25.138,-0" style="fill:none;stroke:#231f20;stroke-width:3px;"/><rect x="12.806" y="44.504" width="7.892" height="7.345" style="fill:#fff;stroke:#231f20;stroke-width:1px;"/><path d="M41.857,51.463l-12.76,-9.587l4.781,-6.391l10.931,11.075l28.336,-39.769l10.894,6.736l-37.681,40.395l-0.426,0.603l-0.08,-0.06l-0.051,0.054l-3.944,-3.056Z" style="fill:#fff;stroke:#231f20;stroke-width:3px;"/></svg>