<?xml version="1.0" encoding="UTF-8" standalone="no"?>
<!DOCTYPE svg PUBLIC "-//W3C//DTD SVG 1.1//EN" "http://www.w3.org/Graphics/SVG/1.1/DTD/svg11.dtd">
<svg width="100%" height="100%" viewBox="0 0 358 238" version="1.1" xmlns="http://www.w3.org/2000/svg" xmlns:xlink="http://www.w3.org/1999/xlink" xml:space="preserve" xmlns:serif="http://www.serif.com/" style="fill-rule:evenodd;clip-rule:evenodd;stroke-linecap:round;stroke-linejoin:round;stroke-miterlimit:1.5;">
    <g transform="matrix(1,0,0,1,-1549.86,-1419.09)">
        <g transform="matrix(1,0,0,1,1126.85,289.975)">
            <ellipse cx="662.002" cy="1247.69" rx="118.798" ry="118.57" style="fill:rgb(148,18,22);"/>
        </g>
        <g transform="matrix(0.220173,0,0,0.432667,1660.27,792.29)">
            <path d="M618.396,1659.23L618.396,1884.44C618.396,1888.06 612.626,1890.99 605.519,1890.99L579.764,1890.99C572.657,1890.99 566.887,1888.06 566.887,1884.44L566.887,1659.23C566.887,1655.61 572.657,1652.67 579.764,1652.67L605.519,1652.67C612.626,1652.67 618.396,1655.61 618.396,1659.23Z" style="fill:white;stroke:white;stroke-width:12.14px;"/>
        </g>
        <g transform="matrix(0.218527,0,0,0.558606,1707.86,554.141)">
            <path d="M618.396,1657.71L618.396,1885.96C618.396,1888.74 612.626,1890.99 605.519,1890.99L579.764,1890.99C572.657,1890.99 566.887,1888.74 566.887,1885.96L566.887,1657.71C566.887,1654.93 572.657,1652.67 579.764,1652.67L605.519,1652.67C612.626,1652.67 618.396,1654.93 618.396,1657.71Z" style="fill:white;stroke:white;stroke-width:9.82px;"/>
        </g>
        <g transform="matrix(0.584062,0,0,0.451338,1097.51,524.21)">
            <path d="M795.903,2380.15C868.708,2337.2 844.409,2264.51 905.987,2264.45C974.21,2264.39 942.124,2380.6 1019.51,2380.15C1090.78,2379.73 1080.55,2227.14 1149.31,2227.35C1226.36,2227.57 1171.6,2343.35 1261.46,2380.15" style="fill:none;stroke:black;stroke-width:47.9px;"/>
        </g>
        <g transform="matrix(0.216313,0,0,0.314847,1616.12,1015.09)">
            <path d="M618.396,1661.52L618.396,1882.15C618.396,1887.03 612.626,1890.99 605.519,1890.99L579.764,1890.99C572.657,1890.99 566.887,1887.03 566.887,1882.15L566.887,1661.52C566.887,1656.64 572.657,1652.67 579.764,1652.67L605.519,1652.67C612.626,1652.67 618.396,1656.64 618.396,1661.52Z" style="fill:white;stroke:white;stroke-width:15.43px;"/>
        </g>
        <g transform="matrix(0.220059,0,0,0.371702,1637.09,907.574)">
            <path d="M618.396,1660.3L618.396,1883.37C618.396,1887.58 612.626,1890.99 605.519,1890.99L579.764,1890.99C572.657,1890.99 566.887,1887.58 566.887,1883.37L566.887,1660.3C566.887,1656.09 572.657,1652.67 579.764,1652.67L605.519,1652.67C612.626,1652.67 618.396,1656.09 618.396,1660.3Z" style="fill:white;stroke:white;stroke-width:13.64px;"/>
        </g>
        <g transform="matrix(0.21813,0,0,0.496736,1684.87,671.136)">
            <path d="M618.396,1658.33L618.396,1885.34C618.396,1888.46 612.626,1890.99 605.519,1890.99L579.764,1890.99C572.657,1890.99 566.887,1888.46 566.887,1885.34L566.887,1658.33C566.887,1655.21 572.657,1652.67 579.764,1652.67L605.519,1652.67C612.626,1652.67 618.396,1655.21 618.396,1658.33Z" style="fill:white;stroke:white;stroke-width:10.86px;"/>
        </g>
        <g transform="matrix(0.21813,0,0,0.621835,1731.12,434.574)">
            <path d="M618.396,1657.19L618.396,1886.48C618.396,1888.97 612.626,1890.99 605.519,1890.99L579.764,1890.99C572.657,1890.99 566.887,1888.97 566.887,1886.48L566.887,1657.19C566.887,1654.7 572.657,1652.67 579.764,1652.67L605.519,1652.67C612.626,1652.67 618.396,1654.7 618.396,1657.19Z" style="fill:white;stroke:white;stroke-width:8.94px;"/>
        </g>
        <g transform="matrix(2.44813,0,0,2.44813,-1220.12,-3611.25)">
            <g transform="matrix(50,0,0,50,1218.8,2100.42)">
            </g>
            <text x="1133.05px" y="2100.42px" style="font-family:'GloriaHallelujah', 'Gloria Hallelujah';font-size:50px;">WW</text>
        </g>
    </g>
</svg>
