<?xml version="1.0" encoding="iso-8859-1"?>
<!-- Generator: Adobe Illustrator 17.1.0, SVG Export Plug-In . SVG Version: 6.00 Build 0)  -->
<!DOCTYPE svg PUBLIC "-//W3C//DTD SVG 1.1//EN" "http://www.w3.org/Graphics/SVG/1.1/DTD/svg11.dtd">
<svg version="1.1" id="Capa_1" xmlns="http://www.w3.org/2000/svg" xmlns:xlink="http://www.w3.org/1999/xlink" x="0px" y="0px"
	 viewBox="0 0 298.288 298.288" style="enable-background:new 0 0 298.288 298.288;" xml:space="preserve">
<path d="M288.844,238.516l-41.206-41.207c-12.592-12.592-31.822-23.352-42.735-23.911c-5.425-0.278-11.037,0.148-15.724,1.059
	l-25.783-25.783l81.662-81.66c0.5,0.047,1.003,0.071,1.506,0.071c4.051,0,8.103-1.545,11.192-4.636l34.957-34.959
	c6.182-6.182,6.182-16.204,0-22.385c-6.182-6.182-16.205-6.182-22.385,0l-34.957,34.959c-3.474,3.474-4.995,8.161-4.564,12.697
	l-81.662,81.661L67.484,52.764c0.431-4.537-1.09-9.225-4.564-12.699L27.962,5.106c-6.181-6.181-16.202-6.183-22.385,0
	c-6.182,6.181-6.182,16.203,0,22.385L40.535,62.45c3.091,3.091,7.141,4.636,11.192,4.636c0.502,0,1.004-0.024,1.505-0.071
	l81.662,81.66l-25.783,25.783c-4.688-0.911-10.299-1.338-15.725-1.059c-10.913,0.559-30.144,11.319-42.735,23.911L9.444,238.516
	c-12.592,12.592-12.592,33.196-0.001,45.788l4.071,4.07c12.591,12.592,33.194,12.593,45.786,0.001l41.211-41.211
	c12.592-12.592,23.352-31.822,23.911-42.734c0.277-5.425-0.149-11.035-1.061-15.722l25.783-25.783l25.782,25.782
	c-0.911,4.687-1.338,10.298-1.06,15.723c0.561,10.912,11.32,30.143,23.912,42.734l41.211,41.211
	c12.592,12.592,33.195,12.591,45.786-0.001l4.068-4.07C301.436,271.712,301.436,251.108,288.844,238.516z"/>
<g>
</g>
<g>
</g>
<g>
</g>
<g>
</g>
<g>
</g>
<g>
</g>
<g>
</g>
<g>
</g>
<g>
</g>
<g>
</g>
<g>
</g>
<g>
</g>
<g>
</g>
<g>
</g>
<g>
</g>
</svg>
