<svg xmlns="http://www.w3.org/2000/svg" id="Ebene_1" data-name="Ebene 1" viewBox="0 0 253.59 57.85"><defs><style>      .cls-1 {        fill: #c60219;      }      .cls-2 {        fill: #3c3c3c;      }    </style></defs><g><path class="cls-2" d="m77.58,23.04l-5.72-8.76h-.35v8.76h-4.08V1.84c1.66-.09,3.64-.13,6.09-.13,4.68,0,7.69,1.63,7.69,5.97,0,3.14-2.26,5.4-5.21,5.9.6.79,1.19,1.57,1.7,2.32l4.93,7.13h-5.06Zm-4.46-17.99c-.6,0-1.19.03-1.6.09v6.12c.28.03.85.06,1.48.06,2.45,0,3.96-1.26,3.96-3.23s-1.26-3.05-3.83-3.05Z"></path><path class="cls-2" d="m94.28,23.04v-9.99c0-1.6-.44-2.58-1.95-2.58-2.04,0-3.61,2.29-3.61,5.06v7.51h-4.02V3.19c-.75-.13-1.82-.25-2.73-.31V.36c2.01-.25,4.43-.35,6.75-.28v6.75c0,.94-.06,2.23-.28,3.17h.06c.91-1.73,2.67-2.89,5.12-2.89,3.52,0,4.65,2.23,4.65,4.96v10.96h-3.99Z"></path><path class="cls-2" d="m114.7,15.94h-9.64c-.03,2.89,1.29,4.27,4.3,4.27,1.48,0,3.05-.31,4.52-.91l.44,3.05c-1.7.63-3.74,1-5.65,1-4.93,0-7.69-2.48-7.69-7.98,0-4.68,2.76-8.26,7.41-8.26s6.47,2.92,6.47,6.63c0,.6-.03,1.51-.16,2.2Zm-6.53-5.87c-1.66,0-2.83,1.26-3.05,3.2h5.75c.06-2.04-1-3.2-2.7-3.2Z"></path><path class="cls-2" d="m118.84,23.04v-12.53c-.75-.13-1.82-.25-2.73-.31v-2.51c1.98-.25,4.4-.35,6.72-.28v15.64h-3.99Zm1.98-17.93c-1.35,0-2.48-1.07-2.48-2.42s1.13-2.45,2.48-2.45,2.51,1.07,2.51,2.45-1.13,2.42-2.51,2.42Z"></path><path class="cls-2" d="m137.11,23.04v-9.99c0-1.6-.44-2.58-1.92-2.58-2.04,0-3.64,2.29-3.64,5.02v7.54h-3.99v-12.53c-.75-.13-1.82-.25-2.73-.31v-2.51c1.98-.25,4.4-.35,6.5-.28,0,.75-.06,1.98-.22,2.83h.03c.94-1.82,2.76-3.11,5.31-3.11,3.52,0,4.65,2.23,4.65,4.96v10.96h-3.99Z"></path><path class="cls-2" d="m147.67,23.35c-1.23,0-2.48-.13-3.49-.41l.28-3.36c.94.41,2.17.63,3.33.63,1.51,0,2.51-.66,2.51-1.7,0-2.76-6.34-1.13-6.34-6.44,0-2.76,2.1-4.99,6.63-4.99.88,0,1.95.13,2.83.31l-.19,3.14c-.85-.25-1.85-.41-2.83-.41-1.57,0-2.29.63-2.29,1.6,0,2.64,6.44,1.32,6.44,6.44,0,3.11-2.73,5.18-6.88,5.18Z"></path><path class="cls-2" d="m163.4,23.32c-4.33,0-7.03-2.26-7.03-7.57,0-4.87,2.54-8.6,7.94-8.6,1.19,0,2.42.19,3.42.53l-.63,3.45c-.85-.35-1.88-.6-2.92-.6-2.39,0-3.61,1.92-3.61,4.8,0,2.67.97,4.52,3.64,4.52,1.07,0,2.13-.22,3.05-.63l.53,3.36c-1.22.47-2.89.72-4.4.72Z"></path><path class="cls-2" d="m179.88,23.04v-9.99c0-1.6-.44-2.58-1.95-2.58-2.04,0-3.61,2.29-3.61,5.06v7.51h-4.02V3.19c-.75-.13-1.82-.25-2.73-.31V.36c2.01-.25,4.43-.35,6.75-.28v6.75c0,.94-.06,2.23-.28,3.17h.06c.91-1.73,2.67-2.89,5.12-2.89,3.52,0,4.65,2.23,4.65,4.96v10.96h-3.99Z"></path><path class="cls-2" d="m187.57,23.04V3.19c-.75-.13-1.82-.25-2.73-.31V.36c2.01-.25,4.43-.35,6.75-.28v22.96h-4.02Z"></path><path class="cls-2" d="m206.09,23.07c0-.72.03-1.92.19-2.83h-.06c-.91,1.82-2.73,3.11-5.28,3.11-3.55,0-4.68-2.23-4.68-4.96v-7.88c-.75-.13-1.79-.25-2.7-.31v-2.51c2.07-.25,4.55-.35,6.72-.28v10.02c0,1.6.44,2.58,1.92,2.58,2.04,0,3.64-2.29,3.64-5.02v-7.54h3.99v12.53c.75.13,1.82.25,2.73.31v2.51c-1.98.25-4.43.35-6.47.28Z"></path><path class="cls-2" d="m220.65,23.32c-4.33,0-7.03-2.26-7.03-7.57,0-4.87,2.54-8.6,7.94-8.6,1.19,0,2.42.19,3.42.53l-.63,3.45c-.85-.35-1.88-.6-2.92-.6-2.39,0-3.61,1.92-3.61,4.8,0,2.67.97,4.52,3.64,4.52,1.07,0,2.13-.22,3.05-.63l.53,3.36c-1.22.47-2.89.72-4.4.72Z"></path><path class="cls-2" d="m237.12,23.04v-9.99c0-1.6-.44-2.58-1.95-2.58-2.04,0-3.61,2.29-3.61,5.06v7.51h-4.02V3.19c-.75-.13-1.82-.25-2.73-.31V.36c2.01-.25,4.43-.35,6.75-.28v6.75c0,.94-.06,2.23-.28,3.17h.06c.91-1.73,2.67-2.89,5.12-2.89,3.52,0,4.65,2.23,4.65,4.96v10.96h-3.99Z"></path><path class="cls-2" d="m250.2,23.35c-3.46,0-4.52-1.26-4.52-4.9v-7.91h-2.7v-3.11h2.7V2.62l3.99-1.07v5.87h3.8v3.11h-3.8v6.85c0,2.01.47,2.57,1.85,2.57.66,0,1.26-.06,1.79-.22l.28,3.17c-1,.25-2.29.44-3.39.44Z"></path><path class="cls-2" d="m77.58,57.54l-5.72-8.76h-.35v8.76h-4.08v-21.2c1.66-.09,3.64-.12,6.09-.12,4.68,0,7.69,1.63,7.69,5.97,0,3.14-2.26,5.4-5.21,5.9.6.79,1.19,1.57,1.7,2.32l4.93,7.13h-5.06Zm-4.46-17.99c-.6,0-1.19.03-1.6.09v6.12c.28.03.85.06,1.48.06,2.45,0,3.96-1.26,3.96-3.24s-1.26-3.05-3.83-3.05Z"></path><path class="cls-2" d="m95.57,57.57c0-.72.03-1.92.19-2.83h-.06c-.91,1.82-2.73,3.11-5.28,3.11-3.55,0-4.68-2.23-4.68-4.96v-7.88c-.75-.13-1.79-.25-2.7-.31v-2.51c2.07-.25,4.55-.34,6.72-.28v10.02c0,1.6.44,2.58,1.92,2.58,2.04,0,3.64-2.29,3.64-5.02v-7.54h3.99v12.53c.75.12,1.82.25,2.73.31v2.51c-1.98.25-4.43.34-6.47.28Z"></path><path class="cls-2" d="m104.62,57.54v-12.53c-.75-.13-1.82-.25-2.73-.31v-2.51c1.98-.25,4.4-.34,6.72-.28v15.64h-3.99Zm1.98-17.93c-1.35,0-2.48-1.07-2.48-2.42s1.13-2.45,2.48-2.45,2.51,1.07,2.51,2.45-1.13,2.42-2.51,2.42Z"></path><path class="cls-2" d="m122.89,57.54v-9.99c0-1.6-.44-2.57-1.92-2.57-2.04,0-3.64,2.29-3.64,5.02v7.54h-3.99v-12.53c-.75-.13-1.82-.25-2.73-.31v-2.51c1.98-.25,4.4-.34,6.5-.28,0,.75-.06,1.98-.22,2.83h.03c.94-1.82,2.76-3.11,5.31-3.11,3.52,0,4.65,2.23,4.65,4.96v10.96h-3.99Z"></path><path class="cls-2" d="m138.87,57.57c0-.91.03-1.85.16-2.67l-.03-.03c-.75,1.76-2.67,2.98-4.99,2.98-2.83,0-4.46-1.73-4.46-4.24,0-3.74,3.71-5.68,9.01-5.68v-.75c0-1.63-.79-2.45-3.05-2.45-1.41,0-3.3.44-4.55,1.1l-.47-3.3c1.6-.53,3.67-.94,5.59-.94,5.09,0,6.5,2.01,6.5,5.43v7.44c.75.12,1.82.25,2.73.31v2.51c-1.98.25-4.4.34-6.44.28Zm-.31-7.03c-4.08,0-5.18,1.1-5.18,2.45,0,1.04.69,1.79,1.85,1.79,1.98,0,3.33-1.88,3.33-3.77v-.47Z"></path><path class="cls-2" d="m157.5,57.57c0-.72.03-1.92.19-2.83h-.06c-.91,1.82-2.73,3.11-5.28,3.11-3.55,0-4.68-2.23-4.68-4.96v-7.88c-.75-.13-1.79-.25-2.7-.31v-2.51c2.07-.25,4.55-.34,6.72-.28v10.02c0,1.6.44,2.58,1.92,2.58,2.04,0,3.64-2.29,3.64-5.02v-7.54h3.99v12.53c.75.12,1.82.25,2.73.31v2.51c-1.98.25-4.43.34-6.47.28Z"></path><path class="cls-2" d="m166.04,57.54v-19.85c-.75-.13-1.82-.25-2.73-.31v-2.51c2.01-.25,4.43-.35,6.75-.28v22.96h-4.02Z"></path><path class="cls-2" d="m179.14,57.85c-3.45,0-4.52-1.26-4.52-4.9v-7.91h-2.7v-3.11h2.7v-4.8l3.99-1.07v5.87h3.8v3.11h-3.8v6.85c0,2.01.47,2.58,1.85,2.58.66,0,1.26-.06,1.79-.22l.28,3.17c-1,.25-2.29.44-3.39.44Z"></path><path class="cls-2" d="m193.52,57.57c0-.91.03-1.85.16-2.67l-.03-.03c-.75,1.76-2.67,2.98-4.99,2.98-2.83,0-4.46-1.73-4.46-4.24,0-3.74,3.71-5.68,9.01-5.68v-.75c0-1.63-.79-2.45-3.05-2.45-1.41,0-3.3.44-4.55,1.1l-.47-3.3c1.6-.53,3.67-.94,5.59-.94,5.09,0,6.5,2.01,6.5,5.43v7.44c.75.12,1.82.25,2.73.31v2.51c-1.98.25-4.4.34-6.44.28Zm-.31-7.03c-4.08,0-5.18,1.1-5.18,2.45,0,1.04.69,1.79,1.85,1.79,1.98,0,3.33-1.88,3.33-3.77v-.47Z"></path></g><g><path class="cls-2" d="m.91,6c6.09-.34,13.68,4.02,12.39,17.04h9.73C23.04,9.13,16.89-.68,0,.04l.91,5.96Zm47.13,0c-6.09-.34-13.68,4.02-12.39,17.04h-9.73C25.92,9.13,32.06-.68,48.95.04l-.91,5.96Z"></path><path class="cls-1" d="m39.28,23.04c0,13.78-10.38,25-24.52,25l-1.46,9.55h1.46c18.66,0,33.28-15.62,33.28-34.55h-8.76Z"></path></g></svg>